<?xml version="1.0" encoding="UTF-8" standalone="no"?>
<!-- Created with Inkscape (http://www.inkscape.org/) -->

<svg
   sodipodi:docname="BioMonToolsB.svg"
   inkscape:version="1.2 (dc2aedaf03, 2022-05-15)"
   id="svg18238"
   version="1.1"
   viewBox="0 0 210 297"
   height="297mm"
   width="210mm"
   inkscape:export-filename="BioMonTools\BioMonTools.png"
   inkscape:export-xdpi="241.90475"
   inkscape:export-ydpi="241.90475"
   xmlns:inkscape="http://www.inkscape.org/namespaces/inkscape"
   xmlns:sodipodi="http://sodipodi.sourceforge.net/DTD/sodipodi-0.dtd"
   xmlns:xlink="http://www.w3.org/1999/xlink"
   xmlns="http://www.w3.org/2000/svg"
   xmlns:svg="http://www.w3.org/2000/svg"
   xmlns:rdf="http://www.w3.org/1999/02/22-rdf-syntax-ns#"
   xmlns:cc="http://creativecommons.org/ns#"
   xmlns:dc="http://purl.org/dc/elements/1.1/">
  <title
     id="title16716">BioMonTools</title>
  <sodipodi:namedview
     id="namedview18240"
     pagecolor="#ffffff"
     bordercolor="#000000"
     borderopacity="0.25"
     inkscape:showpageshadow="2"
     inkscape:pageopacity="0.0"
     inkscape:pagecheckerboard="0"
     inkscape:deskcolor="#d1d1d1"
     inkscape:document-units="mm"
     showgrid="false"
     inkscape:zoom="1"
     inkscape:cx="346.5"
     inkscape:cy="537.5"
     inkscape:window-width="2560"
     inkscape:window-height="1351"
     inkscape:window-x="-9"
     inkscape:window-y="-9"
     inkscape:window-maximized="1"
     inkscape:current-layer="layer3">
    <sodipodi:guide
       position="105,0"
       orientation="297,0"
       id="guide1705"
       inkscape:locked="false" />
    <sodipodi:guide
       position="0,148.5"
       orientation="0,210"
       id="guide1707"
       inkscape:locked="false" />
  </sodipodi:namedview>
  <defs
     id="defs18235">
    <pattern
       inkscape:collect="always"
       xlink:href="#Wavywhite"
       id="pattern14892"
       patternTransform="matrix(0.36748688,0.00839186,-0.01369351,0.59964518,0,0)" />
    <pattern
       inkscape:collect="always"
       patternUnits="userSpaceOnUse"
       width="30.066020"
       height="5.1805778"
       id="Wavywhite"
       inkscape:stockid="Wavy white"
       inkscape:isstock="true">
      <path
         style="fill:white;stroke:none;"
         d="M 7.597,0.061 C 5.079,-0.187 2.656,0.302 -0.01,1.788 L -0.01,3.061 C 2.773,1.431 5.173,1.052 7.472,1.280 C 9.770,1.508 11.969,2.361 14.253,3.218 C 18.820,4.931 23.804,6.676 30.066,3.061 L 30.062,1.788 C 23.622,5.497 19.246,3.770 14.691,2.061 C 12.413,1.207 10.115,0.311 7.597,0.061 z "
         id="path6473" />
    </pattern>
    <pattern
       inkscape:collect="always"
       xlink:href="#Polkadots-largewhite"
       id="pattern6901"
       patternTransform="matrix(1.2736482,0,0,1.2736482,-2.9577466,-4.1830988)" />
    <pattern
       inkscape:collect="always"
       patternUnits="userSpaceOnUse"
       width="10"
       height="10"
       patternTransform="translate(0,0) scale(10,10)"
       id="Polkadots-largewhite"
       inkscape:stockid="Polka dots, large white">
      <circle
         style="fill:white;stroke:none"
         cx="2.567"
         cy="0.810"
         r="0.45"
         id="circle6369" />
      <circle
         style="fill:white;stroke:none"
         cx="3.048"
         cy="2.33"
         r="0.45"
         id="circle6371" />
      <circle
         style="fill:white;stroke:none"
         cx="4.418"
         cy="2.415"
         r="0.45"
         id="circle6373" />
      <circle
         style="fill:white;stroke:none"
         cx="1.844"
         cy="3.029"
         r="0.45"
         id="circle6375" />
      <circle
         style="fill:white;stroke:none"
         cx="6.08"
         cy="1.363"
         r="0.45"
         id="circle6377" />
      <circle
         style="fill:white;stroke:none"
         cx="5.819"
         cy="4.413"
         r="0.45"
         id="circle6379" />
      <circle
         style="fill:white;stroke:none"
         cx="4.305"
         cy="4.048"
         r="0.45"
         id="circle6381" />
      <circle
         style="fill:white;stroke:none"
         cx="5.541"
         cy="3.045"
         r="0.45"
         id="circle6383" />
      <circle
         style="fill:white;stroke:none"
         cx="4.785"
         cy="5.527"
         r="0.45"
         id="circle6385" />
      <circle
         style="fill:white;stroke:none"
         cx="2.667"
         cy="5.184"
         r="0.45"
         id="circle6387" />
      <circle
         style="fill:white;stroke:none"
         cx="7.965"
         cy="1.448"
         r="0.45"
         id="circle6389" />
      <circle
         style="fill:white;stroke:none"
         cx="7.047"
         cy="5.049"
         r="0.45"
         id="circle6391" />
      <circle
         style="fill:white;stroke:none"
         cx="4.340"
         cy="0.895"
         r="0.45"
         id="circle6393" />
      <circle
         style="fill:white;stroke:none"
         cx="7.125"
         cy="0.340"
         r="0.45"
         id="circle6395" />
      <circle
         style="fill:white;stroke:none"
         cx="7.125"
         cy="10.340"
         r="0.45"
         id="circle6397" />
      <circle
         style="fill:white;stroke:none"
         cx="9.550"
         cy="1.049"
         r="0.45"
         id="circle6399" />
      <circle
         style="fill:white;stroke:none"
         cx="7.006"
         cy="2.689"
         r="0.45"
         id="circle6401" />
      <circle
         style="fill:white;stroke:none"
         cx="8.909"
         cy="2.689"
         r="0.45"
         id="circle6403" />
      <circle
         style="fill:white;stroke:none"
         cx="9.315"
         cy="4.407"
         r="0.45"
         id="circle6405" />
      <circle
         style="fill:white;stroke:none"
         cx="7.820"
         cy="3.870"
         r="0.45"
         id="circle6407" />
      <circle
         style="fill:white;stroke:none"
         cx="8.270"
         cy="5.948"
         r="0.45"
         id="circle6409" />
      <circle
         style="fill:white;stroke:none"
         cx="7.973"
         cy="7.428"
         r="0.45"
         id="circle6411" />
      <circle
         style="fill:white;stroke:none"
         cx="9.342"
         cy="8.072"
         r="0.45"
         id="circle6413" />
      <circle
         style="fill:white;stroke:none"
         cx="8.206"
         cy="9.315"
         r="0.45"
         id="circle6415" />
      <circle
         style="fill:white;stroke:none"
         cx="9.682"
         cy="9.475"
         r="0.45"
         id="circle6417" />
      <circle
         style="fill:white;stroke:none"
         cx="-0.318"
         cy="9.475"
         r="0.45"
         id="circle6419" />
      <circle
         style="fill:white;stroke:none"
         cx="9.688"
         cy="6.186"
         r="0.45"
         id="circle6421" />
      <circle
         style="fill:white;stroke:none"
         cx="-0.312"
         cy="6.186"
         r="0.45"
         id="circle6423" />
      <circle
         style="fill:white;stroke:none"
         cx="3.379"
         cy="6.296"
         r="0.45"
         id="circle6425" />
      <circle
         style="fill:white;stroke:none"
         cx="2.871"
         cy="8.204"
         r="0.45"
         id="circle6427" />
      <circle
         style="fill:white;stroke:none"
         cx="4.59"
         cy="8.719"
         r="0.45"
         id="circle6429" />
      <circle
         style="fill:white;stroke:none"
         cx="3.181"
         cy="9.671"
         r="0.45"
         id="circle6431" />
      <circle
         style="fill:white;stroke:none"
         cx="3.181"
         cy="-0.329"
         r="0.45"
         id="circle6433" />
      <circle
         style="fill:white;stroke:none"
         cx="5.734"
         cy="7.315"
         r="0.45"
         id="circle6435" />
      <circle
         style="fill:white;stroke:none"
         cx="6.707"
         cy="6.513"
         r="0.45"
         id="circle6437" />
      <circle
         style="fill:white;stroke:none"
         cx="5.730"
         cy="9.670"
         r="0.45"
         id="circle6439" />
      <circle
         style="fill:white;stroke:none"
         cx="5.730"
         cy="-0.330"
         r="0.45"
         id="circle6441" />
      <circle
         style="fill:white;stroke:none"
         cx="6.535"
         cy="8.373"
         r="0.45"
         id="circle6443" />
      <circle
         style="fill:white;stroke:none"
         cx="4.37"
         cy="7.154"
         r="0.45"
         id="circle6445" />
      <circle
         style="fill:white;stroke:none"
         cx="0.622"
         cy="7.25"
         r="0.45"
         id="circle6447" />
      <circle
         style="fill:white;stroke:none"
         cx="0.831"
         cy="5.679"
         r="0.45"
         id="circle6449" />
      <circle
         style="fill:white;stroke:none"
         cx="1.257"
         cy="8.519"
         r="0.45"
         id="circle6451" />
      <circle
         style="fill:white;stroke:none"
         cx="1.989"
         cy="6.877"
         r="0.45"
         id="circle6453" />
      <circle
         style="fill:white;stroke:none"
         cx="0.374"
         cy="3.181"
         r="0.45"
         id="circle6455" />
      <circle
         style="fill:white;stroke:none"
         cx="10.374"
         cy="3.181"
         r="0.45"
         id="circle6457" />
      <circle
         style="fill:white;stroke:none"
         cx="1.166"
         cy="1.664"
         r="0.45"
         id="circle6459" />
      <circle
         style="fill:white;stroke:none"
         cx="1.151"
         cy="0.093"
         r="0.45"
         id="circle6461" />
      <circle
         style="fill:white;stroke:none"
         cx="1.151"
         cy="10.093"
         r="0.45"
         id="circle6463" />
      <circle
         style="fill:white;stroke:none"
         cx="1.302"
         cy="4.451"
         r="0.45"
         id="circle6465" />
      <circle
         style="fill:white;stroke:none"
         cx="3.047"
         cy="3.763"
         r="0.45"
         id="circle6467" />
    </pattern>
    <filter
       style="color-interpolation-filters:sRGB;"
       inkscape:label="Colorize"
       id="filter7677"
       x="0"
       y="0"
       width="1"
       height="1">
      <feComposite
         in2="SourceGraphic"
         operator="arithmetic"
         k1="0"
         k2="1"
         result="composite1"
         id="feComposite7663" />
      <feColorMatrix
         in="composite1"
         values="1"
         type="saturate"
         result="colormatrix1"
         id="feColorMatrix7665" />
      <feFlood
         flood-opacity="1"
         flood-color="rgb(0,66,131)"
         result="flood1"
         id="feFlood7667" />
      <feBlend
         in="flood1"
         in2="colormatrix1"
         mode="multiply"
         result="blend1"
         id="feBlend7669" />
      <feBlend
         in2="blend1"
         mode="screen"
         result="blend2"
         id="feBlend7671" />
      <feColorMatrix
         in="blend2"
         values="1"
         type="saturate"
         result="colormatrix2"
         id="feColorMatrix7673" />
      <feComposite
         in="colormatrix2"
         in2="SourceGraphic"
         operator="in"
         k2="1"
         result="composite2"
         id="feComposite7675" />
    </filter>
    <filter
       inkscape:collect="always"
       style="color-interpolation-filters:sRGB"
       id="filter17299"
       x="-8.1578501e-05"
       y="-0.00022683274"
       width="1.0001632"
       height="1.0004537">
      <feGaussianBlur
         inkscape:collect="always"
         stdDeviation="0.0044247982"
         id="feGaussianBlur17301" />
    </filter>
  </defs>
  <g
     inkscape:groupmode="layer"
     id="layer2"
     inkscape:label="Palette and Legend"
     sodipodi:insensitive="true">
    <rect
       style="fill:#173669;fill-opacity:1;stroke:#313546;stroke-width:0"
       id="rect1833"
       width="17.913149"
       height="14.330519"
       x="-111.95169"
       y="192.02896" />
    <rect
       style="fill:#2457a8;fill-opacity:1;stroke:#313546;stroke-width:0"
       id="rect1833-3"
       width="17.913149"
       height="14.330519"
       x="-111.95169"
       y="177.69844" />
    <rect
       style="fill:#81a7e4;fill-opacity:1;stroke:#313546;stroke-width:0"
       id="rect1833-2"
       width="17.913149"
       height="14.330519"
       x="-111.95169"
       y="163.36792" />
    <rect
       style="fill:#d5e2f6;fill-opacity:1;stroke:#313546;stroke-width:0"
       id="rect1833-1"
       width="17.913149"
       height="14.330519"
       x="-111.95169"
       y="149.0374" />
    <rect
       style="fill:#ffffff;fill-opacity:1;stroke:#313546;stroke-width:0"
       id="rect1833-18"
       width="17.913149"
       height="14.330519"
       x="-111.95169"
       y="134.70688" />
    <text
       xml:space="preserve"
       style="display:inline;font-style:normal;font-variant:normal;font-weight:normal;font-stretch:normal;font-size:9.87778px;font-family:'Eras Bold ITC';-inkscape-font-specification:'Eras Bold ITC, Normal';font-variant-ligatures:normal;font-variant-caps:normal;font-variant-numeric:normal;font-variant-east-asian:normal;text-align:center;text-anchor:middle;fill:#000000;fill-opacity:1;stroke:#ffffff;stroke-width:0.11;stroke-dasharray:none;stroke-opacity:1"
       x="-67.41021"
       y="232.97958"
       id="text16913"><tspan
         sodipodi:role="line"
         id="tspan16911"
         style="font-size:9.87778px;fill:#000000;stroke-width:0.11"
         x="-67.41021"
         y="232.97958">Font: ErasBold ITC</tspan></text>
  </g>
  <g
     inkscape:groupmode="layer"
     id="layer3"
     inkscape:label="DesignLayer"
     style="display:inline">
    <path
       sodipodi:type="star"
       style="fill:#183a70;fill-opacity:1;stroke:#313546;stroke-width:0"
       id="path3552"
       inkscape:flatsided="false"
       sodipodi:sides="200"
       sodipodi:cx="15.405307"
       sodipodi:cy="47.648972"
       sodipodi:r1="165.11786"
       sodipodi:r2="168.48761"
       sodipodi:arg1="0.78539816"
       sodipodi:arg2="0.80110613"
       inkscape:rounded="0"
       inkscape:randomized="0"
       d="m 132.16126,164.40493 0.49673,4.23943 -4.22173,-0.62965 0.36332,4.25294 -4.19987,-0.76195 0.22955,4.26226 -4.17387,-0.89349 0.0956,4.26736 -4.14374,-1.02415 -0.0385,4.26825 -4.10953,-1.1538 -0.17258,4.26493 -4.07126,-1.28232 -0.30646,4.25742 -4.02897,-1.40957 -0.44004,4.24569 -3.982704,-1.53543 -0.573183,4.22977 -3.932511,-1.65977 -0.70576,4.20968 -3.878435,-1.78247 -0.837641,4.18543 -3.820534,-1.90341 -0.968695,4.15705 -3.75886,-2.02248 -1.098794,4.12458 -3.693478,-2.13956 -1.227807,4.08803 -3.624451,-2.25451 -1.355609,4.04744 -3.551846,-2.36724 -1.482074,4.00286 -3.475737,-2.47764 -1.607075,3.95434 -3.396197,-2.5856 -1.730491,3.90191 -3.313306,-2.691 -1.852199,3.84562 -3.227144,-2.79374 -1.97208,3.78555 -3.137798,-2.89373 -2.090013,3.72173 -3.045355,-2.99086 -2.205885,3.65425 -2.949907,-3.08505 -2.319579,3.58316 -2.851548,-3.17618 -2.430984,3.50853 -2.750375,-3.26419 -2.53999,3.43045 -2.646488,-3.34897 -2.646489,3.34897 -2.539988,-3.43045 -2.750377,3.26419 -2.4309818,-3.50853 -2.8515505,3.17618 -2.31957652,-3.58316 -2.94990968,3.08505 -2.2058823,-3.65425 -3.0453577,2.99086 -2.0900115,-3.72173 -3.1378,2.89373 -1.972077,-3.78555 -3.227146,2.79374 -1.852198,-3.84562 -3.313307,2.691 -1.730489,-3.90191 -3.396199,2.5856 -1.607074,-3.95434 -3.475738,2.47764 -1.482072,-4.00286 -3.551848,2.36724 -1.355608,-4.04744 -3.624452,2.25451 -1.227806,-4.08803 -3.69348,2.13956 -1.098791,-4.12458 -3.758862,2.02248 -0.968694,-4.15705 -3.820535,1.90341 -0.837639,-4.18543 -3.878438,1.78247 -0.705758,-4.20968 -3.932513,1.65977 -0.57318,-4.22977 -3.982707,1.53542 -0.440038,-4.24568 -4.02897,1.40957 -0.306461,-4.25741 -4.071257,1.28231 -0.172581,-4.26493 -4.109527,1.1538 -0.03853,-4.26825 -4.143741,1.02415 0.09556,-4.26736 -4.173866,0.89348 0.229551,-4.26224 -4.199871,0.76194 0.363318,-4.25294 -4.221735,0.62964 0.49673,-4.23942 -4.23943,0.49672 0.62965,-4.22173 -4.25294,0.36332 0.76194,-4.19987 -4.26225,0.22955 0.89349,-4.17386 -4.26736,0.0956 1.02415,-4.14374 -4.26825,-0.0385 1.1538,-4.10953 -4.26493,-0.17258 1.28231,-4.07125 -4.25741,-0.30647 1.40957,-4.02896 -4.24569,-0.44004 1.53543,-3.98271 -4.22977,-0.57318 1.65976,-3.93251 -4.20967,-0.70576 1.78247,-3.87844 -4.18543,-0.83764 1.90341,-3.82053 -4.15705,-0.9687 2.02248,-3.75886 -4.12458,-1.09879 2.13955,-3.69348 -4.08802,-1.22781 2.25451,-3.62445 -4.04744,-1.35561 2.36724,-3.551843 -4.00286,-1.482074 2.47764,-3.475737 -3.95434,-1.607075 2.5856,-3.396197 -3.90191,-1.730492 2.691,-3.313305 -3.84562,-1.852199 2.79374,-3.227144 -3.78555,-1.97208 2.89373,-3.137798 -3.72173,-2.090013 2.99086,-3.045356 -3.65425,-2.205884 3.08505,-2.949908 -3.58316,-2.319578 3.17618,-2.851549 -3.50853,-2.430984 3.26418,-2.750375 -3.43044,-2.53999 3.34897,-2.646487 -3.34897,-2.646489 3.43044,-2.539988 -3.26418,-2.750377 3.50853,-2.430982 -3.17618,-2.851551 3.58316,-2.319576 -3.08505,-2.94991 3.65425,-2.205882 -2.99086,-3.045358 3.72173,-2.090011 -2.89373,-3.1378 3.78555,-1.972077 -2.79374,-3.227147 3.84562,-1.852197 -2.691,-3.3133074 3.90191,-1.7304892 -2.5856,-3.3961989 3.95434,-1.6070735 -2.47764,-3.4757386 4.00286,-1.4820718 -2.36724,-3.5518482 4.04744,-1.3556074 -2.25451,-3.624453 4.08802,-1.227805 -2.13955,-3.69348 4.12458,-1.098791 -2.02248,-3.758863 4.15705,-0.968693 -1.90341,-3.820535 4.18543,-0.837639 -1.78247,-3.878438 4.20967,-0.705758 -1.65976,-3.932513 4.22977,-0.573181 -1.53543,-3.982706 4.24569,-0.440038 -1.40957,-4.02897 4.25741,-0.306461 -1.28231,-4.071257 4.26493,-0.172581 -1.1538,-4.109528 4.26825,-0.03853 -1.02415,-4.143742 4.26736,0.09556 -0.89349,-4.173866 4.26225,0.229551 -0.76194,-4.199872 4.25294,0.363319 -0.62965,-4.221733 4.23943,0.496727 -0.49673,-4.239426 4.221734,0.629645 -0.363317,-4.252937 4.19987,0.761942 -0.229549,-4.26225 4.173864,0.893487 -0.09555,-4.267358 4.143739,1.024151 0.03853,-4.268254 4.109525,1.153804 0.172583,-4.264937 4.071255,1.282317 0.306463,-4.257411 4.028968,1.409566 0.44004,-4.245685 3.982705,1.535423 0.573182,-4.229767 3.932511,1.659765 0.70576,-4.209679 3.878436,1.782472 0.837641,-4.185432 3.820533,1.90342 0.968696,-4.15706 3.75886,2.02248 1.098793,-4.12457 3.693478,2.13955 1.227808,-4.08803 3.62445,2.25451 1.35561,-4.04744 3.551846,2.36725 1.482074,-4.00287 3.475736,2.47764 1.607076,-3.95433 3.396197,2.58559 1.730491,-3.9019 3.313305,2.691 1.8522,-3.84563 3.227144,2.79374 1.972079,-3.78554 3.137798,2.89373 2.0900136,-3.72174 3.0453555,2.99087 2.2058845,-3.65425 2.94990746,3.08504 2.31957884,-3.58316 2.8515482,3.17619 2.430984,-3.50854 2.7503749,3.26419 2.53999,-3.43044 2.646487,3.34896 2.64649,-3.34896 2.539988,3.43044 2.750377,-3.26419 2.430981,3.50854 2.851551,-3.17619 2.319576,3.58316 2.94991,-3.08504 2.205882,3.65425 3.045358,-2.99087 2.090011,3.72174 3.137801,-2.89373 1.972077,3.78554 3.227146,-2.79374 1.852197,3.84563 3.313308,-2.691 1.730489,3.9019 3.396199,-2.58559 1.607073,3.95433 3.475739,-2.47764 1.482072,4.00287 3.551848,-2.36725 1.355607,4.04744 3.624453,-2.25451 1.227805,4.08803 3.69348,-2.13955 1.098792,4.12457 3.758862,-2.02248 0.968693,4.15706 3.820536,-1.90342 0.837639,4.185432 3.878437,-1.782472 0.705759,4.209679 3.932512,-1.659765 0.573181,4.229767 3.982705,-1.535423 0.44004,4.245684 4.02897,-1.409565 0.30646,4.257411 4.07126,-1.282317 0.17258,4.264936 4.10953,-1.153802 0.0385,4.268252 4.14374,-1.024149 -0.0956,4.267356 4.17387,-0.893486 -0.22955,4.262249 4.19987,-0.76194 -0.36332,4.252935 4.22173,-0.629644 -0.49673,4.239425 4.23943,-0.496725 -0.62964,4.221731 4.25293,-0.363317 -0.76194,4.19987 4.26225,-0.229549 -0.89349,4.173864 4.26736,-0.09556 -1.02415,4.14374 4.26825,0.03853 -1.1538,4.109526 4.26494,0.172582 -1.28232,4.071256 4.25741,0.306463 -1.40956,4.028968 4.24568,0.44004 -1.53542,3.982704 4.22976,0.573183 -1.65976,3.932511 4.20968,0.70576 -1.78247,3.878436 4.18543,0.837641 -1.90342,3.820533 4.15706,0.968695 -2.02248,3.758861 4.12457,1.098793 -2.13955,3.693478 4.08803,1.227808 -2.25452,3.6244499 4.04745,1.3556096 -2.36725,3.5518461 4.00287,1.4820739 -2.47765,3.4757364 3.95434,1.6070757 -2.5856,3.3961967 3.90191,1.7304914 -2.691,3.3133053 3.84563,1.852199 -2.79375,3.227145 3.78555,1.972079 -2.89373,3.137798 3.72174,2.090013 -2.99087,3.045356 3.65425,2.205884 -3.08504,2.949908 3.58316,2.319579 -3.17619,2.851548 3.50853,2.430984 -3.26418,2.750375 3.43044,2.53999 -3.34896,2.646487 3.34896,2.646489 -3.43044,2.539988 3.26418,2.750377 -3.50853,2.430982 3.17619,2.851551 -3.58316,2.319576 3.08504,2.94991 -3.65425,2.205882 2.99087,3.045358 -3.72174,2.090011 2.89373,3.1378 -3.78555,1.972077 2.79375,3.227147 -3.84563,1.852197 2.691,3.313307 -3.90191,1.73049 2.5856,3.396199 -3.95434,1.607073 2.47765,3.475739 -4.00287,1.482071 2.36725,3.551845 -4.04744,1.35561 2.25451,3.62445 -4.08803,1.22781 2.13955,3.69348 -4.12457,1.09879 2.02248,3.75886 -4.15706,0.9687 1.90342,3.82053 -4.18543,0.83764 1.78247,3.87844 -4.20968,0.70576 1.65976,3.93251 -4.22976,0.57318 1.53542,3.98271 -4.24568,0.44003 1.40956,4.02897 -4.25741,0.30646 1.28232,4.07126 -4.26494,0.17258 1.1538,4.10953 -4.26825,0.0385 1.02415,4.14374 -4.26736,-0.0956 0.89349,4.17386 -4.26225,-0.22955 0.76194,4.19987 -4.25293,-0.36332 0.62964,4.22174 z"
       transform="matrix(0.55810438,0,0,0.55810438,96.402231,121.9069)"
       inkscape:label="stars"
       sodipodi:insensitive="true" />
    <ellipse
       style="fill:url(#pattern6901);fill-opacity:1;stroke:none;stroke-width:0;filter:url(#filter7677)"
       id="path4419"
       cx="105"
       cy="148.5"
       rx="91.536186"
       ry="90.799477"
       inkscape:label="dots"
       sodipodi:insensitive="true" />
    <circle
       style="display:inline;fill:#ffffff;fill-opacity:1;stroke:none;stroke-width:0"
       id="path7780"
       cx="105"
       cy="148.5"
       r="82.020828"
       inkscape:label="White mantle"
       sodipodi:insensitive="true" />
    <circle
       style="display:inline;fill:#2457a8;fill-opacity:1;stroke:none;stroke-width:0"
       id="circle7782"
       cx="105"
       cy="148.5"
       r="63.235413"
       inkscape:label="Lighter Inner"
       sodipodi:insensitive="true" />
    <circle
       style="display:inline;fill:url(#pattern14892);fill-opacity:1;stroke:none;stroke-width:0"
       id="circle14836"
       cx="105"
       cy="148.5"
       r="63.235413"
       inkscape:label="Wavy Circle"
       sodipodi:insensitive="true" />
    <circle
       style="display:inline;fill:#173669;fill-opacity:1;stroke:#ffffff;stroke-width:0;stroke-dasharray:none;stroke-opacity:1"
       id="circle9400"
       cx="105"
       cy="148.5"
       r="48.619678"
       inkscape:label="Dark Center" />
    <circle
       style="display:none;fill:none;fill-opacity:1;stroke:#b0389c;stroke-width:1.2034;stroke-dasharray:none;stroke-opacity:1"
       id="circle15326"
       cx="-148.55998"
       cy="-104.45715"
       r="76.097404"
       inkscape:label="Lower word guide"
       transform="matrix(-8.493062e-4,-0.99999964,-0.99999964,8.493062e-4,0,0)" />
    <circle
       style="display:none;fill:none;fill-opacity:1;stroke:#38b058;stroke-width:1.05397;stroke-dasharray:none;stroke-opacity:1"
       id="circle15263"
       cx="141.36537"
       cy="-114.42499"
       r="66.64801"
       inkscape:label="Guide Upper Word "
       transform="rotate(93.724641)" />
    <text
       xml:space="preserve"
       style="font-weight:bold;font-size:19.7556px;font-family:Arial;-inkscape-font-specification:'Arial Bold';text-align:center;letter-spacing:-0.399521px;word-spacing:-0.963083px;text-anchor:middle;display:inline;fill:#173669;fill-opacity:1;stroke:none;stroke-width:1;stroke-dasharray:none;stroke-opacity:1;filter:url(#filter17299)"
       id="text15382"
       inkscape:label="Text Upper"><textPath
         xlink:href="#circle15263"
         startOffset="50%"
         id="textPath15555"
         style="font-style:normal;font-variant:normal;font-weight:normal;font-stretch:normal;font-size:19.7556px;font-family:'Eras Bold ITC';-inkscape-font-specification:'Eras Bold ITC, Normal';font-variant-ligatures:normal;font-variant-caps:normal;font-variant-numeric:normal;font-variant-east-asian:normal;display:inline;fill:#173669;fill-opacity:1;stroke:none;stroke-width:1;stroke-opacity:1"
         dx="0">Bio Mon Tools</textPath></text>
    <text
       xml:space="preserve"
       style="font-weight:bold;font-size:14.1111px;font-family:Arial;-inkscape-font-specification:'Arial Bold';text-align:center;text-anchor:middle;fill:#173669;fill-opacity:1;stroke:none;stroke-width:1;stroke-dasharray:none;stroke-opacity:1"
       id="text15567"
       inkscape:label="Text Lower"><textPath
         xlink:href="#circle15326"
         startOffset="50%"
         id="textPath15572"
         style="font-style:normal;font-variant:normal;font-weight:normal;font-stretch:normal;font-size:14.1111px;font-family:'Eras Bold ITC';-inkscape-font-specification:'Eras Bold ITC, Normal';font-variant-ligatures:normal;font-variant-caps:normal;font-variant-numeric:normal;font-variant-east-asian:normal;fill:#173669;fill-opacity:1">Bioassessment Biomonitoring</textPath></text>
    <path
       style="fill:#ffffff;stroke:#ffffff;stroke-width:0.118817;stroke-dasharray:none;stroke-opacity:1"
       d="m 106.66929,188.04001 c -0.26572,-0.41557 -0.52572,-1.09255 -0.52572,-1.3689 0,-0.14516 -0.0726,-0.35528 -0.16162,-0.46677 l -0.16161,-0.20283 -0.13898,0.14473 c -0.21055,0.21928 -0.30222,0.003 -0.111,-0.26273 l 0.16748,-0.23226 -0.0746,-0.75041 c -0.0535,-0.53531 -0.10716,-0.70951 -0.18831,-0.60774 -0.0625,0.0784 -0.15173,0.14267 -0.19824,0.14267 -0.1236,0 -0.10343,-0.45405 0.0274,-0.61835 0.0618,-0.0775 0.0974,-0.43263 0.0793,-0.7894 l -0.0328,-0.64871 -0.28886,0.0423 -0.28889,0.0423 0.20727,-0.57304 c 0.22118,-0.61159 0.26455,-1.12575 0.11933,-1.41341 l -0.0894,-0.1769 -0.0643,0.21014 c -0.0912,0.29816 -0.28235,0.26078 -0.28235,-0.0551 0,-0.1459 0.0475,-0.26533 0.10576,-0.26533 0.0597,0 0.10576,-0.37593 0.10576,-0.86241 0,-0.86642 -0.14929,-1.15308 -0.2745,-0.52714 l -0.0669,0.33526 -0.14827,-0.15434 -0.14827,-0.1543 0.21335,-0.45375 c 0.33676,-0.71627 0.2827,-2.38188 -0.0583,-1.79666 -0.20689,0.35506 -0.31981,0.0691 -0.1333,-0.33759 0.1873,-0.40852 0.15495,-0.62912 -0.15556,-1.05734 -0.3212,-0.44298 -0.39107,-0.3718 -0.39079,0.39804 l 2.2e-4,0.69653 0.31739,0.46438 0.3174,0.46436 -0.18142,0.0483 c -0.1,0.0267 -0.19925,-0.0178 -0.22075,-0.0995 -0.0733,-0.27641 -0.23306,-0.14924 -0.23306,0.18554 0,0.34461 0.18488,0.85524 0.37005,1.02228 0.0583,0.0526 -0.0336,0.0823 -0.20409,0.0663 l -0.3098,-0.029 -0.087,0.50971 -0.087,0.50967 0.16568,0.43825 c 0.0913,0.24112 0.33004,0.67914 0.5309,0.97361 0.45408,0.66563 0.33273,0.82242 -0.16222,0.20965 -0.46223,-0.57225 -0.53079,-0.5665 -0.54621,0.0457 -0.0182,0.73662 0.008,0.85545 0.28632,1.31787 0.14018,0.23228 0.25487,0.48107 0.25487,0.55282 0,0.0718 0.0594,0.15712 0.13209,0.1896 0.0726,0.0325 0.0996,0.10324 0.0599,0.15712 -0.0399,0.0538 -0.21665,-0.0874 -0.39292,-0.31352 -0.1764,-0.22616 -0.36973,-0.41145 -0.42985,-0.41145 -0.1327,0 -0.14746,1.01613 -0.0162,1.11781 0.14867,0.11527 0.21798,0.60153 0.0812,0.56924 -0.0828,-0.0203 -0.12138,0.29371 -0.12138,0.98283 v 1.01148 l -0.13207,-0.0637 c -0.0937,-0.0452 -0.13209,0.10925 -0.13209,0.52954 0,0.6103 -0.30126,1.29251 -0.57078,1.29251 -0.2864,0 -0.59228,-0.60396 -0.59228,-1.16948 0,-0.30543 -0.0476,-0.55531 -0.10576,-0.55531 -0.058,0 -0.10576,0.0598 -0.10576,0.13271 0,0.0731 -0.0714,0.13271 -0.1586,0.13271 -0.22163,0 -0.19761,-0.17106 0.0514,-0.36611 0.26986,-0.21144 0.53006,-0.99416 0.53006,-1.59442 v -0.46872 l -0.19339,0.21956 c -0.34878,0.3961 -0.46524,0.22946 -0.13188,-0.18859 0.4929,-0.6185 0.59301,-1.61257 0.13937,-1.38388 -0.10132,0.0509 -0.25251,0.12773 -0.33606,0.17008 -0.0836,0.0426 0.0121,-0.14749 0.21147,-0.42236 0.50853,-0.69929 0.61966,-0.99091 0.62396,-1.63738 0.003,-0.52268 -0.13594,-0.76801 -0.23157,-0.40769 -0.0234,0.0874 -0.0994,0.11151 -0.17255,0.0544 l -0.13108,-0.10148 0.26937,-0.33803 c 0.1499,-0.18808 0.27003,-0.49197 0.27083,-0.68478 7.9e-4,-0.19061 0.0319,-0.48991 0.0691,-0.66486 l 0.0677,-0.31805 -0.28073,0.0883 c -0.24848,0.078 -0.41161,-0.0903 -0.19763,-0.20408 0.23407,-0.12469 0.56213,-0.9375 0.53157,-1.31718 l -0.0332,-0.41216 -0.27673,0.27449 -0.27677,0.27447 0.0535,0.3503 0.0535,0.35033 -0.226,-0.15179 c -0.12419,-0.0835 -0.22598,-0.26908 -0.22598,-0.41245 0,-0.64494 -0.35907,-0.0664 -0.46995,0.75737 -0.0402,0.29893 -0.16505,0.66728 -0.27741,0.81857 -0.25622,0.34511 -0.25489,0.41918 0.0209,1.15511 0.27395,0.73128 0.21112,0.87247 -0.14908,0.3352 l -0.26767,-0.39914 -0.1685,0.32255 c -0.18914,0.3623 -0.22313,0.93717 -0.0627,1.06159 0.13108,0.10147 0.14078,0.7297 0.0121,0.7297 -0.0517,0 -0.12358,-0.14722 -0.15958,-0.32701 -0.106454,-0.53188 -0.689717,0.23046 -0.599102,0.78309 0.12805,0.781 0.129259,0.87066 0.0105,0.87066 -0.07077,0 -0.15434,-0.1223 -0.185478,-0.27209 l -0.05658,-0.2721 -0.197834,0.40798 c -0.108827,0.22437 -0.197823,0.53759 -0.197823,0.69602 0,0.15839 -0.129459,0.45753 -0.287518,0.66466 l -0.287538,0.37659 0.12885,0.25907 c 0.151101,0.30337 0.169714,0.66067 0.03459,0.66067 -0.05198,0 -0.124801,-0.0995 -0.162027,-0.22081 l -0.06757,-0.22083 -0.181649,0.29954 c -0.563991,0.92988 -0.881365,1.13947 -1.066853,0.70458 -0.11044,-0.25901 -0.04287,-0.93538 0.119343,-1.1927 0.133301,-0.21167 -0.144426,-0.23096 -0.311245,-0.0228 l -0.114898,0.14414 -0.0716,-0.14516 c -0.08739,-0.17742 0.184074,-0.54121 0.40393,-0.54121 0.088,0 0.191152,-0.0635 0.229281,-0.14092 0.03822,-0.0775 0.183668,-0.19546 0.323441,-0.26208 0.139769,-0.0667 0.254064,-0.21218 0.254064,-0.32349 0,-0.24214 -0.122382,-0.26092 -0.294296,-0.0452 -0.06876,0.0863 -0.158182,0.1154 -0.198435,0.0649 -0.08112,-0.10185 0.319134,-0.61995 0.478927,-0.61995 0.188326,0 0.684714,-0.84712 0.533392,-0.91042 -0.07647,-0.032 -0.157169,0.01 -0.17942,0.0944 -0.04608,0.17386 -0.340088,0.21041 -0.340088,0.0423 0,-0.0605 0.12824,-0.19493 0.285109,-0.29851 0.156769,-0.10361 0.448716,-0.39237 0.648688,-0.64183 l 0.363569,-0.45355 -0.12865,-0.25863 -0.12865,-0.2586 0.325853,-0.42188 c 0.379513,-0.49132 0.437351,-0.88536 0.114486,-0.77939 -0.313628,0.10286 -0.260149,-0.0398 0.218255,-0.58203 l 0.429703,-0.48717 -0.170314,-0.11954 -0.170323,-0.11954 0.375084,-0.52094 c 0.412166,-0.57247 0.467716,-0.84525 0.198436,-0.97489 l -0.176585,-0.0849 0.388035,-0.49863 c 0.3986,-0.51226 0.50774,-1.032 0.23268,-1.10792 l -0.15536,-0.043 0.31395,-0.44917 c 0.17272,-0.24695 0.31394,-0.58681 0.31394,-0.75505 0,-0.16828 0.0475,-0.34275 0.10576,-0.38786 0.18628,-0.14443 0.1131,-0.30925 -0.10576,-0.23759 -0.26106,0.0857 -0.27164,-0.0936 -0.0257,-0.43404 0.35087,-0.48556 0.57025,-1.00857 0.50815,-1.21159 l -0.0621,-0.20331 -0.14787,0.15406 c -0.35376,0.36844 -0.25572,-0.15687 0.10728,-0.57407 0.35443,-0.40743 0.47565,-1.06379 0.14968,-0.81107 -0.0587,0.0455 -0.10634,-0.0132 -0.10634,-0.12847 0,-0.11603 0.0668,-0.24318 0.14825,-0.28236 0.20825,-0.10034 0.28226,-0.55169 0.10436,-0.6373 -0.21513,-0.10361 -0.17921,-0.46806 0.0711,-0.72254 0.12825,-0.13023 0.24178,-0.44297 0.2755,-0.75845 l 0.0575,-0.53685 -0.21,-0.49159 -0.20999,-0.4916 -0.0585,0.28087 c -0.12257,0.58801 -0.59501,-0.3304 -0.59957,-1.16548 -7.8e-4,-0.15991 -0.0492,-0.32759 -0.10739,-0.37267 -0.0583,-0.0452 -0.10634,-0.42177 -0.1074,-0.83706 -0.002,-0.81604 -0.11229,-1.17806 -0.31233,-1.0229 -0.15312,0.11878 -0.742677,-0.55526 -0.744886,-0.85155 -7.9e-4,-0.11389 -0.07607,-0.47602 -0.167285,-0.8044 -0.113926,-0.41037 -0.144824,-0.80892 -0.09856,-1.27491 0.03699,-0.37279 0.03499,-0.83951 -0.005,-1.0371 l -0.07177,-0.35928 -0.300823,0.36169 -0.300833,0.36165 -0.06448,-0.25333 c -0.03559,-0.13929 -0.108218,-0.39038 -0.161617,-0.55797 -0.13027,-0.40858 -0.124002,-1.7152 0.008,-1.81804 0.05808,-0.0452 0.105799,-0.23174 0.105799,-0.41479 v -0.33281 l -0.237878,0.0907 c -0.130879,0.0498 -0.285479,0.0986 -0.343636,0.10837 -0.06148,0.01 -0.118534,-0.46729 -0.136337,-1.14303 -0.01619,-0.63849 -0.07627,-1.16089 -0.132079,-1.16089 -0.126631,0 -0.135737,-1.68262 -0.0102,-1.78034 0.05058,-0.0391 0.09486,-0.58799 0.09866,-1.21954 0.004,-0.63152 0.05748,-1.21197 0.119554,-1.28985 0.142805,-0.1792 0.148472,-0.88458 0.008,-0.88458 -0.05828,0 -0.105789,-0.26514 -0.105789,-0.58922 0,-0.32405 0.04758,-0.62607 0.105789,-0.67119 0.05808,-0.0452 0.106209,-0.39193 0.107008,-0.7707 7.9e-4,-0.48838 0.07787,-0.85666 0.264318,-1.26612 0.339138,-0.74442 0.331431,-0.97314 -0.04208,-1.25002 l -0.305181,-0.22616 -0.113886,0.17236 c -0.06268,0.0946 -0.09896,0.51205 -0.08047,0.9273 0.01819,0.41527 -0.008,0.75504 -0.05668,0.75504 -0.04958,0 -0.08996,0.14924 -0.08996,0.3317 0,0.18249 -0.04748,0.33168 -0.105799,0.33168 -0.141591,0 -0.134914,0.44084 0.0102,0.62185 l 0.114906,0.14414 -0.126831,0.0983 c -0.06978,0.0541 -0.168297,0.0152 -0.219049,-0.0847 l -0.09224,-0.18274 -0.0016,0.17463 c -7.88e-4,0.096 0.04612,0.28644 0.104382,0.42314 0.06534,0.15332 0.06796,0.27811 0.0061,0.32561 -0.162428,0.12583 -0.429901,0.8849 -0.429901,1.21985 0,0.17134 -0.05319,0.31133 -0.11813,0.31133 -0.06897,0 -0.09709,0.13813 -0.06755,0.33166 0.03297,0.21651 0.002,0.3317 -0.08719,0.3317 -0.21142,0 -0.288953,0.2545 -0.144223,0.47339 0.165259,0.24976 0.04774,0.41113 -0.149685,0.2056 l -0.148974,-0.15508 -0.06493,0.21193 c -0.03561,0.11641 -0.01416,0.3322 0.04915,0.47913 0.06269,0.14695 0.08616,0.30177 0.05239,0.34415 -0.03377,0.0423 -0.0615,0.008 -0.0615,-0.0778 0,-0.18376 -0.383681,-0.20915 -0.471288,-0.0312 -0.03338,0.068 -0.01214,0.1609 0.04673,0.20685 0.131885,0.10223 0.143414,0.59839 0.01416,0.59839 -0.05138,0 -0.119951,-0.12716 -0.152316,-0.2826 l -0.05886,-0.28257 -0.191357,0.10386 c -0.364039,0.19748 -0.881202,0.22592 -1.043125,0.0571 l -0.16162,-0.16828 -0.122377,0.15355 c -0.131279,0.16472 -0.634405,0.20992 -0.748085,0.0674 -0.03783,-0.0474 0.01417,-0.17108 0.11449,-0.27464 l 0.183466,-0.18834 -0.514938,0.0754 -0.514939,0.0753 0.130266,-0.19698 c 0.177397,-0.26816 0.06595,-0.56851 -0.230555,-0.62127 -0.162429,-0.029 -0.244352,-0.13255 -0.244352,-0.30878 v -0.26535 l -0.287113,0.005 -0.287112,0.005 0.05947,-0.29759 0.05947,-0.29764 -0.266987,-0.0839 c -0.146853,-0.0463 -0.292716,-0.1683 -0.324169,-0.27114 -0.03297,-0.10762 -0.20242,-0.18707 -0.398852,-0.18707 H 90.56001 l 0.126828,-0.15914 c 0.196006,-0.24596 0.151505,-0.37149 -0.131278,-0.37149 -0.3267,0 -0.437024,-0.20965 -0.198435,-0.37701 l 0.182253,-0.12788 -0.134516,-0.20331 c -0.07403,-0.11188 -0.269961,-0.24062 -0.435545,-0.28629 -0.165665,-0.0457 -0.329207,-0.17514 -0.363635,-0.28766 -0.03438,-0.11264 -0.131884,-0.17133 -0.216921,-0.1305 -0.180838,0.0872 -0.320348,-0.12242 -0.162835,-0.24443 0.198232,-0.15383 0.110043,-0.47105 -0.167687,-0.60352 -0.167891,-0.08 -0.253374,-0.2023 -0.219452,-0.31317 0.03055,-0.10009 -0.0081,-0.29541 -0.08517,-0.4341 -0.296234,-0.53071 -0.297651,-2.14278 -0.002,-2.17174 0.05826,-0.005 0.129457,0.10398 0.158586,0.24392 0.02912,0.13988 0.297692,0.57618 0.59694,0.96974 0.299252,0.39355 0.989099,1.34242 1.532982,2.10862 1.192084,1.67929 2.284626,3.03743 2.702755,3.3598 0.158182,0.12192 0.453872,-0.55139 0.453872,-1.0332 0,-0.18708 0.04125,-0.44375 0.09163,-0.57047 0.148472,-0.37365 0.35156,-1.13149 0.408339,-1.52392 0.02893,-0.20077 0.09486,-0.36489 0.14645,-0.36489 0.05158,0 0.09365,-0.1144 0.09365,-0.25433 0,-0.24622 0.155552,-0.75513 0.611729,-2.00112 0.238344,-0.65104 0.754679,-1.41077 1.212129,-1.78366 0.160002,-0.13051 0.290775,-0.31286 0.290775,-0.40558 0,-0.28296 0.283533,-0.87406 0.518214,-1.08034 0.261929,-0.23019 0.281651,-0.63145 0.06332,-1.28722 -0.295201,-0.88661 -0.07201,-4.46508 0.278642,-4.46508 0.05038,0 0.09146,-0.31796 0.09146,-0.70658 v -0.70657 l 0.264337,-0.31161 c 0.260749,-0.30741 0.352583,-0.66338 0.171124,-0.66338 -0.05118,0 -0.227012,0.22386 -0.390578,0.49753 -0.431134,0.72126 -1.645062,2.09634 -1.80998,2.05024 -0.07748,-0.0228 -0.164047,0.0531 -0.192367,0.16574 -0.02832,0.11289 -0.07848,0.30973 -0.111455,0.43742 l -0.05987,0.23224 -0.107205,-0.2396 -0.107207,-0.2396 -0.161013,0.16778 c -0.08859,0.0919 -0.202277,0.3034 -0.252402,0.46918 -0.05907,0.19494 -0.148066,0.27414 -0.251836,0.22413 -0.107812,-0.0521 -0.196209,0.0406 -0.269473,0.28233 l -0.109027,0.35959 -0.147866,-0.15406 -0.147864,-0.15407 -0.07079,0.27986 c -0.04125,0.16345 -0.142402,0.26261 -0.242713,0.23835 -0.09445,-0.0228 -0.276716,0.0803 -0.404778,0.22919 l -0.232841,0.27079 -0.445173,-0.0533 -0.445193,-0.0533 -0.05117,-0.24545 c -0.02812,-0.13505 -0.137549,-0.27987 -0.243118,-0.3219 -0.318304,-0.12685 -0.842527,-0.89013 -0.842527,-1.22689 v -0.31543 l -0.237899,0.0839 c -0.164451,0.058 -0.193984,0.0457 -0.09526,-0.04 0.214111,-0.1863 0.102759,-0.63071 -0.146449,-0.58426 -0.116311,0.0228 -0.161215,-0.008 -0.101953,-0.0662 0.183061,-0.18176 0.379534,-0.7021 0.265207,-0.7021 -0.05866,0 -0.106599,0.0597 -0.106599,0.13271 0,0.0731 -0.0532,0.13271 -0.11813,0.13271 -0.06533,0 -0.09386,-0.1164 -0.06373,-0.26074 0.03703,-0.17768 -0.01016,-0.28621 -0.146247,-0.34061 -0.247123,-0.0986 -0.258734,-0.27097 -0.02569,-0.38314 l 0.174768,-0.0842 -0.201267,-0.1929 -0.201267,-0.1929 0.158587,-0.13755 0.158586,-0.13754 -0.180634,-0.13374 c -0.102758,-0.0761 -0.153934,-0.22081 -0.118941,-0.33562 0.03459,-0.11327 -0.02083,-0.27765 -0.126221,-0.37427 l -0.187916,-0.17233 0.129458,-0.1006 0.129458,-0.10048 -0.228149,-0.20051 -0.228129,-0.20054 0.115295,-0.14471 0.115296,-0.14473 -0.291482,-0.29432 -0.291502,-0.29431 0.132087,-0.16905 c 0.175576,-0.22464 0.167283,-0.3814 -0.02044,-0.3814 -0.194793,0 -0.168497,-0.80204 0.03641,-1.11183 0.101346,-0.15305 0.123187,-0.40723 0.07464,-0.86655 -0.07748,-0.73221 0.06796,-1.28146 0.364908,-1.3789 0.214394,-0.0703 0.321156,0.15508 0.248701,0.52517 -0.0263,0.13475 0.07565,0.78229 0.226571,1.43902 0.150897,0.65674 0.299998,1.38811 0.331108,1.62528 0.03116,0.23706 0.09345,0.43121 0.138561,0.43121 0.0451,0 0.115704,0.33796 0.156765,0.75106 0.04105,0.41307 0.11247,0.84593 0.158382,0.96189 0.167892,0.42294 0.308515,0.88978 0.483303,1.60388 0.0983,0.40135 0.240044,0.81171 0.315149,0.91195 l 0.136538,0.18224 0.240992,-0.28175 c 0.132494,-0.15482 0.275948,-0.28173 0.31869,-0.28173 0.04267,0 0.212168,-0.14032 0.37654,-0.31199 0.530675,-0.55397 2.835812,-2.07615 3.144023,-2.07615 0.08556,0 0.185085,-0.0596 0.221068,-0.13271 0.036,-0.0731 0.171936,-0.13271 0.302285,-0.13271 0.130267,0 0.282137,-0.0515 0.337378,-0.11439 0.172948,-0.19724 0.819027,-0.45157 1.359047,-0.53503 l 0.518479,-0.0803 0.133098,-0.48441 0.133298,-0.4844 -0.137546,-0.24648 c -0.235839,-0.42247 -0.46394,-3.56616 -0.275903,-3.80215 0.322575,-0.40478 0.118124,-1.51192 -0.333091,-1.80366 -0.158988,-0.10286 -0.318306,-0.30275 -0.354132,-0.44435 l -0.06517,-0.25745 -0.116315,0.14589 c -0.172333,0.21625 -0.285549,0.17769 -0.285549,-0.0971 0,-0.33591 -0.112676,-0.44548 -0.27927,-0.2719 l -0.14018,0.14589 -0.104777,-0.34611 c -0.05766,-0.19037 -0.153733,-0.34609 -0.213201,-0.34609 -0.05967,0 -0.10842,-0.0894 -0.10842,-0.199 0,-0.10925 -0.09001,-0.199 -0.200055,-0.199 -0.127028,0 -0.225094,-0.12543 -0.268685,-0.34339 l -0.06876,-0.3434 -0.144831,0.15076 -0.144832,0.15077 -0.07283,-0.14796 c -0.04006,-0.0814 -0.0451,-0.18277 -0.01016,-0.22566 0.03398,-0.0426 -0.02023,-0.15228 -0.118939,-0.24341 -0.09952,-0.0911 -0.185691,-0.27627 -0.191759,-0.41115 -0.0061,-0.13476 -0.01821,-0.44566 -0.02893,-0.69063 l -0.01821,-0.44539 -0.158585,0.0763 c -0.201267,0.097 -0.202541,-0.0571 -0.0041,-0.38746 0.218844,-0.36307 0.198231,-0.58923 -0.0536,-0.58923 h -0.215309 l 0.220665,-0.29726 c 0.146045,-0.1967 0.200458,-0.39832 0.160811,-0.59628 -0.04026,-0.20154 0.0081,-0.37247 0.149686,-0.52421 l 0.2095,-0.22514 -0.117526,-0.17791 -0.117521,-0.17769 0.190342,-0.17462 c 0.104777,-0.0962 0.157575,-0.2414 0.117523,-0.32274 -0.04005,-0.0813 0.03116,-0.27861 0.158587,-0.43831 l 0.231405,-0.29039 -0.19095,-0.17513 -0.190951,-0.17513 0.17477,-0.07 c 0.09608,-0.0386 0.251127,-0.10034 0.344396,-0.13725 0.111653,-0.0444 0.145034,-0.14648 0.0979,-0.29852 -0.127029,-0.4097 -0.11247,-0.49719 0.07605,-0.45746 0.232072,0.049 0.249995,-0.3477 0.02064,-0.45812 l -0.16425,-0.0791 0.235633,-0.31473 c 0.129661,-0.17311 0.302103,-0.31472 0.383337,-0.31472 0.187108,0 0.402549,-0.26753 0.488295,-0.60654 0.184879,-0.73092 1.179382,-1.54362 1.382993,-1.1302 0.08997,0.18275 -0.05058,0.54267 -0.211927,0.54267 -0.07827,0 -0.219875,0.22387 -0.314668,0.49751 -0.298294,0.86108 -0.324634,0.89752 -0.616501,0.85284 -0.292426,-0.0447 -0.431653,0.17489 -0.366621,0.57834 l 0.03541,0.2193 0.28335,-0.28032 c 0.172743,-0.17084 0.30936,-0.22768 0.349884,-0.14545 0.03659,0.0744 0.01619,0.13506 -0.04548,0.13506 -0.06168,0 -0.112067,0.0953 -0.112067,0.21218 0,0.11678 -0.07627,0.43014 -0.169304,0.69655 -0.09326,0.26645 -0.216516,0.63368 -0.274104,0.8161 -0.05766,0.18251 -0.171742,0.50072 -0.253563,0.7073 -0.08192,0.20663 -0.148876,0.49018 -0.148876,0.63022 0,0.14003 -0.04753,0.25459 -0.105794,0.25459 -0.05826,0 -0.105793,0.17566 -0.105793,0.39019 0,0.21473 -0.04146,0.42234 -0.09204,0.46161 -0.271274,0.21039 -0.219167,1.44338 0.05543,1.31116 0.162832,-0.0784 0.882492,0.34624 0.882492,0.52069 0,0.0564 0.07587,0.10236 0.168705,0.10236 0.207249,0 0.601066,0.34652 1.451166,1.27682 0.679659,0.7438 0.908439,0.848 1.129139,0.51429 0.21306,-0.32216 0.62465,-0.24825 0.74012,0.13271 l 0.1005,0.33169 h 0.37267 c 0.43615,0 0.43537,0.003 0.16163,-0.56066 -0.11615,-0.23885 -0.21126,-0.53743 -0.21146,-0.66338 -2.4e-4,-0.12582 -0.0953,-0.42446 -0.21146,-0.66337 -0.49517,-1.01907 0.13654,-2.34877 1.12226,-2.36238 0.91967,-0.0132 0.78646,-0.94225 -0.4496,-3.13742 -0.25386,-0.4509 -0.4616,-0.85787 -0.4616,-0.90441 0,-0.0465 -0.11894,-0.28027 -0.26433,-0.51945 -0.14543,-0.23909 -0.26434,-0.49889 -0.26434,-0.57712 0,-0.0781 -0.0376,-0.16219 -0.0838,-0.18656 -0.0459,-0.0255 -0.39816,-0.64127 -0.78253,-1.37098 -0.38433,-0.72973 -0.846159,-1.53571 -1.026249,-1.7911 -0.344456,-0.48852 -0.402334,-0.72269 -0.214606,-0.86827 0.124601,-0.0963 1.335335,1.42953 1.483195,1.86937 0.0234,0.0696 0.3161,0.64326 0.6504,1.2747 0.3343,0.63144 0.60783,1.20857 0.60783,1.28251 0,0.0739 0.0405,0.15435 0.0898,0.17871 0.10495,0.0518 1.27191,2.46554 1.54754,3.20111 0.10378,0.27684 0.31306,0.58211 0.46512,0.67835 l 0.2765,0.17513 0.31718,-0.24647 c 0.34857,-0.27086 1.00302,-0.32929 1.18137,-0.10561 0.0808,0.10135 0.21761,-0.0228 0.47519,-0.43118 1.65685,-2.62709 2.15074,-3.36074 2.88991,-4.29305 0.86923,-1.09634 1.76719,-1.9851 2.32607,-2.30222 0.17456,-0.0988 0.44373,-0.26249 0.59842,-0.36329 0.27596,-0.17996 0.6175,-0.12992 0.6175,0.0904 0,0.17338 -0.48541,0.78868 -0.62219,0.78868 -0.0671,0 -0.31056,0.14926 -0.54086,0.3317 -0.23028,0.18252 -0.45896,0.33169 -0.50811,0.33169 -0.0492,0 -0.20107,0.14925 -0.33773,0.33169 -0.13654,0.1825 -0.30743,0.3317 -0.37963,0.3317 -0.53076,0 -3.53242,4.49573 -3.53242,5.29067 0,0.22791 -0.0503,0.41433 -0.11207,0.41433 -0.37273,0 0.62004,0.8401 1.24055,1.04974 0.23008,0.0778 0.52381,0.28226 0.65276,0.45449 l 0.23444,0.31315 0.0231,0.70543 c 0.0162,0.4682 -0.0214,0.72405 -0.10927,0.7608 -0.0726,0.0305 -0.1321,0.23147 -0.1321,0.44701 0,0.40612 -0.22885,0.95677 -0.55044,1.32447 -0.10214,0.11703 -0.15495,0.25128 -0.11732,0.29851 0.15961,0.20028 0.46621,0.0583 0.68845,-0.31882 l 0.23856,-0.40486 0.24374,0.0766 c 0.16626,0.0523 0.35521,-0.03 0.59401,-0.25852 0.19256,-0.18452 0.40526,-0.33522 0.47246,-0.33522 0.0671,0 0.12218,-0.0463 0.12218,-0.10236 0,-0.0564 0.1784,-0.21879 0.39648,-0.36109 0.21807,-0.14208 0.57397,-0.39461 0.79089,-0.56086 0.2169,-0.16627 0.46733,-0.30227 0.55653,-0.30227 0.0892,0 0.26852,-0.0691 0.39857,-0.15332 0.13007,-0.0842 0.30783,-0.19671 0.39506,-0.24952 0.0871,-0.0531 0.14848,-0.20788 0.13633,-0.34424 -0.0474,-0.5264 -0.21842,-1.45856 -0.33332,-1.81552 -0.0662,-0.20534 -0.12014,-0.54873 -0.12014,-0.76288 0,-0.21424 -0.036,-0.38941 -0.08,-0.38941 -0.0439,0 -0.14241,-0.19391 -0.21899,-0.43117 -0.0765,-0.23706 -0.20705,-0.58969 -0.29012,-0.78333 -0.0831,-0.19367 -0.1511,-0.47378 -0.1511,-0.62238 0,-0.14876 -0.0476,-0.30713 -0.10576,-0.35222 -0.0583,-0.0452 -0.10576,-0.37646 -0.10576,-0.73634 v -0.65433 l -0.36877,-0.29974 c -0.47823,-0.38872 -0.47818,-0.63139 1.3e-4,-0.63139 0.55738,0 1.41649,0.79482 1.5866,1.46782 0.045,0.17767 0.19621,0.55119 0.33642,0.82974 0.13997,0.27858 0.28247,0.80098 0.31646,1.16091 0.0603,0.63825 0.16768,0.82326 0.28362,0.48859 0.0316,-0.0911 0.03,4.8e-4 -0.004,0.20435 -0.0412,0.24948 -0.002,0.45226 0.12016,0.62169 0.0997,0.13827 0.18611,0.46363 0.19196,0.7229 0.006,0.25926 0.0434,0.40466 0.0836,0.32317 0.0399,-0.0813 0.12502,-0.108 0.18834,-0.0587 0.0822,0.0637 0.0781,0.16422 -0.0143,0.34869 l -0.12905,0.25921 0.14564,0.29247 c 0.10354,0.20813 0.11089,0.30701 0.0255,0.34274 -0.18125,0.0759 -0.14424,0.29349 0.05,0.29349 h 0.17011 l -0.0663,0.3317 -0.0663,0.33167 h 0.21347 c 0.27512,0 0.27649,0.22236 0.002,0.33169 -0.22105,0.0882 -0.27615,0.26587 -0.11994,0.38705 0.20747,0.16092 -0.15414,1.27139 -0.41394,1.27139 -0.12724,0 -0.73492,0.75712 -0.73492,0.9156 0,0.0803 -0.0926,0.14575 -0.20522,0.14575 -0.11287,0 -0.23464,0.0596 -0.27055,0.13271 -0.036,0.0731 -0.16345,0.1327 -0.28352,0.1327 h -0.21818 l 0.12641,0.1914 0.12644,0.19138 -0.45719,0.29039 c -0.25147,0.15968 -0.57822,0.39729 -0.72616,0.52797 -0.14788,0.13066 -0.4334,0.2572 -0.63438,0.2812 l -0.36544,0.0436 -0.0344,0.45414 c -0.0182,0.24978 0.0142,0.57819 0.0732,0.72974 0.0593,0.15152 0.13412,0.5442 0.16607,0.87257 0.0319,0.32837 0.0886,0.91709 0.12581,1.30833 0.0749,0.78787 -0.11811,2.05251 -0.34993,2.29392 -0.33436,0.3482 0.0949,1.57204 0.55135,1.57204 0.12927,0 0.29421,0.0896 0.36661,0.199 0.0725,0.10926 0.21987,0.199 0.32772,0.199 0.10785,0 0.274,0.14926 0.36926,0.3317 0.0953,0.1825 0.26288,0.33168 0.3725,0.33168 0.10961,0 0.19925,0.0598 0.19925,0.13271 0,0.0731 0.0737,0.1327 0.16364,0.1327 0.0899,0 0.42398,0.2089 0.74217,0.46439 0.31817,0.25538 0.61374,0.46436 0.65682,0.46436 0.0431,0 0.2066,0.14926 0.36339,0.33167 0.15676,0.18249 0.32332,0.3317 0.37007,0.3317 0.0468,0 0.20345,0.13534 0.34824,0.30067 0.14483,0.16553 0.51721,0.53254 0.82757,0.81587 0.31041,0.28337 0.60203,0.64061 0.64811,0.7939 l 0.0837,0.2787 0.54138,-0.71632 c 0.29776,-0.39396 0.5414,-0.76535 0.5414,-0.82533 0,-0.22237 0.68056,-1.31139 0.86558,-1.38508 0.10541,-0.0419 0.19175,-0.13271 0.19175,-0.20154 0,-0.0689 0.17579,-0.43794 0.39074,-0.82028 0.21493,-0.38237 0.60744,-1.08268 0.87229,-1.55628 l 0.48155,-0.86115 0.0528,-0.92997 c 0.0593,-1.04307 0.14846,-1.13005 0.49568,-0.48348 l 0.23978,0.44648 -0.0392,0.94658 c -0.0437,1.05486 -0.18852,1.6438 -0.433,1.76154 l -0.16283,0.0784 0.11019,0.16675 c 0.14827,0.22413 0.0299,0.56886 -0.23098,0.67282 l -0.21235,0.0847 0.11626,0.14589 c 0.14503,0.18198 0.15029,0.3583 0.0105,0.3583 -0.13169,0 -0.57329,0.54434 -0.5899,0.72727 -0.006,0.0744 -0.0203,0.21118 -0.0284,0.30423 -0.008,0.0932 -0.14018,0.22844 -0.29193,0.30074 l -0.27583,0.13153 0.12056,0.18226 0.12056,0.18224 -0.31952,0.13988 c -0.21924,0.096 -0.30036,0.2023 -0.25849,0.33932 0.0597,0.1952 -0.49783,1.00927 -0.69128,1.00927 -0.0509,0 -0.066,0.12611 -0.0337,0.28044 l 0.0585,0.28046 -0.25337,-0.0902 -0.25338,-0.0901 0.15353,0.13271 0.15353,0.13256 -0.28573,0.35852 c -0.15718,0.19722 -0.2857,0.43992 -0.2857,0.53946 0,0.21169 -0.16931,0.24113 -0.26537,0.0463 -0.0864,-0.17565 -0.66778,0.24823 -0.70903,0.51709 -0.0214,0.13988 -0.17597,0.20153 -0.52632,0.20967 l -0.49595,0.0132 -0.0516,-0.24748 -0.0516,-0.24747 -0.21888,0.0872 -0.21889,0.0872 v -0.20787 c 0,-0.11452 -0.0868,-0.2079 -0.19297,-0.2079 -0.10623,0 -0.30717,-0.15229 -0.44665,-0.33873 l -0.25362,-0.33875 -0.11752,0.20177 -0.11752,0.2018 -0.22878,-0.3883 c -0.12583,-0.21347 -0.22881,-0.45043 -0.22881,-0.52633 0,-0.0759 -0.0996,-0.13812 -0.22133,-0.13812 -0.12784,0 -0.24337,-0.10562 -0.27344,-0.25003 -0.0336,-0.16116 -0.11874,-0.22792 -0.23954,-0.18833 l -0.18752,0.0613 -0.0677,-0.4249 -0.0677,-0.42491 -0.14522,0.15129 -0.14526,0.15126 -0.17193,-0.32933 c -0.0948,-0.18122 -0.17194,-0.38077 -0.17194,-0.4436 0,-0.063 -0.16566,-0.28763 -0.36818,-0.4995 -0.20248,-0.21195 -0.41536,-0.5551 -0.47305,-0.76273 -0.22721,-0.81792 -0.29545,-0.15102 -0.24124,2.35682 l 0.0559,2.58527 -0.12987,0.19619 c -0.0806,0.12192 -0.0989,0.31212 -0.0485,0.5012 0.0447,0.16778 0.0694,0.4359 0.0548,0.59603 -0.0182,0.19672 0.11089,0.44698 0.39728,0.77161 0.23312,0.26428 0.47973,0.70043 0.54806,0.96928 0.0683,0.26881 0.26129,0.77326 0.42881,1.12096 0.16749,0.34773 0.30461,0.6798 0.30461,0.73794 0,0.0579 0.0966,0.35616 0.21424,0.66218 0.11793,0.30602 0.24291,0.7364 0.27798,0.9564 0.035,0.22005 0.10517,0.43213 0.15575,0.47142 0.0506,0.0394 0.092,0.21041 0.092,0.38011 0,0.16982 0.071,0.47969 0.15799,0.6887 0.0868,0.20889 0.15817,0.54069 0.15858,0.73704 3.3e-4,0.19647 0.0431,0.38986 0.0947,0.42996 0.0889,0.0687 0.15111,0.40418 0.29118,1.56799 0.0329,0.27363 0.085,0.49754 0.11569,0.49754 0.125,0 2.12561,-1.8805 2.60069,-2.44459 0.28108,-0.33383 0.55239,-0.60694 0.60286,-0.60694 0.0503,0 0.24649,-0.28357 0.43564,-0.6302 0.18912,-0.34662 0.65994,-1.01828 1.04627,-1.49258 0.38629,-0.47433 0.77483,-0.99896 0.86338,-1.16584 l 0.161,-0.30345 -0.15029,-0.54741 -0.15029,-0.54739 0.14968,-0.18783 0.1497,-0.18781 0.21956,0.35026 c 0.12077,0.19266 0.27276,0.67169 0.33774,1.06456 l 0.11813,0.7143 -0.17537,0.336 c -0.0966,0.18479 -0.17538,0.53494 -0.17538,0.77807 v 0.44207 l -0.30717,0.2575 c -0.16889,0.14164 -0.28323,0.33659 -0.25405,0.43323 0.0634,0.20966 -0.23834,0.62008 -0.45664,0.621 -0.085,4.1e-4 -0.20715,0.11502 -0.27145,0.25487 -0.22924,0.49841 -0.43102,0.73954 -0.61881,0.73954 -0.10482,0 -0.23391,0.14296 -0.28686,0.31777 -0.0531,0.17488 -0.1582,0.34369 -0.23405,0.37537 l -0.13776,0.0576 0.12684,0.34958 c 0.0788,0.21728 0.0884,0.37941 0.0252,0.42848 -0.056,0.0434 -0.10167,-0.0152 -0.10167,-0.12786 0,-0.11365 -0.0714,-0.2069 -0.1586,-0.2069 -0.0871,0 -0.15859,0.0937 -0.15859,0.2079 0,0.14341 -0.0619,0.18326 -0.19923,0.12876 l -0.19924,-0.0795 -0.0688,0.3433 -0.0686,0.34327 -0.20794,-0.0828 c -0.22345,-0.0891 -0.29611,0.13887 -0.0759,0.23757 0.0726,0.0325 0.0956,0.10825 0.0512,0.16805 -0.0446,0.06 -0.13349,0.0429 -0.19782,-0.0378 l -0.11674,-0.14648 -0.26286,0.35439 c -0.14462,0.19495 -0.32458,0.33812 -0.40006,0.31829 -0.0754,-0.0203 -0.24185,0.1764 -0.36973,0.43598 l -0.23253,0.47209 -0.13795,-0.1437 -0.13796,-0.14369 -0.26922,0.33782 c -0.27565,0.34589 -0.51737,0.40321 -1.44187,0.34192 -0.27349,-0.0177 -0.51173,-0.1105 -0.56034,-0.21677 -0.0465,-0.10198 -0.15352,-0.18529 -0.2379,-0.18529 -0.0844,0 -0.15331,-0.10825 -0.15331,-0.23984 0,-0.13199 -0.0698,-0.35591 -0.15516,-0.49756 -0.0854,-0.14165 -0.15677,-0.39186 -0.15858,-0.55605 -0.002,-0.16424 -0.042,-0.29853 -0.0893,-0.29853 -0.1426,0 -0.44638,-0.91003 -0.33316,-0.99785 0.17033,-0.13198 0.12016,-0.49866 -0.0565,-0.41359 -0.11206,0.0538 -0.15858,-0.01 -0.15858,-0.22236 0,-0.16422 -0.0759,-0.62507 -0.16849,-1.02407 -0.18268,-0.78612 -0.36392,-2.24664 -0.39071,-3.14676 l -0.0162,-0.56386 h -0.24069 c -0.13289,0 -0.24069,0.0813 -0.24069,0.18122 0,0.0995 -0.0937,0.33051 -0.20809,0.51311 l -0.20812,0.33198 0.10261,0.44858 c 0.0564,0.24672 0.0733,0.72391 0.0378,1.0604 -0.0427,0.40397 -0.0162,0.71951 0.0775,0.92892 0.1608,0.35899 0.28463,1.78802 0.36895,4.26082 l 0.0577,1.68822 -0.27268,0.31708 -0.27269,0.3171 v 0.54085 c 0,0.29745 -0.0475,0.57772 -0.10576,0.62282 -0.058,0.0451 -0.10576,0.22565 -0.10576,0.4012 0,0.38193 -0.32979,0.65766 -0.51245,0.42844 -0.0669,-0.0844 -0.12196,-0.23072 -0.12196,-0.32549 0,-0.0949 -0.0951,-0.17232 -0.21147,-0.17232 -0.25054,0 -0.25893,0.0879 -0.065,0.68032 0.41995,1.28352 0.17861,2.38708 -0.43192,1.97465 l -0.40173,-0.27138 -0.0354,0.30077 c -0.0203,0.1655 -0.0788,0.35751 -0.13206,0.42684 -0.0533,0.0692 -0.0968,0.51917 -0.0968,0.99965 0,1.20243 -0.47191,2.92088 -0.80208,2.92088 -0.18004,0 -0.46671,0.75618 -0.46671,1.23079 0,0.17083 -0.0698,0.42648 -0.15513,0.56812 -0.0854,0.14164 -0.15677,0.34025 -0.1586,0.44135 -0.003,0.2127 -0.32407,0.60447 -0.88007,1.07663 l -0.39061,0.33167 -8.1e-4,0.5994 c -4.1e-4,0.4297 0.0781,0.74479 0.2773,1.11283 l 0.27805,0.51344 -0.16242,0.11427 c -0.22688,0.15941 -0.11102,0.63464 0.25723,1.05527 0.16547,0.18886 0.30074,0.39492 0.30074,0.45773 0,0.0627 -0.0571,0.0426 -0.12683,-0.0448 -0.21589,-0.27092 -0.29605,-0.17896 -0.29605,0.33975 v 0.499 l 0.31721,0.32878 c 0.37335,0.38695 0.38984,0.47589 0.10576,0.56912 -0.31327,0.10285 -0.26038,0.5242 0.15049,1.19978 0.39258,0.64539 0.38607,0.93221 -0.0105,0.46464 -0.5273,-0.62159 -0.12945,0.96393 0.41254,1.64399 0.21947,0.27539 0.39527,0.57536 0.39068,0.66655 l -0.008,0.16576 -0.0535,-0.16576 c -0.0293,-0.0911 -0.12074,-0.16574 -0.2031,-0.16574 -0.0823,0 -0.14968,-0.0596 -0.14968,-0.13271 0,-0.0728 -0.0675,-0.13271 -0.1497,-0.13271 -0.0823,0 -0.17375,-0.0745 -0.20311,-0.16573 -0.0293,-0.0911 -0.0571,-0.035 -0.0618,0.12493 -0.004,0.1599 0.0392,0.32758 0.0974,0.3727 0.0583,0.0452 0.10576,0.27971 0.10576,0.52136 v 0.43933 l 0.42012,0.51162 c 0.29849,0.36353 0.38647,0.55091 0.30397,0.64739 -0.08,0.0935 -0.13129,0.0839 -0.16467,-0.0302 -0.0267,-0.0911 -0.11591,-0.16573 -0.19823,-0.16573 -0.0823,0 -0.14968,-0.0597 -0.14968,-0.13271 0,-0.0728 -0.0494,-0.13271 -0.10938,-0.13271 -0.0756,0 -0.0756,0.0796 0,0.25661 0.0603,0.14106 0.10938,0.35602 0.10938,0.47748 0,0.42457 0.33635,1.12334 0.54071,1.12334 0.1096,0 0.19943,0.0597 0.19943,0.13271 0,0.1741 -0.17254,0.16827 -0.4459,-0.0152 l -0.22054,-0.14823 0.0837,0.24774 c 0.0461,0.13637 0.10518,0.42672 0.13129,0.64563 0.0304,0.25463 0.22118,0.60117 0.52981,0.96187 0.45526,0.53213 0.46737,0.72676 0.0267,0.43085 -0.40082,-0.26918 -0.16891,1.1445 0.25094,1.52972 0.23122,0.21219 0.21747,0.32809 -0.0389,0.32809 -0.223,0 -0.28452,0.19314 -0.10576,0.3317 0.058,0.0452 0.10576,0.18782 0.10576,0.3173 0,0.12948 0.19137,0.42819 0.42505,0.66392 0.23377,0.2358 0.39557,0.48843 0.35957,0.56154 -0.0397,0.0805 -0.14464,0.043 -0.26644,-0.0953 -0.11043,-0.12567 -0.20625,-0.17412 -0.21268,-0.10825 -0.0294,0.30303 0.0389,0.79522 0.12663,0.90948 0.0532,0.0692 0.0968,0.35826 0.0968,0.64208 v 0.51609 l -0.23791,0.24901 c -0.30111,0.31519 -0.4168,0.31793 -0.6109,0.0152 z m -1.20686,-22.90564 c 0.39481,-1.04406 0.24043,-2.22423 -0.2937,-2.24483 l -0.34394,-0.0132 -0.13936,-0.36483 c -0.0767,-0.20079 -0.1843,-0.36485 -0.23934,-0.36485 -0.0551,0 -0.1,-0.1011 -0.1,-0.22437 v -0.2244 l -0.15211,0.25756 -0.15211,0.25754 -0.16022,-0.26536 -0.16019,-0.26534 -0.0713,0.43332 -0.0714,0.43331 -0.14502,-0.15104 c -0.0798,-0.083 -0.14505,-0.26316 -0.14505,-0.40016 0,-0.32722 -0.17457,-0.31827 -0.31719,0.0154 -0.0622,0.14589 -0.18286,0.26536 -0.26804,0.26536 -0.0851,0 -0.15494,0.0596 -0.15494,0.13271 0,0.0731 -0.0926,0.13271 -0.20523,0.13271 -0.11287,0 -0.23463,-0.0597 -0.27056,-0.13271 -0.10097,-0.2051 -0.49059,-0.15712 -0.70537,0.0867 l -0.19337,0.21955 v 0.77758 c 0,0.42766 0.0575,1.00834 0.12763,1.29044 l 0.12763,0.51283 0.39378,-0.39706 0.39378,-0.39709 0.45667,0.0788 c 0.54923,0.0952 0.54256,0.0952 1.16051,0.001 l 0.49236,-0.0751 0.40636,0.532 c 0.50238,0.65773 0.51526,0.65936 0.72966,0.0924 z m 0.46969,-3.51067 c 0,-0.2145 0.0477,-0.42712 0.10576,-0.47219 0.15231,-0.11841 0.13046,-0.72891 -0.0265,-0.73413 -0.25817,-0.008 -0.57706,-0.477 -0.64804,-0.95178 l -0.072,-0.48172 -0.37294,-0.27612 c -0.66155,-0.48977 -0.99522,-0.33319 -0.99522,0.467 v 0.32335 l 0.24316,-0.0768 0.24317,-0.0766 0.14644,0.3433 0.14647,0.34331 -0.18085,0.22692 -0.18083,0.22691 -0.28798,-0.20203 -0.28799,-0.20206 -0.0941,-0.82495 c -0.0897,-0.7856 -0.18447,-0.98542 -0.3289,-0.69228 -0.10715,0.21754 -0.65765,0.15534 -0.73039,-0.0824 l -0.0657,-0.215 -0.27734,0.34806 c -0.15252,0.19137 -0.38791,0.64741 -0.52301,1.01336 -0.13512,0.36591 -0.33075,0.70323 -0.43474,0.74958 -0.3869,0.17236 -0.55913,0.47844 -0.55913,0.99324 0,0.56779 0.0429,0.59535 0.49062,0.31508 0.27343,-0.17108 1.32072,-0.50742 2.17442,-0.69815 0.34146,-0.0761 1.34478,0.29385 1.93428,0.71357 0.54818,0.39032 0.58152,0.38584 0.58152,-0.0779 z m 2.96048,-8.66187 c 0,-0.14369 0.0793,-0.47134 0.17639,-0.72793 l 0.17638,-0.46651 -0.12136,-0.24395 c -0.0771,-0.15507 -0.0837,-0.27319 -0.0182,-0.32419 0.12945,-0.10035 0.13471,-0.65564 0.0105,-0.96202 -0.0519,-0.1267 -0.14604,-0.39457 -0.2092,-0.59524 l -0.11485,-0.36485 h -0.35486 c -0.55913,0 -0.99042,0.74354 -1.44979,2.49945 l -0.19925,0.76142 0.12825,0.4592 c 0.19014,0.68107 0.26929,0.79428 0.7475,1.07027 l 0.43634,0.2518 0.39651,-0.54803 c 0.21805,-0.30142 0.39648,-0.66567 0.39648,-0.80945 z m -8.02963,0.66039 0.19844,-0.29853 0.004,-0.94149 c 0.004,-0.86675 -0.0787,-1.26592 -0.42621,-2.07504 -0.0544,-0.1267 -0.0989,-0.35058 -0.0989,-0.49753 0,-0.14697 -0.0475,-0.26714 -0.10576,-0.26714 -0.0583,0 -0.10576,-0.0637 -0.10576,-0.14165 0,-0.35548 -0.560976,-1.05251 -0.847064,-1.05251 -0.347215,0 -0.421687,0.18807 -0.421687,1.06441 0,0.35456 -0.04758,0.68158 -0.105798,0.72666 -0.05828,0.0452 -0.105789,0.34362 -0.105789,0.6634 0,0.31976 0.04758,0.61826 0.105789,0.66337 0.05828,0.0452 0.105798,-0.01 0.105798,-0.12493 0,-0.11365 0.05278,-0.20688 0.117325,-0.20688 0.07667,0 0.09466,0.17211 0.05158,0.49752 -0.124192,0.94017 -0.05518,1.35996 0.157179,0.95807 l 0.10319,-0.19519 -0.06478,0.35069 c -0.07477,0.40558 0.20484,0.90974 0.504704,0.90974 0.103293,0 0.187903,0.0597 0.187903,0.13269 0,0.25445 0.54758,0.13271 0.74608,-0.16575 z m -5.766949,-2.97501 c 0.115505,-0.1952 0.285516,-0.47299 0.377653,-0.61755 l 0.167485,-0.2629 -0.193984,-0.50377 c -0.314967,-0.81799 -0.133503,-1.63733 0.329105,-1.48555 l 0.207458,0.068 0.06635,-0.37876 c 0.117524,-0.6721 0.282905,-1.10847 0.41997,-1.10847 0.0795,0 0.161214,-0.25522 0.201468,-0.63019 0.164652,-1.53298 0.187915,-1.64397 0.329813,-1.57566 0.09123,0.0439 0.166071,-0.0756 0.21225,-0.33913 0.07383,-0.42216 -0.05098,-0.63309 -0.377229,-0.63718 -0.150291,-0.003 -0.227601,0.0857 -0.62095,0.70324 l -0.148067,0.23249 0.105794,0.294 c 0.05826,0.1617 0.160001,0.49971 0.226005,0.75114 l 0.120153,0.45712 -0.159597,0.30574 c -0.17578,0.33667 -0.320954,0.37124 -0.733197,0.17463 l -0.274976,-0.13125 -0.06048,0.23074 c -0.09304,0.35534 -0.353785,1.13326 -0.465806,1.38977 -0.05543,0.1267 -0.100529,0.3685 -0.100529,0.53735 0,0.16881 -0.05947,0.38283 -0.132087,0.47556 l -0.132089,0.16855 0.225359,0.22286 c 0.123996,0.12254 0.31086,0.28629 0.415357,0.36392 0.250904,0.18628 0.128042,0.58856 -0.179625,0.58856 -0.479315,0 -0.760158,0.56656 -0.434572,0.8767 0.268849,0.25608 0.374295,0.22667 0.609301,-0.17007 z m 9.011809,-1.66859 c 0.0671,0.25 1.88925,0.21957 2.47182,-0.0415 l 0.46266,-0.20738 1.0573,0.0805 c 0.58153,0.0442 1.11755,0.029 1.19123,-0.034 l 0.13391,-0.1144 -0.40218,-0.40555 c -0.22159,-0.22336 -0.5979,-0.44706 -0.83806,-0.49799 l -0.43583,-0.0923 -0.0697,0.27465 c -0.15556,0.61513 -1.34282,0.22058 -1.50398,-0.4998 -0.0482,-0.21498 -0.69557,-0.81698 -0.87857,-0.81698 -0.20461,0 -0.20649,0.27213 -0.004,0.49032 0.28052,0.30137 0.27485,0.65486 -0.0141,0.84854 l -0.22953,0.15407 -0.14361,-0.24647 c -0.0863,-0.14796 -0.11794,-0.39318 -0.0793,-0.61381 0.0725,-0.41315 -0.082,-0.48931 -0.3386,-0.16727 -0.20899,0.26223 -0.35361,0.1371 -0.3556,-0.30755 -8.1e-4,-0.19647 -0.0409,-0.43451 -0.0886,-0.52915 l -0.087,-0.1721 -0.12462,0.18859 c -0.0686,0.10361 -0.0947,0.28629 -0.0583,0.40582 l 0.0666,0.21726 -0.1968,-0.0883 c -0.10821,-0.0488 -0.25204,-0.14166 -0.31953,-0.20688 -0.0743,-0.0716 -0.1499,-0.0635 -0.19157,0.0203 -0.0478,0.0967 -0.13147,0.0971 -0.27374,0.003 -0.2391,-0.16067 -0.2739,0.003 -0.0828,0.38654 0.0674,0.13534 0.0914,0.34746 0.0535,0.47146 -0.0991,0.32428 -0.6377,0.22717 -0.68747,-0.12392 -0.066,-0.46552 -0.18327,-0.48104 -0.52629,-0.0699 l -0.33471,0.40135 h -0.3835 c -0.27533,0 -0.48539,-0.11214 -0.74475,-0.39801 -0.429708,-0.47344 -0.544213,-0.49287 -0.65668,-0.11152 l -0.08457,0.28662 -0.06707,-0.21956 -0.06707,-0.21955 -0.294335,0.15762 c -0.855208,0.45771 -0.796671,0.82196 0.112866,0.70232 0.383851,-0.0504 0.844931,-0.0228 1.125889,0.068 0.26166,0.0845 0.61853,0.18249 0.79295,0.21802 0.17458,0.0356 0.41237,0.11577 0.52865,0.1782 0.23512,0.12641 0.61003,0.23427 1.32166,0.38034 0.26168,0.0538 0.57043,0.16499 0.68613,0.24697 l 0.21035,0.14925 0.15049,-0.15585 0.15049,-0.15584 z m 3.67517,-1.63907 c 0.17416,-0.26299 0.63619,-0.90481 1.02676,-1.42627 0.70192,-0.93707 1.06938,-1.66369 1.2014,-2.37561 0.0374,-0.20127 0.11019,-0.39889 0.16181,-0.43901 0.12806,-0.0991 0.11934,-0.68536 -0.0121,-0.78694 -0.0583,-0.0452 -0.10575,0.002 -0.10575,0.10461 0,0.23428 -0.29744,0.99231 -0.42963,1.09481 -0.0544,0.0421 -0.0991,0.19267 -0.0991,0.33431 0,0.14164 -0.0399,0.25754 -0.0889,0.25754 -0.0488,0 -0.17962,0.2381 -0.29078,0.52918 -0.11101,0.29104 -0.23771,0.52985 -0.28132,0.53069 -0.0437,9.9e-4 -0.0793,0.0779 -0.0793,0.17108 0,0.21195 -0.41945,0.67514 -0.50921,0.56247 -0.0364,-0.0457 -0.0122,-0.12468 0.0532,-0.17564 0.23771,-0.18428 1.72485,-3.86821 1.72485,-4.27274 0,-0.13653 0.0477,-0.28518 0.10575,-0.33029 0.0583,-0.0452 0.10576,-0.30531 0.10576,-0.57832 0,-0.27297 0.0427,-0.55304 0.0952,-0.62237 0.15394,-0.20432 0.25791,-1.74108 0.12459,-1.8444 -0.0635,-0.0492 -0.14241,0.0178 -0.17537,0.15101 -0.0329,0.13227 -0.104,0.34427 -0.15776,0.47098 -0.054,0.1267 -0.0982,0.35141 -0.0982,0.49936 0,0.14797 -0.0445,0.3726 -0.0989,0.49931 -0.25396,0.59141 -0.42973,1.15524 -0.42973,1.37849 0,0.13475 -0.0475,0.24493 -0.10576,0.24493 -0.0583,0 -0.10576,0.11214 -0.10576,0.24902 0,0.1371 -0.0713,0.32342 -0.15858,0.41427 -0.0871,0.0909 -0.15858,0.22184 -0.15858,0.29084 0,0.13535 -0.54605,1.16857 -0.77013,1.45716 -0.0751,0.0967 -0.24275,0.39374 -0.37259,0.66015 -0.12986,0.26638 -0.30648,0.51827 -0.39253,0.5597 -0.22689,0.10912 -0.19175,-0.0911 0.0551,-0.31435 0.11627,-0.10499 0.21422,-0.28256 0.2176,-0.39414 0.004,-0.11177 0.11042,-0.38686 0.23787,-0.61167 0.5671,-1.00003 1.0248,-1.91162 1.0248,-2.04114 0,-0.14312 0.0465,-0.27686 0.35496,-1.02011 0.0954,-0.23021 0.17374,-0.54362 0.17374,-0.69655 0,-0.15279 0.0475,-0.27802 0.10576,-0.27802 0.0583,0 0.10576,-0.15001 0.10576,-0.33351 0,-0.18352 0.0406,-0.43716 0.0903,-0.56387 0.32366,-0.8269 0.43114,-1.24707 0.4912,-1.9206 0.0704,-0.78809 0.006,-1.29494 -0.16566,-1.29494 -0.0542,0 -0.0986,0.14925 -0.0986,0.33166 0,0.18251 -0.0475,0.3317 -0.10575,0.3317 -0.0583,0 -0.10576,0.0847 -0.10576,0.18758 0,0.27603 -0.70574,1.94453 -1.04975,2.48183 -0.26645,0.41611 -0.32937,0.12142 -0.0826,-0.38714 0.13107,-0.27013 0.30262,-0.67027 0.38105,-0.88917 0.0786,-0.21879 0.20823,-0.55651 0.28836,-0.75018 0.0802,-0.19366 0.14566,-0.44744 0.14566,-0.56387 0,-0.1164 0.0475,-0.21169 0.10576,-0.21169 0.0583,0 0.10576,-0.1001 0.10576,-0.22209 0,-0.12217 0.12257,-0.66758 0.27221,-1.21193 0.16932,-0.61535 0.24703,-1.11564 0.20562,-1.3227 l -0.0666,-0.33306 -0.19822,0.45035 c -0.10903,0.24776 -0.25215,0.59845 -0.31797,0.77939 -0.066,0.18096 -0.15232,0.36003 -0.19236,0.39801 -0.0401,0.0381 -0.16548,0.27801 -0.27887,0.5334 -0.11346,0.25542 -0.29508,0.58378 -0.40375,0.72971 -0.10868,0.1459 -0.22429,0.43108 -0.25694,0.63366 l -0.0593,0.36834 -0.19762,-0.0787 -0.19762,-0.0787 v 0.24242 c 0,0.13328 -0.0946,0.31642 -0.21007,0.40697 -0.11557,0.0907 -0.28461,0.35861 -0.37572,0.59576 -0.50882,1.3242 -0.89577,1.95692 -1.19669,1.95692 -0.26547,0 -0.75509,0.49666 -0.75509,0.76587 v 0.21602 l 0.12683,-0.15916 c 0.18063,-0.22666 0.50753,-0.19696 0.50753,0.046 0,0.11289 -0.14524,0.30688 -0.32301,0.43121 l -0.32299,0.22588 0.054,0.33171 c 0.0297,0.18249 0.10401,0.63019 0.16527,0.99503 0.0614,0.36488 0.18062,1.20073 0.26511,1.85747 0.24506,1.90308 0.28512,2.09577 0.54201,2.60703 0.40196,0.80003 0.80388,0.85281 1.25906,0.16524 z m -6.39135,-0.35103 c 0.10926,-0.16423 0.20005,-0.35113 0.20207,-0.41538 0.002,-0.0641 0.17902,-0.42247 0.39364,-0.79604 l 0.39009,-0.67923 0.0123,-0.59991 c 0.006,-0.32994 0.0457,-0.66913 0.0874,-0.75371 0.0417,-0.0847 0.0274,-0.19139 -0.0318,-0.23707 -0.0592,-0.046 -0.1074,-0.43453 -0.1074,-0.86373 0,-0.42922 -0.0476,-0.81728 -0.10575,-0.86236 -0.12986,-0.10072 -0.14078,-0.95217 -0.0141,-1.05092 0.13269,-0.10286 0.43647,0.97281 0.43647,1.54503 0,0.2669 0.0413,0.51732 0.0919,0.5565 0.0506,0.0391 0.1238,0.32628 0.16284,0.63804 0.2975,2.37779 1.01109,2.83979 1.0158,0.65766 7.8e-4,-0.41482 0.0466,-0.84322 0.10108,-0.95196 0.10985,-0.21804 -0.0585,-0.63009 -0.48828,-1.19536 -0.81625,-1.07358 -1.0948,-1.52044 -1.0948,-1.75624 v -0.26481 l 0.21143,0.0692 c 0.32804,0.10763 0.25384,-0.17944 -0.21143,-0.81812 -0.23263,-0.31934 -0.42294,-0.63161 -0.42294,-0.69396 0,-0.0625 -0.11545,-0.14977 -0.25653,-0.19419 -0.31521,-0.0992 -0.52959,-0.39609 -0.66393,-0.91929 -0.0563,-0.21905 -0.16951,-0.40607 -0.25169,-0.4159 -0.0822,-0.01 -0.21216,-0.0255 -0.28878,-0.0332 -0.0856,-0.01 -0.11545,-0.10951 -0.0774,-0.25978 0.0364,-0.1437 -0.0263,-0.38502 -0.15151,-0.58481 -0.11732,-0.18709 -0.21332,-0.44109 -0.21332,-0.56425 0,-0.26537 -0.326804,-0.9946 -0.445718,-0.9946 -0.172743,0 -0.07567,0.62287 0.201672,1.29262 l 0.287896,0.69555 -0.1242,0.15586 -0.124202,0.15585 -0.06408,-0.25436 c -0.03519,-0.13988 -0.108208,-0.35805 -0.162017,-0.48476 -0.05408,-0.1267 -0.09806,-0.32073 -0.09806,-0.43117 0,-0.11038 -0.04248,-0.2008 -0.09436,-0.2008 -0.05188,0 -0.124812,-0.16423 -0.162217,-0.36483 -0.09326,-0.50005 -0.396266,-1.20772 -0.548707,-1.28113 -0.216136,-0.10398 -0.281471,0.79181 -0.09146,1.25305 0.17821,0.43264 0.176991,1.06579 -0.002,1.06277 -0.05808,-10e-4 -0.120153,-0.23861 -0.137946,-0.52789 l -0.03239,-0.52607 -0.147873,0.071 -0.147863,0.071 0.06128,1.34811 c 0.03379,0.74149 0.10276,1.40483 0.15353,1.47419 0.05078,0.0692 0.09226,0.2818 0.09226,0.47217 0,0.19037 0.06977,0.46201 0.15514,0.60366 0.08537,0.14166 0.156769,0.39187 0.158588,0.55607 0.002,0.16421 0.05098,0.29852 0.109028,0.29852 0.05808,0 0.105789,0.16726 0.105789,0.3715 0,0.20431 0.05298,0.43787 0.117534,0.51905 0.06477,0.0813 0.09167,0.22744 0.06008,0.32503 -0.03839,0.11841 -0.08167,0.0779 -0.12987,-0.12092 -0.03988,-0.16422 -0.114275,-0.29852 -0.165665,-0.29852 -0.05138,0 -0.09346,-0.14194 -0.09346,-0.31547 0,-0.17335 -0.07137,-0.38973 -0.158578,-0.48059 -0.08717,-0.0909 -0.158589,-0.27935 -0.158589,-0.41893 0,-0.1396 -0.07527,-0.39803 -0.167285,-0.57429 -0.09826,-0.18835 -0.138966,-0.43301 -0.09856,-0.59302 0.06658,-0.26333 -0.187917,-0.5421 -0.331041,-0.36254 -0.142814,0.17921 0.118734,3.34976 0.287049,3.4803 0.05398,0.0419 0.09826,0.19009 0.09826,0.32925 0,0.22843 0.190346,0.87814 0.435851,1.48745 0.05098,0.1267 0.09286,0.34565 0.09286,0.48648 0,0.14092 0.03579,0.27601 0.07927,0.30034 0.04368,0.0255 0.215726,0.40242 0.382482,0.84024 0.166685,0.43785 0.416538,0.9861 0.555094,1.21842 0.138548,0.23225 0.251878,0.47218 0.251878,0.53313 0,0.48719 0.99104,0.69847 1.27473,0.27176 z m 4.24652,-7.23077 c 0.58517,-0.75111 1.56271,-2.30531 1.56271,-2.48461 0,-0.0444 0.11894,-0.24189 0.26434,-0.43869 0.14544,-0.1967 0.26442,-0.41802 0.26452,-0.49172 10e-5,-0.10499 0.73274,-1.41325 1.34144,-2.39513 0.18873,-0.30447 0.66726,-1.60453 0.66726,-1.81293 0,-0.12242 0.0477,-0.25915 0.10576,-0.30424 0.0583,-0.0452 0.10576,-0.2165 0.10576,-0.38117 v -0.29913 l -0.66083,0.0465 c -0.36345,0.0256 -0.82734,0.0842 -1.03089,0.13023 -0.20353,0.046 -0.41762,0.0648 -0.47578,0.0423 -0.0583,-0.0228 -0.20086,-0.0317 -0.3172,-0.0203 -0.11626,0.0132 -0.42169,-0.0152 -0.67866,-0.0592 -0.6609,-0.11289 -0.34551,-0.31768 0.49363,-0.32023 l 0.66083,-0.003 v -0.20789 c 0,-0.14873 -0.0614,-0.18351 -0.21513,-0.1223 -0.13148,0.0523 -0.35442,-0.0179 -0.5734,-0.17972 l -0.3583,-0.26526 -0.0603,0.19697 c -0.0745,0.24317 -0.25737,0.1154 -0.37962,-0.26467 l -0.0917,-0.28492 -0.006,0.35704 c -0.008,0.42273 -0.17032,0.58763 -0.37198,0.37767 -0.1012,-0.10549 -0.16548,-0.10825 -0.21415,-0.01 -0.11486,0.23326 -0.26643,0.0152 -0.26643,-0.38533 0,-0.20559 -0.0677,-0.44438 -0.1503,-0.53044 l -0.15029,-0.15662 0.0537,0.25751 0.0537,0.25751 -0.33894,0.2122 -0.33895,0.21219 -0.20651,-0.32945 c -0.24889,-0.39706 -0.57481,-0.42834 -0.66694,-0.064 -0.0863,0.34096 -0.2043,0.3351 -0.47038,-0.0228 l -0.21428,-0.28861 -0.25328,0.17005 c -0.13937,0.0936 -0.48481,0.18454 -0.76784,0.2023 -0.28302,0.0178 -0.63987,0.0412 -0.79299,0.0523 -0.17133,0.0132 -0.29776,0.11264 -0.32865,0.26087 l -0.0502,0.24089 -0.38808,-0.0569 -0.38811,-0.057 0.12177,-0.18403 0.12177,-0.18401 -0.14503,0.005 c -0.243382,0.008 -0.515166,0.3409 -0.515166,0.63279 0,0.1518 -0.04748,0.31297 -0.105759,0.35806 -0.150292,0.11678 -0.131079,1.43475 0.02649,1.81099 0.07257,0.17362 0.239207,0.50305 0.370056,0.73218 0.130879,0.22921 0.237899,0.48206 0.237899,0.56198 0,0.08 0.0356,0.14576 0.0794,0.1462 0.0925,0.001 0.44935,0.75457 0.44935,0.94884 0,0.30312 1.27027,2.31716 2.43183,3.85568 l 0.47578,0.63019 0.34624,0.003 0.34625,0.003 0.1088,-0.35909 c 0.0599,-0.19746 0.0961,-0.51091 0.0806,-0.69652 -0.0162,-0.18554 0.0182,-0.36734 0.0737,-0.40381 0.056,-0.0365 0.11405,0.17235 0.12885,0.46435 0.0143,0.29187 0.0528,0.72475 0.0843,0.96189 l 0.0571,0.43121 h 0.23592 c 0.13331,0 0.40467,-0.21652 0.62357,-0.49751 z m 10.77816,-1.63017 -0.036,-0.80139 -0.22832,0.0894 c -0.12561,0.0492 -0.28577,0.11678 -0.35602,0.14975 -0.18043,0.0849 -0.29468,-0.58728 -0.13958,-0.82174 l 0.12622,-0.19114 -0.32002,-0.37114 c -0.49344,-0.57231 -1.35648,-1.3662 -1.48519,-1.3662 -0.0635,0 -0.11556,-0.0597 -0.11556,-0.13271 0,-0.24798 -0.33669,-0.13402 -0.39226,0.13271 -0.0555,0.26616 -0.45357,0.38259 -0.45357,0.13271 0,-0.17591 -0.39155,-0.17106 -0.47867,0.005 -0.0889,0.18046 0.22827,0.78474 0.45839,0.87336 0.0983,0.0379 0.26406,0.12641 0.36818,0.19646 0.10412,0.0701 0.2317,0.0946 0.28346,0.0544 0.0517,-0.04 0.12399,-0.0132 0.16061,0.062 0.0367,0.0743 0.15697,0.13475 0.26752,0.13475 0.11066,0 0.30104,0.13433 0.42322,0.29852 l 0.22212,0.29853 -0.0605,0.406 -0.0605,0.40602 0.34465,0.21878 c 0.4817,0.30563 0.94688,0.66421 1.11553,0.8599 0.30196,0.35032 0.39313,0.18758 0.35612,-0.63507 z m -23.650852,-1.98084 c 0.05057,-0.50128 0.111047,-0.62019 0.356534,-0.70072 0.238385,-0.078 0.862492,0.22893 0.862492,0.4246 0,0.0763 0.04754,0.13914 0.105794,0.13914 0.05825,0 0.105793,-0.11352 0.105793,-0.25228 0,-0.13887 0.147057,-0.36914 0.32672,-0.51191 l 0.326739,-0.25962 -0.168092,-0.0809 c -0.23347,-0.11251 -0.210633,-0.58212 0.0364,-0.74798 0.320167,-0.215 0.614278,-0.16271 0.846878,0.15051 l 0.213788,0.28797 0.225397,-0.2548 c 0.330098,-0.37313 0.434574,-0.80538 0.279123,-1.15473 -0.07201,-0.16167 -0.139571,-0.31485 -0.15009,-0.34022 -0.01016,-0.0255 -0.153326,0.0468 -0.317192,0.16043 -0.163844,0.11351 -0.516294,0.32539 -0.783017,0.47073 -0.266702,0.14516 -0.549527,0.3619 -0.628477,0.48129 -0.07889,0.11928 -0.51514,0.45148 -0.969295,0.738 -1.289277,0.81346 -1.494568,1.18153 -1.062786,1.9056 l 0.185084,0.31029 0.08435,-0.18503 c 0.04633,-0.10186 0.102151,-0.36291 0.123998,-0.58011 z m 17.478162,-7.81761 0.0293,-1.90917 -0.15434,-0.21371 c -0.0848,-0.11741 -0.17234,-0.48241 -0.1948,-0.81066 -0.0223,-0.32822 -0.0469,0.14413 -0.0551,1.04971 -0.0105,1.18169 -0.0533,1.6815 -0.15191,1.77045 l -0.13755,0.12393 0.18508,-0.0745 0.18509,-0.0745 v 0.5203 c 0,0.92254 -0.3018,1.46271 -0.52493,0.93949 -0.16365,-0.38385 -0.13452,-0.53525 0.12845,-0.66791 0.16242,-0.082 0.18305,-0.12268 0.0648,-0.12847 -0.0952,-0.005 -0.25081,-0.15762 -0.34605,-0.34011 l -0.17315,-0.33169 h 0.21388 c 0.11955,0 0.21392,-0.0876 0.21392,-0.19899 0,-0.10926 -0.042,-0.19899 -0.0937,-0.19899 -0.17416,0 -0.4536,-0.67781 -0.3736,-0.90626 0.0427,-0.12193 0.0663,-0.30466 0.0528,-0.40635 -0.0143,-0.10185 0.0342,-0.23072 0.10623,-0.2865 l 0.13109,-0.10148 -0.17579,-0.22056 c -0.0968,-0.12142 -0.17578,-0.36948 -0.17578,-0.55151 0,-0.18198 -0.0437,-0.43344 -0.0972,-0.55872 -0.1082,-0.25383 0.0753,-1.34747 0.25396,-1.51268 0.0686,-0.0635 0.0502,-0.14669 -0.051,-0.23022 -0.22044,-0.18147 -0.31719,-0.16624 -0.31719,0.05 0,0.4408 -0.5573,0.447 -1.58969,0.0179 l -0.78927,-0.32823 -0.99218,-0.003 c -0.54569,-0.003 -1.17624,0.0657 -1.40124,0.15029 l -0.40905,0.1538 -0.44905,-0.17766 c -0.24699,-0.0978 -0.49949,-0.22465 -0.56115,-0.28179 -0.0618,-0.0573 -0.28256,-0.0384 -0.49097,0.0419 -0.49992,0.19239 -0.91303,0.0508 -1.03613,-0.35546 -0.12198,-0.40246 -0.31643,-0.32649 -0.57602,0.22488 l -0.19519,0.41448 0.22704,-0.0744 c 0.31619,-0.10386 0.38542,0.11452 0.19296,0.60842 -0.24297,0.62338 -0.29997,0.88439 -0.34791,1.5928 -0.0238,0.3532 -0.0928,0.7581 -0.15334,0.89978 -0.315887,0.7407 -0.1958,2.4989 0.19176,2.80971 0.25514,0.20457 0.12804,0.31725 -0.34341,0.30463 -0.261669,-0.008 -0.475786,-0.0573 -0.475786,-0.11201 -1e-5,-0.0548 -0.04748,-0.0995 -0.105758,-0.0995 -0.147273,0 -0.132509,0.44408 0.02129,0.63686 0.153341,0.19241 0.891744,0.21247 0.983294,0.0263 0.036,-0.0731 0.26475,-0.13535 0.50846,-0.13857 0.24372,-0.003 0.63344,-0.0918 0.86604,-0.19697 0.26288,-0.11879 0.83309,-0.19189 1.50667,-0.19317 l 1.08374,-0.003 v -1.06922 c 0,-0.67903 0.0386,-1.0393 0.10576,-0.98723 0.0583,0.0452 0.10576,0.52626 0.10576,1.06923 v 0.98722 l 0.34364,3.8e-4 c 0.43651,5.1e-4 2.17878,0.36822 2.45825,0.51879 0.11627,0.0627 0.40178,0.17743 0.6344,0.2553 0.23259,0.0778 0.63701,0.22769 0.89871,0.33319 0.26166,0.10562 0.64231,0.18301 0.84584,0.17235 l 0.37005,-0.0203 0.0293,-1.90919 z m -11.18405,-5.45424 c 0,-0.0727 -0.07137,-0.1327 -0.158589,-0.1327 -0.08717,0 -0.158578,-0.0778 -0.158578,-0.17237 0,-0.26576 0.227881,-0.49089 0.496937,-0.49089 0.133698,0 0.241656,-0.0447 0.239817,-0.0995 -0.0121,-0.3319 -1.128202,-1.4926 -1.436392,-1.4926 h -0.238648 l 0.04998,0.43121 c 0.06977,0.60084 -0.04638,0.76084 -0.472705,0.65143 l -0.354148,-0.0909 -0.218298,-0.47229 c -0.305965,-0.66205 0.188725,-1.42918 0.506017,-0.7848 0.036,0.0731 0.164049,0.13271 0.284828,0.13271 h 0.21947 l -0.268826,-0.26534 c -0.147864,-0.1459 -0.321438,-0.26536 -0.385743,-0.26536 -0.06432,0 -0.209418,-0.0726 -0.322471,-0.16117 l -0.205555,-0.16118 -0.268808,0.31689 c -0.302201,0.35624 -0.35445,0.86438 -0.101345,0.98622 0.09204,0.0444 0.148471,0.15152 0.125614,0.2381 -0.0445,0.16725 0.07969,0.34771 0.649797,0.94398 0.195603,0.20457 0.421789,0.34006 0.502639,0.30113 0.08778,-0.0421 0.194799,0.0608 0.265651,0.25596 l 0.118734,0.32674 0.118544,-0.2033 0.118534,-0.20332 0.209049,0.26404 c 0.218545,0.27606 0.684833,0.37622 0.684833,0.14721 z m 6.71244,-1.06762 c 0.49856,-0.30443 0.68862,-0.55744 0.69018,-0.91882 0.002,-0.59482 0.12075,-0.93239 0.32664,-0.93239 0.22104,0 0.54718,-0.81087 0.45171,-1.12302 -0.0858,-0.28051 -0.52545,-0.60176 -0.82356,-0.60176 -0.17598,0 -0.35584,-0.15331 -0.54492,-0.46435 l -0.28225,-0.46437 h -0.30609 c -0.36172,0 -0.69611,0.21778 -0.96778,0.63022 l -0.19662,0.2985 h -0.4681 -0.46811 v 0.57051 c 0,0.31379 0.0469,0.62932 0.10412,0.70116 0.0683,0.0858 0.0367,0.35395 -0.0926,0.78061 l -0.19661,0.64987 -0.0763,-0.30118 -0.0763,-0.30115 -0.20146,0.27129 c -0.26879,0.362 -0.25639,0.44687 0.11568,0.7921 0.17455,0.16194 0.31719,0.23276 0.31719,0.15762 0,-0.23935 0.28598,-0.14697 0.43883,0.14194 l 0.14745,0.27859 0.43558,-0.1472 0.43561,-0.14722 0.4079,0.1764 c 0.46672,0.20204 0.41572,0.20483 0.82933,-0.0474 z"
       id="path25390"
       inkscape:label="EphemMacroInvert" />
  </g>
  <metadata
     id="metadata16714">
    <rdf:RDF>
      <cc:Work
         rdf:about="">
        <dc:title>BioMonTools</dc:title>
        <dc:date>2022-06-02</dc:date>
        <dc:creator>
          <cc:Agent>
            <dc:title>John Zastrow</dc:title>
          </cc:Agent>
        </dc:creator>
        <dc:rights>
          <cc:Agent>
            <dc:title>Public Domain</dc:title>
          </cc:Agent>
        </dc:rights>
        <dc:subject>
          <rdf:Bag>
            <rdf:li>Biomonitoring</rdf:li>
            <rdf:li>Bioassessment</rdf:li>
            <rdf:li>R</rdf:li>
          </rdf:Bag>
        </dc:subject>
        <cc:license
           rdf:resource="http://artlibre.org/licence/lal" />
      </cc:Work>
      <cc:License
         rdf:about="http://artlibre.org/licence/lal">
        <cc:permits
           rdf:resource="http://creativecommons.org/ns#Reproduction" />
        <cc:permits
           rdf:resource="http://creativecommons.org/ns#Distribution" />
        <cc:permits
           rdf:resource="http://creativecommons.org/ns#DerivativeWorks" />
        <cc:requires
           rdf:resource="http://creativecommons.org/ns#ShareAlike" />
        <cc:requires
           rdf:resource="http://creativecommons.org/ns#Notice" />
        <cc:requires
           rdf:resource="http://creativecommons.org/ns#Attribution" />
      </cc:License>
    </rdf:RDF>
  </metadata>
</svg>
