<?xml version="1.0" encoding="UTF-8" standalone="no"?>
<svg
   version="1.1"
   id="Layer_1"
   x="0px"
   y="0px"
   viewBox="0 0 2631.902 1436.505"
   enable-background="new 0 0 2631.902 1436.505"
   xml:space="preserve"
   sodipodi:docname="cannon.svg"
   inkscape:version="1.2 (dc2aedaf03, 2022-05-15)"
   xmlns:inkscape="http://www.inkscape.org/namespaces/inkscape"
   xmlns:sodipodi="http://sodipodi.sourceforge.net/DTD/sodipodi-0.dtd"
   xmlns="http://www.w3.org/2000/svg"
   xmlns:svg="http://www.w3.org/2000/svg"><defs
   id="defs26179" /><sodipodi:namedview
   id="namedview26177"
   pagecolor="#ffffff"
   bordercolor="#000000"
   borderopacity="0.25"
   inkscape:showpageshadow="2"
   inkscape:pageopacity="0.0"
   inkscape:pagecheckerboard="0"
   inkscape:deskcolor="#d1d1d1"
   showgrid="false"
   inkscape:zoom="0.49773888"
   inkscape:cx="1145.1788"
   inkscape:cy="720.25718"
   inkscape:window-width="2560"
   inkscape:window-height="1351"
   inkscape:window-x="-9"
   inkscape:window-y="-9"
   inkscape:window-maximized="1"
   inkscape:current-layer="Layer_1" />
<path
   d="m 2554.4127,135.24568 c -1.033,-14.208 -35.1408,-11.92457 -46.9318,-3.92657 L 2352.648,156.291 725.356,220.895 c -81.474,6.04 -148.484,59.445 -176.531,131.068 -4.486,-0.682 -9.045,-1.146 -13.723,-1.146 -50.148,0 -90.805,40.654 -90.805,90.804 0,50.149 40.657,90.803 90.805,90.803 9.352,0 18.368,-1.42 26.856,-4.046 31.203,54.266 86.148,92.77 149.441,101.945 l -0.278,2.124 -308.548,452.497 c -10.598,15.544 -28.369,24.639 -47.175,24.149 l -289.093,-7.544 c -18.004,-0.47 -32.244,15.12 -30.151,33.006 l 26.39,225.633 c 1.791,15.321 15.055,26.693 30.47,26.124 l 388.681,-14.353 c 23.296,-0.86 45.098,-11.831 59.457,-30.197 47.412,-60.651 165.667,-196.008 276.754,-196.008 h 63.032 l 0.035,-0.138 c 85.804,154.567 250.613,259.222 439.93,259.222 277.752,0 502.913,-225.162 502.913,-502.913 0,-144.148 -60.74,-274.031 -157.907,-365.726 l 710.698,-74.716 162.6327,4.96923 c 12.821,6.21 33.5833,-21.86977 32.5503,-36.07777 z M 758.452,1050.945 c -11.237,-1.714 -17.832,-13.568 -13.367,-24.02 l 41.474,-97.059 11.525,127.125 z m 257.712,-125.27 h 171.444 c 3.491,19.72 11.185,37.955 22.221,53.74 l -121.249,121.248 c -40.959,-47.836 -67.285,-108.39 -72.416,-174.988 z m 0,-47.498 c 5.13,-66.598 31.457,-127.152 72.417,-174.988 l 121.249,121.248 c -11.036,15.786 -18.73,34.021 -22.221,53.74 z m 280.99,328.488 c -66.597,-5.13 -127.152,-31.458 -174.988,-72.417 L 1243.414,1013 c 15.786,11.035 34.021,18.73 53.739,22.222 v 171.443 z m 0,-438.036 c -19.719,3.492 -37.954,11.187 -53.739,22.222 L 1122.166,669.602 c 47.836,-40.959 108.391,-67.286 174.988,-72.417 z m 47.5,438.036 v -171.443 c 19.719,-3.492 37.954,-11.188 53.739,-22.222 l 121.249,121.249 c -47.836,40.959 -108.391,67.286 -174.988,72.416 z m 0,-438.036 V 597.186 c 66.597,5.13 127.152,31.458 174.988,72.417 l -121.249,121.249 c -15.785,-11.035 -34.02,-18.731 -53.739,-22.223 z m 208.573,332.034 -121.249,-121.248 c 11.036,-15.786 18.73,-34.021 22.221,-53.74 h 171.444 c -5.13,66.598 -31.456,127.152 -72.416,174.988 z M 1454.2,878.177 c -3.491,-19.72 -11.185,-37.955 -22.221,-53.74 l 121.249,-121.248 c 40.96,47.836 67.286,108.39 72.417,174.988 H 1454.2 Z"
   id="path26174"
   sodipodi:nodetypes="cccccssscccccccccccsccsscccccccccccccccccccccccccccccccccccccccccccccccscccc" />
</svg>
