<?xml version="1.0" encoding="UTF-8" standalone="no"?>
<!-- Created with Inkscape (http://www.inkscape.org/) -->

<svg
   width="210mm"
   height="297mm"
   viewBox="0 0 210 297"
   version="1.1"
   id="svg6730"
   inkscape:version="1.2 (dc2aedaf03, 2022-05-15)"
   sodipodi:docname="Crest.svg"
   xmlns:inkscape="http://www.inkscape.org/namespaces/inkscape"
   xmlns:sodipodi="http://sodipodi.sourceforge.net/DTD/sodipodi-0.dtd"
   xmlns="http://www.w3.org/2000/svg"
   xmlns:svg="http://www.w3.org/2000/svg">
  <sodipodi:namedview
     id="namedview6732"
     pagecolor="#ffffff"
     bordercolor="#000000"
     borderopacity="0.25"
     inkscape:showpageshadow="2"
     inkscape:pageopacity="0.0"
     inkscape:pagecheckerboard="0"
     inkscape:deskcolor="#d1d1d1"
     inkscape:document-units="mm"
     showgrid="true"
     inkscape:zoom="0.914906"
     inkscape:cx="521.36503"
     inkscape:cy="660.17711"
     inkscape:window-width="1280"
     inkscape:window-height="1380"
     inkscape:window-x="998"
     inkscape:window-y="0"
     inkscape:window-maximized="0"
     inkscape:current-layer="layer1">
    <sodipodi:guide
       position="111.125,254.66667"
       orientation="0,793.70079"
       id="guide11945"
       inkscape:locked="false" />
    <sodipodi:guide
       position="210,297"
       orientation="1122.5197,0"
       id="guide11947"
       inkscape:locked="false" />
    <sodipodi:guide
       position="210,0"
       orientation="0,-793.70079"
       id="guide11949"
       inkscape:locked="false" />
    <sodipodi:guide
       position="0,0"
       orientation="-1122.5197,0"
       id="guide11951"
       inkscape:locked="false" />
    <inkscape:grid
       type="xygrid"
       id="grid11953" />
  </sodipodi:namedview>
  <defs
     id="defs6727">
    <inkscape:path-effect
       effect="copy_rotate"
       starting_point="24.154252,76.612137"
       origin="2.987585,44.862137"
       id="path-effect21883"
       is_visible="true"
       lpeversion="1.2"
       lpesatellites=""
       method="normal"
       num_copies="6"
       starting_angle="-56.309932"
       rotation_angle="60"
       gap="-0.01"
       copies_to_360="true"
       mirror_copies="false"
       split_items="false"
       link_styles="false" />
    <inkscape:path-effect
       effect="copy_rotate"
       starting_point="24.154252,76.612137"
       origin="2.987585,44.862137"
       id="path-effect21873"
       is_visible="true"
       lpeversion="1.2"
       lpesatellites=""
       method="normal"
       num_copies="6"
       starting_angle="-56.309932"
       rotation_angle="60"
       gap="-0.01"
       copies_to_360="true"
       mirror_copies="false"
       split_items="false"
       link_styles="false" />
    <inkscape:path-effect
       effect="copy_rotate"
       starting_point="24.154252,76.612137"
       origin="2.987585,44.862137"
       id="path-effect21863"
       is_visible="true"
       lpeversion="1.2"
       lpesatellites=""
       method="normal"
       num_copies="6"
       starting_angle="-56.309932"
       rotation_angle="60"
       gap="-0.01"
       copies_to_360="true"
       mirror_copies="false"
       split_items="false"
       link_styles="false" />
    <inkscape:path-effect
       effect="copy_rotate"
       starting_point="24.154252,76.612137"
       origin="2.987585,44.862137"
       id="path-effect21853"
       is_visible="true"
       lpeversion="1.2"
       lpesatellites=""
       method="normal"
       num_copies="6"
       starting_angle="-56.309932"
       rotation_angle="60"
       gap="-0.01"
       copies_to_360="true"
       mirror_copies="false"
       split_items="false"
       link_styles="false" />
    <inkscape:path-effect
       effect="copy_rotate"
       starting_point="24.154252,76.612137"
       origin="2.987585,44.862137"
       id="path-effect21783"
       is_visible="true"
       lpeversion="1.2"
       lpesatellites=""
       method="normal"
       num_copies="6"
       starting_angle="-56.309932"
       rotation_angle="60"
       gap="-0.01"
       copies_to_360="true"
       mirror_copies="false"
       split_items="false"
       link_styles="false" />
    <clipPath
       clipPathUnits="userSpaceOnUse"
       id="clipPath20195">
      <rect
         style="fill:#00ff00;fill-opacity:0.617117;stroke:none;stroke-width:0.999998;stroke-linecap:round;stroke-linejoin:round;stroke-opacity:1"
         id="rect20197"
         width="174.625"
         height="55.5625"
         x="21.166666"
         y="82.020836" />
    </clipPath>
  </defs>
  <g
     inkscape:label="Layer 1"
     inkscape:groupmode="layer"
     id="layer1">
    <g
       id="g14517"
       transform="matrix(1.0082607,0,0,1.0082223,79.589559,-0.71791472)"
       style="fill:#000000;stroke:#000000;stroke-width:0.991821;stroke-opacity:1">
      <path
         style="fill:#000000;stroke:#000000;stroke-width:0.991821;stroke-linecap:round;stroke-linejoin:round;stroke-opacity:1"
         d="M 108.47917,42.333331 H 70.114583 V 132.29167 C 92.317892,121.21834 107.99497,99.332308 108.47917,42.333331 Z"
         id="path14513"
         sodipodi:nodetypes="cccc" />
      <path
         style="fill:#000000;stroke:#000000;stroke-width:0.991821;stroke-linecap:round;stroke-linejoin:round;stroke-opacity:1"
         d="M 31.750044,42.333328 H 70.114583 V 132.29167 C 47.911322,121.21834 32.234244,99.332305 31.750044,42.333328 Z"
         id="path14515"
         sodipodi:nodetypes="cccc" />
    </g>
    <g
       id="g26121"
       transform="translate(0.13230673,-2.8758274e-5)">
      <g
         id="g20931"
         transform="matrix(-1,0,0,1,300.30211,0)"
         style="stroke:none">
        <g
           id="g17437"
           style="stroke:none">
          <path
             style="fill:#0f3a74;fill-opacity:1;stroke:none;stroke-width:1;stroke-linecap:round;stroke-linejoin:round"
             d="m 188.51563,42.333331 h -38.36459 v 89.958339 c 22.20331,-11.07333 37.88039,-32.959362 38.36459,-89.958339 z"
             id="path16705"
             sodipodi:nodetypes="cccc" />
          <path
             style="fill:#ffcf00;fill-opacity:1;stroke:none;stroke-width:1;stroke-linecap:round;stroke-linejoin:round;stroke-opacity:1"
             d="m 111.7865,42.333328 h 38.36454 V 132.29167 C 127.94778,121.21834 112.2707,99.332305 111.7865,42.333328 Z"
             id="path16707"
             sodipodi:nodetypes="cccc" />
        </g>
        <g
           id="g17441"
           clip-path="url(#clipPath20195)"
           transform="matrix(-1,0,0,1,220.26565,1.6399473e-5)"
           style="stroke:none">
          <path
             style="fill:#0f3a74;fill-opacity:1;stroke:none;stroke-width:1;stroke-linecap:round;stroke-linejoin:round"
             d="M 108.47917,42.333331 H 70.114583 V 132.29167 C 92.317892,121.21834 107.99497,99.332308 108.47917,42.333331 Z"
             id="path10122"
             sodipodi:nodetypes="cccc" />
          <path
             style="fill:#ffcf00;fill-opacity:1;stroke:none;stroke-width:1;stroke-linecap:round;stroke-linejoin:round;stroke-opacity:1"
             d="M 31.750044,42.333328 H 70.114583 V 132.29167 C 47.911322,121.21834 32.234244,99.332305 31.750044,42.333328 Z"
             id="path13770"
             sodipodi:nodetypes="cccc" />
        </g>
      </g>
      <g
         id="g22747"
         transform="translate(-1.0583333)">
        <g
           id="g21843"
           transform="matrix(0.70005167,0,0,0.70005167,89.198647,3.7972876)"
           style="fill:#ffffff;fill-opacity:1;stroke:none;stroke-width:1.42847">
          <path
             style="fill:#ffffff;fill-opacity:1;stroke:none;stroke-width:5.92918;stroke-linecap:round;stroke-linejoin:round;stroke-dasharray:none;stroke-opacity:1"
             d="m 13.707975,56.383851 c 0.07164,2.628745 0.481385,6.649477 -2.201468,11.007333 6.705722,12.755293 15.378485,24.684409 16.877909,39.626396 -2.698132,14.39739 -11.728707,24.5021 -22.0146634,33.75582 -3.7668342,1.41481 -8.3405462,0.72469 -13.2087964,-0.73383 -12.6868892,-9.22181 -24.2172942,-19.06568 -21.2808452,-36.6911 5.439022,-17.637278 15.844772,-26.899821 30.4536189,-33.021996 2.2436302,-3.012487 4.9310054,-6.220407 5.8705765,-10.273511 1.69042,-1.825781 3.7818496,-3.589716 5.5036686,-3.669112 z m 4.617902,-15.044987 c 2.31238,1.252331 5.999309,2.907847 8.431896,7.410194 14.399268,0.57032 29.066568,-0.975955 42.756419,5.196499 11.119437,9.535344 15.355091,22.408411 18.226065,35.943167 -0.658154,3.96958 -3.542671,7.585471 -7.239908,11.072246 -14.329767,6.37626 -28.620011,11.43995 -42.415851,0.0842 C 25.529678,87.516196 22.710956,73.87328 24.71342,58.16056 23.226345,54.711276 21.791893,50.779981 18.751587,47.939737 18.015624,45.562899 17.533726,42.869701 18.325877,41.338864 Z M 7.6054875,29.81715 C 9.8462273,28.440735 13.123411,26.075519 18.238852,26.220011 25.932397,14.035039 31.926933,0.55964759 44.117362,-8.2098848 c 13.817567,-4.8620422 27.083797,-2.0936932 40.240727,2.1873486 3.10868,2.5547681 4.797875,6.86077855 5.968889,11.8060649 C 88.6841,21.381602 85.924261,36.289161 69.191972,42.558833 51.19813,46.667141 37.973658,42.286768 25.367275,32.696224 21.63657,32.259426 17.514742,31.536051 13.534866,32.748911 11.108483,32.197855 8.5351559,31.268591 7.6054875,29.81715 Z M -7.7328046,33.340423 C -7.804445,30.711678 -8.2141904,26.690946 -5.5313366,22.33309 -12.237059,9.5777974 -20.909822,-2.3513187 -22.409246,-17.293305 c 2.698132,-14.397386 11.728707,-24.502104 22.01466336,-33.755818 3.76683424,-1.414812 8.34054624,-0.724693 13.20879664,0.733823 12.686889,9.22181 24.217294,19.06568 21.280845,36.691104 C 28.656037,4.0130824 18.250287,13.275625 3.6414401,19.3978 c -2.2436302,3.012487 -4.9310054,6.220407 -5.8705765,10.273511 -1.69042,1.825781 -3.7818491,3.589716 -5.5036682,3.669112 z M -12.350707,48.38541 c -2.31238,-1.252331 -5.999309,-2.907847 -8.431896,-7.410194 -14.399268,-0.57032 -29.066568,0.975955 -42.756419,-5.196499 -11.119437,-9.535344 -15.355091,-22.408411 -18.226065,-35.94316705 0.658154,-3.96958015 3.542671,-7.58547115 7.239908,-11.07224195 14.329767,-6.376263 28.620011,-11.439952 42.415851,-0.0842 12.55482,13.52897 15.373542,27.171886 13.371078,42.884606 1.487075,3.449284 2.921527,7.380579 5.961833,10.220823 0.735963,2.376838 1.217861,5.070036 0.42571,6.600873 z m 10.7203895,11.521714 c -2.2407398,1.376415 -5.517923,3.741631 -10.6333645,3.597139 -7.693545,12.184972 -13.688081,25.660363 -25.87851,34.429896 -13.817567,4.862041 -27.083797,2.093691 -40.240727,-2.187349 -3.10868,-2.554768 -4.797875,-6.860778 -5.968889,-11.806065 1.642878,-15.598073 4.402717,-30.505632 21.135006,-36.775304 17.993842,-4.108308 31.218314,0.272065 43.824697,9.862609 3.730705,0.436798 7.852533,1.160173 11.832409,-0.05269 2.4263835,0.551056 4.9997101,1.48032 5.9293785,2.931761 z"
             id="path21727"
             sodipodi:nodetypes="ccccccccc"
             inkscape:path-effect="#path-effect21783"
             inkscape:original-d="m 18.520833,42.333331 c 2.226987,1.398557 5.799724,3.287929 7.9375,7.937502 14.33271,1.495865 29.069118,0.896773 42.333333,7.9375 10.482695,10.231214 13.881066,23.350196 15.875,37.041666 -0.912269,3.918992 -4.023522,7.341741 -7.9375,10.583331 -14.71043,5.44079 -29.296943,9.57427 -42.333333,-2.64583 C 22.737757,88.878559 20.802928,75.082517 23.8125,59.53125 22.550502,55.99341 21.372039,51.977945 18.520833,48.947917 c -0.581466,-2.419276 -0.889032,-5.137905 0,-6.614586 z"
             class="UnoptimicedTransforms"
             transform="matrix(0.0722765,0,0,0.0722765,47.098383,63.245118)" />
          <circle
             style="fill:#ffffff;fill-opacity:1;stroke:none;stroke-width:0.42854;stroke-linecap:round;stroke-linejoin:round;stroke-dasharray:none;stroke-opacity:1"
             id="path21839"
             cx="47.314316"
             cy="66.487595"
             r="0.9811554" />
        </g>
        <g
           id="g21849"
           transform="matrix(0.70005167,0,0,0.70005167,110.16549,3.7972876)"
           style="fill:#ffffff;fill-opacity:1;stroke:none;stroke-width:1.42847">
          <path
             style="fill:#ffffff;fill-opacity:1;stroke:none;stroke-width:5.92918;stroke-linecap:round;stroke-linejoin:round;stroke-dasharray:none;stroke-opacity:1"
             d="m 13.707975,56.383851 c 0.07164,2.628745 0.481385,6.649477 -2.201468,11.007333 6.705722,12.755293 15.378485,24.684409 16.877909,39.626396 -2.698132,14.39739 -11.728707,24.5021 -22.0146634,33.75582 -3.7668342,1.41481 -8.3405462,0.72469 -13.2087964,-0.73383 -12.6868892,-9.22181 -24.2172942,-19.06568 -21.2808452,-36.6911 5.439022,-17.637278 15.844772,-26.899821 30.4536189,-33.021996 2.2436302,-3.012487 4.9310054,-6.220407 5.8705765,-10.273511 1.69042,-1.825781 3.7818496,-3.589716 5.5036686,-3.669112 z m 4.617902,-15.044987 c 2.31238,1.252331 5.999309,2.907847 8.431896,7.410194 14.399268,0.57032 29.066568,-0.975955 42.756419,5.196499 11.119437,9.535344 15.355091,22.408411 18.226065,35.943167 -0.658154,3.96958 -3.542671,7.585471 -7.239908,11.072246 -14.329767,6.37626 -28.620011,11.43995 -42.415851,0.0842 C 25.529678,87.516196 22.710956,73.87328 24.71342,58.16056 23.226345,54.711276 21.791893,50.779981 18.751587,47.939737 18.015624,45.562899 17.533726,42.869701 18.325877,41.338864 Z M 7.6054875,29.81715 C 9.8462273,28.440735 13.123411,26.075519 18.238852,26.220011 25.932397,14.035039 31.926933,0.55964759 44.117362,-8.2098848 c 13.817567,-4.8620422 27.083797,-2.0936932 40.240727,2.1873486 3.10868,2.5547681 4.797875,6.86077855 5.968889,11.8060649 C 88.6841,21.381602 85.924261,36.289161 69.191972,42.558833 51.19813,46.667141 37.973658,42.286768 25.367275,32.696224 21.63657,32.259426 17.514742,31.536051 13.534866,32.748911 11.108483,32.197855 8.5351559,31.268591 7.6054875,29.81715 Z M -7.7328046,33.340423 C -7.804445,30.711678 -8.2141904,26.690946 -5.5313366,22.33309 -12.237059,9.5777974 -20.909822,-2.3513187 -22.409246,-17.293305 c 2.698132,-14.397386 11.728707,-24.502104 22.01466336,-33.755818 3.76683424,-1.414812 8.34054624,-0.724693 13.20879664,0.733823 12.686889,9.22181 24.217294,19.06568 21.280845,36.691104 C 28.656037,4.0130824 18.250287,13.275625 3.6414401,19.3978 c -2.2436302,3.012487 -4.9310054,6.220407 -5.8705765,10.273511 -1.69042,1.825781 -3.7818491,3.589716 -5.5036682,3.669112 z M -12.350707,48.38541 c -2.31238,-1.252331 -5.999309,-2.907847 -8.431896,-7.410194 -14.399268,-0.57032 -29.066568,0.975955 -42.756419,-5.196499 -11.119437,-9.535344 -15.355091,-22.408411 -18.226065,-35.94316705 0.658154,-3.96958015 3.542671,-7.58547115 7.239908,-11.07224195 14.329767,-6.376263 28.620011,-11.439952 42.415851,-0.0842 12.55482,13.52897 15.373542,27.171886 13.371078,42.884606 1.487075,3.449284 2.921527,7.380579 5.961833,10.220823 0.735963,2.376838 1.217861,5.070036 0.42571,6.600873 z m 10.7203895,11.521714 c -2.2407398,1.376415 -5.517923,3.741631 -10.6333645,3.597139 -7.693545,12.184972 -13.688081,25.660363 -25.87851,34.429896 -13.817567,4.862041 -27.083797,2.093691 -40.240727,-2.187349 -3.10868,-2.554768 -4.797875,-6.860778 -5.968889,-11.806065 1.642878,-15.598073 4.402717,-30.505632 21.135006,-36.775304 17.993842,-4.108308 31.218314,0.272065 43.824697,9.862609 3.730705,0.436798 7.852533,1.160173 11.832409,-0.05269 2.4263835,0.551056 4.9997101,1.48032 5.9293785,2.931761 z"
             id="path21845"
             sodipodi:nodetypes="ccccccccc"
             inkscape:path-effect="#path-effect21853"
             inkscape:original-d="m 18.520833,42.333331 c 2.226987,1.398557 5.799724,3.287929 7.9375,7.937502 14.33271,1.495865 29.069118,0.896773 42.333333,7.9375 10.482695,10.231214 13.881066,23.350196 15.875,37.041666 -0.912269,3.918992 -4.023522,7.341741 -7.9375,10.583331 -14.71043,5.44079 -29.296943,9.57427 -42.333333,-2.64583 C 22.737757,88.878559 20.802928,75.082517 23.8125,59.53125 22.550502,55.99341 21.372039,51.977945 18.520833,48.947917 c -0.581466,-2.419276 -0.889032,-5.137905 0,-6.614586 z"
             class="UnoptimicedTransforms"
             transform="matrix(0.0722765,0,0,0.0722765,47.098383,63.245118)" />
          <circle
             style="fill:#ffffff;fill-opacity:1;stroke:none;stroke-width:0.42854;stroke-linecap:round;stroke-linejoin:round;stroke-dasharray:none;stroke-opacity:1"
             id="circle21847"
             cx="47.314316"
             cy="66.487595"
             r="0.9811554" />
        </g>
        <g
           id="g21859"
           transform="matrix(0.70005167,0,0,0.70005167,89.198647,22.949148)"
           style="fill:#ffffff;fill-opacity:1;stroke:none;stroke-width:1.42847">
          <path
             style="fill:#ffffff;fill-opacity:1;stroke:none;stroke-width:5.92918;stroke-linecap:round;stroke-linejoin:round;stroke-dasharray:none;stroke-opacity:1"
             d="m 13.707975,56.383851 c 0.07164,2.628745 0.481385,6.649477 -2.201468,11.007333 6.705722,12.755293 15.378485,24.684409 16.877909,39.626396 -2.698132,14.39739 -11.728707,24.5021 -22.0146634,33.75582 -3.7668342,1.41481 -8.3405462,0.72469 -13.2087964,-0.73383 -12.6868892,-9.22181 -24.2172942,-19.06568 -21.2808452,-36.6911 5.439022,-17.637278 15.844772,-26.899821 30.4536189,-33.021996 2.2436302,-3.012487 4.9310054,-6.220407 5.8705765,-10.273511 1.69042,-1.825781 3.7818496,-3.589716 5.5036686,-3.669112 z m 4.617902,-15.044987 c 2.31238,1.252331 5.999309,2.907847 8.431896,7.410194 14.399268,0.57032 29.066568,-0.975955 42.756419,5.196499 11.119437,9.535344 15.355091,22.408411 18.226065,35.943167 -0.658154,3.96958 -3.542671,7.585471 -7.239908,11.072246 -14.329767,6.37626 -28.620011,11.43995 -42.415851,0.0842 C 25.529678,87.516196 22.710956,73.87328 24.71342,58.16056 23.226345,54.711276 21.791893,50.779981 18.751587,47.939737 18.015624,45.562899 17.533726,42.869701 18.325877,41.338864 Z M 7.6054875,29.81715 C 9.8462273,28.440735 13.123411,26.075519 18.238852,26.220011 25.932397,14.035039 31.926933,0.55964759 44.117362,-8.2098848 c 13.817567,-4.8620422 27.083797,-2.0936932 40.240727,2.1873486 3.10868,2.5547681 4.797875,6.86077855 5.968889,11.8060649 C 88.6841,21.381602 85.924261,36.289161 69.191972,42.558833 51.19813,46.667141 37.973658,42.286768 25.367275,32.696224 21.63657,32.259426 17.514742,31.536051 13.534866,32.748911 11.108483,32.197855 8.5351559,31.268591 7.6054875,29.81715 Z M -7.7328046,33.340423 C -7.804445,30.711678 -8.2141904,26.690946 -5.5313366,22.33309 -12.237059,9.5777974 -20.909822,-2.3513187 -22.409246,-17.293305 c 2.698132,-14.397386 11.728707,-24.502104 22.01466336,-33.755818 3.76683424,-1.414812 8.34054624,-0.724693 13.20879664,0.733823 12.686889,9.22181 24.217294,19.06568 21.280845,36.691104 C 28.656037,4.0130824 18.250287,13.275625 3.6414401,19.3978 c -2.2436302,3.012487 -4.9310054,6.220407 -5.8705765,10.273511 -1.69042,1.825781 -3.7818491,3.589716 -5.5036682,3.669112 z M -12.350707,48.38541 c -2.31238,-1.252331 -5.999309,-2.907847 -8.431896,-7.410194 -14.399268,-0.57032 -29.066568,0.975955 -42.756419,-5.196499 -11.119437,-9.535344 -15.355091,-22.408411 -18.226065,-35.94316705 0.658154,-3.96958015 3.542671,-7.58547115 7.239908,-11.07224195 14.329767,-6.376263 28.620011,-11.439952 42.415851,-0.0842 12.55482,13.52897 15.373542,27.171886 13.371078,42.884606 1.487075,3.449284 2.921527,7.380579 5.961833,10.220823 0.735963,2.376838 1.217861,5.070036 0.42571,6.600873 z m 10.7203895,11.521714 c -2.2407398,1.376415 -5.517923,3.741631 -10.6333645,3.597139 -7.693545,12.184972 -13.688081,25.660363 -25.87851,34.429896 -13.817567,4.862041 -27.083797,2.093691 -40.240727,-2.187349 -3.10868,-2.554768 -4.797875,-6.860778 -5.968889,-11.806065 1.642878,-15.598073 4.402717,-30.505632 21.135006,-36.775304 17.993842,-4.108308 31.218314,0.272065 43.824697,9.862609 3.730705,0.436798 7.852533,1.160173 11.832409,-0.05269 2.4263835,0.551056 4.9997101,1.48032 5.9293785,2.931761 z"
             id="path21855"
             sodipodi:nodetypes="ccccccccc"
             inkscape:path-effect="#path-effect21863"
             inkscape:original-d="m 18.520833,42.333331 c 2.226987,1.398557 5.799724,3.287929 7.9375,7.937502 14.33271,1.495865 29.069118,0.896773 42.333333,7.9375 10.482695,10.231214 13.881066,23.350196 15.875,37.041666 -0.912269,3.918992 -4.023522,7.341741 -7.9375,10.583331 -14.71043,5.44079 -29.296943,9.57427 -42.333333,-2.64583 C 22.737757,88.878559 20.802928,75.082517 23.8125,59.53125 22.550502,55.99341 21.372039,51.977945 18.520833,48.947917 c -0.581466,-2.419276 -0.889032,-5.137905 0,-6.614586 z"
             class="UnoptimicedTransforms"
             transform="matrix(0.0722765,0,0,0.0722765,47.098383,63.245118)" />
          <circle
             style="fill:#ffffff;fill-opacity:1;stroke:none;stroke-width:0.42854;stroke-linecap:round;stroke-linejoin:round;stroke-dasharray:none;stroke-opacity:1"
             id="circle21857"
             cx="47.314316"
             cy="66.487595"
             r="0.9811554" />
        </g>
        <g
           id="g21869"
           transform="matrix(0.70005167,0,0,0.70005167,110.16549,22.949148)"
           style="fill:#ffffff;fill-opacity:1;stroke:none;stroke-width:1.42847">
          <path
             style="fill:#ffffff;fill-opacity:1;stroke:none;stroke-width:5.92918;stroke-linecap:round;stroke-linejoin:round;stroke-dasharray:none;stroke-opacity:1"
             d="m 13.707975,56.383851 c 0.07164,2.628745 0.481385,6.649477 -2.201468,11.007333 6.705722,12.755293 15.378485,24.684409 16.877909,39.626396 -2.698132,14.39739 -11.728707,24.5021 -22.0146634,33.75582 -3.7668342,1.41481 -8.3405462,0.72469 -13.2087964,-0.73383 -12.6868892,-9.22181 -24.2172942,-19.06568 -21.2808452,-36.6911 5.439022,-17.637278 15.844772,-26.899821 30.4536189,-33.021996 2.2436302,-3.012487 4.9310054,-6.220407 5.8705765,-10.273511 1.69042,-1.825781 3.7818496,-3.589716 5.5036686,-3.669112 z m 4.617902,-15.044987 c 2.31238,1.252331 5.999309,2.907847 8.431896,7.410194 14.399268,0.57032 29.066568,-0.975955 42.756419,5.196499 11.119437,9.535344 15.355091,22.408411 18.226065,35.943167 -0.658154,3.96958 -3.542671,7.585471 -7.239908,11.072246 -14.329767,6.37626 -28.620011,11.43995 -42.415851,0.0842 C 25.529678,87.516196 22.710956,73.87328 24.71342,58.16056 23.226345,54.711276 21.791893,50.779981 18.751587,47.939737 18.015624,45.562899 17.533726,42.869701 18.325877,41.338864 Z M 7.6054875,29.81715 C 9.8462273,28.440735 13.123411,26.075519 18.238852,26.220011 25.932397,14.035039 31.926933,0.55964759 44.117362,-8.2098848 c 13.817567,-4.8620422 27.083797,-2.0936932 40.240727,2.1873486 3.10868,2.5547681 4.797875,6.86077855 5.968889,11.8060649 C 88.6841,21.381602 85.924261,36.289161 69.191972,42.558833 51.19813,46.667141 37.973658,42.286768 25.367275,32.696224 21.63657,32.259426 17.514742,31.536051 13.534866,32.748911 11.108483,32.197855 8.5351559,31.268591 7.6054875,29.81715 Z M -7.7328046,33.340423 C -7.804445,30.711678 -8.2141904,26.690946 -5.5313366,22.33309 -12.237059,9.5777974 -20.909822,-2.3513187 -22.409246,-17.293305 c 2.698132,-14.397386 11.728707,-24.502104 22.01466336,-33.755818 3.76683424,-1.414812 8.34054624,-0.724693 13.20879664,0.733823 12.686889,9.22181 24.217294,19.06568 21.280845,36.691104 C 28.656037,4.0130824 18.250287,13.275625 3.6414401,19.3978 c -2.2436302,3.012487 -4.9310054,6.220407 -5.8705765,10.273511 -1.69042,1.825781 -3.7818491,3.589716 -5.5036682,3.669112 z M -12.350707,48.38541 c -2.31238,-1.252331 -5.999309,-2.907847 -8.431896,-7.410194 -14.399268,-0.57032 -29.066568,0.975955 -42.756419,-5.196499 -11.119437,-9.535344 -15.355091,-22.408411 -18.226065,-35.94316705 0.658154,-3.96958015 3.542671,-7.58547115 7.239908,-11.07224195 14.329767,-6.376263 28.620011,-11.439952 42.415851,-0.0842 12.55482,13.52897 15.373542,27.171886 13.371078,42.884606 1.487075,3.449284 2.921527,7.380579 5.961833,10.220823 0.735963,2.376838 1.217861,5.070036 0.42571,6.600873 z m 10.7203895,11.521714 c -2.2407398,1.376415 -5.517923,3.741631 -10.6333645,3.597139 -7.693545,12.184972 -13.688081,25.660363 -25.87851,34.429896 -13.817567,4.862041 -27.083797,2.093691 -40.240727,-2.187349 -3.10868,-2.554768 -4.797875,-6.860778 -5.968889,-11.806065 1.642878,-15.598073 4.402717,-30.505632 21.135006,-36.775304 17.993842,-4.108308 31.218314,0.272065 43.824697,9.862609 3.730705,0.436798 7.852533,1.160173 11.832409,-0.05269 2.4263835,0.551056 4.9997101,1.48032 5.9293785,2.931761 z"
             id="path21865"
             sodipodi:nodetypes="ccccccccc"
             inkscape:path-effect="#path-effect21873"
             inkscape:original-d="m 18.520833,42.333331 c 2.226987,1.398557 5.799724,3.287929 7.9375,7.937502 14.33271,1.495865 29.069118,0.896773 42.333333,7.9375 10.482695,10.231214 13.881066,23.350196 15.875,37.041666 -0.912269,3.918992 -4.023522,7.341741 -7.9375,10.583331 -14.71043,5.44079 -29.296943,9.57427 -42.333333,-2.64583 C 22.737757,88.878559 20.802928,75.082517 23.8125,59.53125 22.550502,55.99341 21.372039,51.977945 18.520833,48.947917 c -0.581466,-2.419276 -0.889032,-5.137905 0,-6.614586 z"
             class="UnoptimicedTransforms"
             transform="matrix(0.0722765,0,0,0.0722765,47.098383,63.245118)" />
          <circle
             style="fill:#ffffff;fill-opacity:1;stroke:none;stroke-width:0.42854;stroke-linecap:round;stroke-linejoin:round;stroke-dasharray:none;stroke-opacity:1"
             id="circle21867"
             cx="47.314316"
             cy="66.487595"
             r="0.9811554" />
        </g>
        <g
           id="g21879"
           transform="matrix(0.70005167,0,0,0.70005167,99.68207,13.373218)"
           style="fill:#ffffff;fill-opacity:1;stroke:none;stroke-width:1.42847">
          <path
             style="fill:#ffffff;fill-opacity:1;stroke:none;stroke-width:5.92918;stroke-linecap:round;stroke-linejoin:round;stroke-dasharray:none;stroke-opacity:1"
             d="m 13.707975,56.383851 c 0.07164,2.628745 0.481385,6.649477 -2.201468,11.007333 6.705722,12.755293 15.378485,24.684409 16.877909,39.626396 -2.698132,14.39739 -11.728707,24.5021 -22.0146634,33.75582 -3.7668342,1.41481 -8.3405462,0.72469 -13.2087964,-0.73383 -12.6868892,-9.22181 -24.2172942,-19.06568 -21.2808452,-36.6911 5.439022,-17.637278 15.844772,-26.899821 30.4536189,-33.021996 2.2436302,-3.012487 4.9310054,-6.220407 5.8705765,-10.273511 1.69042,-1.825781 3.7818496,-3.589716 5.5036686,-3.669112 z m 4.617902,-15.044987 c 2.31238,1.252331 5.999309,2.907847 8.431896,7.410194 14.399268,0.57032 29.066568,-0.975955 42.756419,5.196499 11.119437,9.535344 15.355091,22.408411 18.226065,35.943167 -0.658154,3.96958 -3.542671,7.585471 -7.239908,11.072246 -14.329767,6.37626 -28.620011,11.43995 -42.415851,0.0842 C 25.529678,87.516196 22.710956,73.87328 24.71342,58.16056 23.226345,54.711276 21.791893,50.779981 18.751587,47.939737 18.015624,45.562899 17.533726,42.869701 18.325877,41.338864 Z M 7.6054875,29.81715 C 9.8462273,28.440735 13.123411,26.075519 18.238852,26.220011 25.932397,14.035039 31.926933,0.55964759 44.117362,-8.2098848 c 13.817567,-4.8620422 27.083797,-2.0936932 40.240727,2.1873486 3.10868,2.5547681 4.797875,6.86077855 5.968889,11.8060649 C 88.6841,21.381602 85.924261,36.289161 69.191972,42.558833 51.19813,46.667141 37.973658,42.286768 25.367275,32.696224 21.63657,32.259426 17.514742,31.536051 13.534866,32.748911 11.108483,32.197855 8.5351559,31.268591 7.6054875,29.81715 Z M -7.7328046,33.340423 C -7.804445,30.711678 -8.2141904,26.690946 -5.5313366,22.33309 -12.237059,9.5777974 -20.909822,-2.3513187 -22.409246,-17.293305 c 2.698132,-14.397386 11.728707,-24.502104 22.01466336,-33.755818 3.76683424,-1.414812 8.34054624,-0.724693 13.20879664,0.733823 12.686889,9.22181 24.217294,19.06568 21.280845,36.691104 C 28.656037,4.0130824 18.250287,13.275625 3.6414401,19.3978 c -2.2436302,3.012487 -4.9310054,6.220407 -5.8705765,10.273511 -1.69042,1.825781 -3.7818491,3.589716 -5.5036682,3.669112 z M -12.350707,48.38541 c -2.31238,-1.252331 -5.999309,-2.907847 -8.431896,-7.410194 -14.399268,-0.57032 -29.066568,0.975955 -42.756419,-5.196499 -11.119437,-9.535344 -15.355091,-22.408411 -18.226065,-35.94316705 0.658154,-3.96958015 3.542671,-7.58547115 7.239908,-11.07224195 14.329767,-6.376263 28.620011,-11.439952 42.415851,-0.0842 12.55482,13.52897 15.373542,27.171886 13.371078,42.884606 1.487075,3.449284 2.921527,7.380579 5.961833,10.220823 0.735963,2.376838 1.217861,5.070036 0.42571,6.600873 z m 10.7203895,11.521714 c -2.2407398,1.376415 -5.517923,3.741631 -10.6333645,3.597139 -7.693545,12.184972 -13.688081,25.660363 -25.87851,34.429896 -13.817567,4.862041 -27.083797,2.093691 -40.240727,-2.187349 -3.10868,-2.554768 -4.797875,-6.860778 -5.968889,-11.806065 1.642878,-15.598073 4.402717,-30.505632 21.135006,-36.775304 17.993842,-4.108308 31.218314,0.272065 43.824697,9.862609 3.730705,0.436798 7.852533,1.160173 11.832409,-0.05269 2.4263835,0.551056 4.9997101,1.48032 5.9293785,2.931761 z"
             id="path21875"
             sodipodi:nodetypes="ccccccccc"
             inkscape:path-effect="#path-effect21883"
             inkscape:original-d="m 18.520833,42.333331 c 2.226987,1.398557 5.799724,3.287929 7.9375,7.937502 14.33271,1.495865 29.069118,0.896773 42.333333,7.9375 10.482695,10.231214 13.881066,23.350196 15.875,37.041666 -0.912269,3.918992 -4.023522,7.341741 -7.9375,10.583331 -14.71043,5.44079 -29.296943,9.57427 -42.333333,-2.64583 C 22.737757,88.878559 20.802928,75.082517 23.8125,59.53125 22.550502,55.99341 21.372039,51.977945 18.520833,48.947917 c -0.581466,-2.419276 -0.889032,-5.137905 0,-6.614586 z"
             class="UnoptimicedTransforms"
             transform="matrix(0.0722765,0,0,0.0722765,47.098383,63.245118)" />
          <circle
             style="fill:#ffffff;fill-opacity:1;stroke:none;stroke-width:0.42854;stroke-linecap:round;stroke-linejoin:round;stroke-dasharray:none;stroke-opacity:1"
             id="circle21877"
             cx="47.314316"
             cy="66.487595"
             r="0.9811554" />
        </g>
      </g>
      <path
         id="path6806"
         style="display:inline;fill:#000000;fill-rule:evenodd;stroke:none;stroke-width:0.139289px;stroke-linecap:butt;stroke-linejoin:miter;stroke-opacity:1"
         d="m 169.11477,44.501158 c -0.18309,-0.03911 -0.12204,0.164325 -0.0126,0.202327 0.40543,0.332745 1.14996,0.295058 1.49119,0.684638 0.0862,0.14725 -0.21616,0.23595 -0.32282,0.108862 -0.44464,-0.249122 -0.97492,-0.450099 -1.27404,-0.815548 -0.0956,-0.08513 -0.22923,0.06558 -0.16807,0.141596 0.0468,0.07601 0.1659,0.09957 0.22914,0.17029 0.38781,0.264052 0.98912,0.358215 1.24538,0.720695 0.0106,0.25087 0.0158,0.54765 -0.26043,0.728877 -0.25475,0.01974 -0.5574,-0.0105 -0.74924,0.140345 -0.32278,0.0408 -0.61606,-0.144222 -0.94149,-0.08501 -0.55283,0.0077 -1.08292,0.138656 -1.60548,0.259599 -0.0611,0.128082 0.0186,0.269828 0.0629,0.388707 0.10061,0.02701 0.29559,-0.07371 0.31101,0.05492 0.0377,0.16515 -0.0736,0.406696 0.18566,0.496041 0.42936,0.115561 0.8926,-0.168362 1.30516,0.01707 0.13181,0.142861 -0.11735,0.263678 -0.20066,0.377749 -0.33298,0.330432 -0.80123,0.589369 -1.03012,0.974192 -0.46554,0.08925 -1.02359,-0.02962 -1.41344,0.228955 -0.0971,0.150534 0.11688,0.280786 0.15658,0.419213 0.14096,0.112352 0.36508,-0.0078 0.5158,0.02011 0.0243,0.09937 -0.12724,0.165627 -0.13354,0.26473 -0.23141,0.439771 -0.11134,1.003729 0.41968,1.297027 0.26043,0.170678 0.56405,0.298782 0.85755,0.434885 -0.13449,0.206817 -0.49602,0.162452 -0.73258,0.256687 -0.44704,0.08642 -0.91476,-0.01359 -1.35499,-0.03051 -0.0957,0.08129 0.0923,0.164783 0.11499,0.20815 -0.0828,0.03953 -0.0174,0.154042 0.0786,0.139226 -0.0838,0.146184 0.0811,0.28558 0.13355,0.421431 0.0312,0.07182 0.18219,0.131919 0.22032,0.146019 -0.15984,0.02899 -0.0653,0.211019 0.0811,0.16627 -0.13765,0.06259 -0.001,0.214795 0.13418,0.189431 -0.17819,0.06749 0.001,0.236112 0.15499,0.217442 0.20563,0.01413 0.38238,-0.09913 0.58755,-0.08681 -0.062,0.100926 0.0335,0.243285 0.19843,0.200522 0.19052,-0.06602 0.36563,-0.155272 0.56002,-0.218135 0.44219,-0.167335 0.89517,-0.324042 1.37428,-0.424484 -0.11905,0.321612 0.19149,0.677839 -0.0806,0.977382 -0.56614,1.114339 -1.13591,2.227573 -1.70498,3.341097 -1.15258,2.419599 -1.44138,3.058162 -1.97064,4.018803 0.0644,0.146165 -0.11547,0.272482 -0.14775,0.41228 -1.60011,3.210646 -3.21209,6.418124 -4.80501,9.630706 -0.31287,0.679626 -0.68136,1.3461 -1.15058,1.975288 -0.10863,0.150185 -0.25942,0.352561 -0.0582,0.500061 0.27167,0.199878 0.67943,0.306145 1.06082,0.277627 0.18159,-0.01707 0.37773,-0.08866 0.38877,-0.240739 0.0661,-0.239972 0.0881,-0.486604 0.20609,-0.717644 0.35079,-0.909619 0.90201,-1.767747 1.28116,-2.670464 1.34137,-2.791799 2.74537,-5.566888 4.10916,-8.352677 0.66707,-1.260677 1.27469,-2.74822 2.09404,-4.37478 -0.1211,-0.170713 0.24006,-0.334162 0.27943,-0.499646 0.53512,-1.094776 1.06229,-2.191636 1.59929,-3.285907 0.2893,0.04567 0.44459,-0.193909 0.49857,-0.365131 0.33392,-0.45528 0.73348,-0.935511 0.66983,-1.475503 0.0611,-0.773949 0.12976,-1.603393 0.75485,-2.258322 0.47971,-0.475126 1.15905,-0.882642 1.33401,-1.489231 0.43409,-1.03708 0.16967,-2.154234 -0.31271,-3.154997 -0.11428,-0.220638 -0.21608,-0.486034 -0.50193,-0.614747 -0.3693,0.0029 -0.66134,0.206687 -1.01718,0.252944 -0.20041,0.05979 -0.39435,0.131148 -0.58062,0.212173 -0.12836,-0.114371 -0.32922,0.02624 -0.35093,0.134379 -0.10344,0.100665 -0.34747,0.146752 -0.44068,0.01414 -0.41042,-0.274184 -1.06799,-0.293595 -1.37314,-0.66259 z m 2.53797,1.043391 c 0,0 0.14017,0.0048 0.17201,0.0048 0.0318,0 -0.18492,0.108581 -0.18492,0.108581 z m 0.58646,0.07556 h 1.9e-4 l 0.0892,0.02358 v 0.09429 l -0.10203,0.207734 -0.10851,0.0048 0.006,-0.165169 z m -0.60555,0.127308 0.10815,0.019 c 0,0 -0.15943,0.184017 -0.18494,0.188737 z m 0.80975,0.132305 c 0.001,0.105407 0.001,0.210772 0.0191,0.31618 -0.0378,0.05667 -0.0735,0.123106 -0.12771,0.113308 l -0.0637,-0.05672 0.0318,-0.212313 c 0.0266,-0.0762 0.0853,-0.116331 0.14033,-0.160451 z m -0.29976,0.179306 -0.0956,0.254746 -0.0702,-0.184022 z m 0,0.339753 c 0.0649,0.01853 0.09,0.04135 0.0957,0.06615 0.0126,0.06815 0.009,0.133112 -0.0382,0.188738 l -0.0892,0.103867 -0.10827,-0.02358 c -0.043,-0.01888 -0.006,-0.24074 0.032,-0.24074 0.0497,-0.02145 0.074,-0.06173 0.10827,-0.09445 z m 0.34436,0.03773 c 0.039,0.08705 0.0766,0.173981 0.0575,0.254885 -0.0365,0.06333 -0.0805,0.108115 -0.13404,0.127438 l -0.0575,-0.207598 c 0.0186,-0.0582 0.0481,-0.116518 0.13403,-0.174734 z m -0.55478,0.03314 -0.0828,0.09901 -0.0191,-0.09429 z m -1.14776,0.325609 0.1468,0.01432 -0.35074,0.184021 z m 1.0331,0.03302 0.15296,0.05201 c -0.009,0.08024 -0.0719,0.16036 -0.1211,0.240602 z m 0.35112,0.03286 c 0.004,-2.28e-4 0.006,7.6e-5 0.006,2.95e-4 0.0484,0.01819 0.0954,0.03765 0.10203,0.09902 0.005,0.07933 -0.0364,0.142329 -0.0828,0.20302 -0.0199,0.06272 -0.09,0.106702 -0.15945,0.151014 l 0.006,-0.254885 c 0.009,-0.177508 0.10309,-0.197202 0.12803,-0.198444 z m -3.21452,0.02815 c -0.21777,0.124041 -0.32044,0.32549 -0.36986,0.520726 -0.0671,-0.195042 -0.78713,-0.234933 -1.33456,-0.280264 0.51616,-0.03681 1.00368,-0.04996 1.70442,-0.240462 z m 2.07257,0.04756 c -0.0564,0.08033 -0.0611,0.166178 -0.1722,0.240739 l -0.29956,0.06144 c 0.14695,-0.116134 0.29187,-0.234923 0.47176,-0.302173 z m 1.47938,0.05186 c 0.0219,0.09882 0.0616,0.201085 0.0191,0.288027 -0.0666,-5.37e-4 -0.13308,-9.67e-4 -0.19129,-0.05671 0.0106,-0.0771 0.0514,-0.154225 0.17216,-0.231308 z m -1.49851,0.231308 c 0.0211,0.02359 0.009,0.212451 -0.0126,0.212451 -0.0235,0.04796 -0.0745,0.08578 -0.1658,0.108594 l -0.15944,-0.02372 c 0.0721,-0.136692 0.19854,-0.223 0.33799,-0.29732 z m 0.83545,0.09445 c 0.0662,0.009 0.1078,0.05429 0.14017,0.113307 -0.0434,0.06875 -0.0946,0.119599 -0.14648,0.169888 -0.0402,-0.08743 -0.0298,-0.18318 0.006,-0.283175 z m -0.80358,0.283176 c 0.0483,0.103732 0.0558,0.201458 0.0191,0.292603 l -0.16579,0.08501 -0.15926,-0.08973 c 0.0686,-0.09596 0.15326,-0.191921 0.30598,-0.28789 z m 2.24699,0.568706 c 0.0365,0.0016 0.0661,0.0417 0.0806,0.162947 -0.13939,0.263695 -0.2433,0.56689 -0.47196,0.73151 l -0.10828,-0.155731 c 0.004,-0.198303 0.0746,-0.402309 0.29323,-0.618353 0.0647,-0.01744 0.14553,-0.122776 0.20644,-0.120369 z m -0.80583,0.672573 0.07,0.188875 -0.0253,0.221881 c -0.18515,0.143558 -0.37518,0.295549 -0.6312,0.561495 l -0.45287,0.948677 c -0.0302,0.17624 -0.094,0.139262 -0.17199,0.01413 l -0.2106,-0.37276 c -0.0544,-0.404171 0.37131,-0.565451 0.759,-0.745793 0.12599,-0.195435 0.38897,-0.162379 0.34436,-0.641788 z m -2.47071,0.01763 c 0.0285,8.07e-4 0.0662,0.02065 0.1211,0.07529 0.0232,0.105991 0.0158,0.207282 -0.005,0.307027 -0.0857,-0.03338 -0.035,6.18e-4 -0.25705,-0.100123 l 0.0406,-0.200247 c 0.0311,-0.03178 0.0525,-0.08331 0.0999,-0.08196 z m 1.96053,0.293992 -0.1211,0.2596 c -0.44844,0.171483 -0.65979,0.342864 -0.82268,0.514344 l 0.10203,-0.377609 c 0.34244,-0.208471 0.56349,-0.267197 0.84164,-0.396335 z m -2.11005,0.125089 c 0.0629,-0.0042 0.13135,0.03898 0.20292,0.1101 l -0.009,0.163499 -0.13072,-0.0067 -0.0766,-0.07669 z"
         sodipodi:nodetypes="ccccccccccccccccccccccccccccccccccccccccccccccccccccccccccccccccscccccccccccccccccccccccccccccccccccccccccccccccccccccccccccccccccccccccccccccccccsccccsccccccccccsccccscccccccccccccc" />
    </g>
    <path
       d="m 143.97837,91.933007 c -0.008,-0.111337 -0.27537,-0.09344 -0.36776,-0.03076 l -1.21328,0.195682 -12.7515,0.506238 c -0.63843,0.04731 -1.16352,0.46581 -1.3833,1.027051 -0.0352,-0.0053 -0.0709,-0.009 -0.10753,-0.009 -0.39297,0 -0.71155,0.318567 -0.71155,0.711544 0,0.392966 0.31858,0.711533 0.71155,0.711533 0.0733,0 0.14393,-0.01115 0.21044,-0.0317 0.24451,0.42523 0.67506,0.726947 1.17103,0.798841 l -0.002,0.01665 -2.41779,3.545777 c -0.0831,0.1218 -0.2223,0.19307 -0.36966,0.18923 l -2.26534,-0.0591 c -0.14109,-0.004 -0.25267,0.11848 -0.23627,0.25864 l 0.20679,1.768067 c 0.014,0.12005 0.11798,0.20916 0.23877,0.20471 l 3.04571,-0.11248 c 0.18255,-0.007 0.35339,-0.0927 0.46591,-0.23662 0.37152,-0.47526 1.29817,-1.535927 2.16865,-1.535927 h 0.49392 l 2.8e-4,-0.001 c 0.67236,1.211177 1.96381,2.031257 3.4473,2.031257 2.17647,0 3.94084,-1.76437 3.94084,-3.940829 0,-1.129547 -0.47596,-2.147311 -1.23736,-2.865838 l 5.56904,-0.585478 1.2744,0.03896 c 0.10046,0.04866 0.26316,-0.171371 0.25506,-0.282703 z m -14.0732,7.175446 c -0.0881,-0.0134 -0.13973,-0.106324 -0.10474,-0.188225 l 0.32499,-0.760554 0.0903,0.996149 z m 2.01944,-0.981623 h 1.34344 c 0.0273,0.154526 0.0876,0.297416 0.17412,0.421111 l -0.95011,0.950102 c -0.32095,-0.37484 -0.52724,-0.849348 -0.56745,-1.371213 z m 0,-0.372194 c 0.0402,-0.521865 0.2465,-0.996364 0.56746,-1.371209 l 0.95011,0.950103 c -0.0865,0.123695 -0.14677,0.26659 -0.17412,0.421106 z m 2.20184,2.574034 c -0.52185,-0.0402 -0.99636,-0.2465 -1.3712,-0.567457 l 0.9501,-0.950101 c 0.1237,0.08647 0.26659,0.14677 0.4211,0.174131 z m 0,-3.432452 c -0.15451,0.02734 -0.2974,0.08766 -0.4211,0.174131 l -0.9501,-0.950114 c 0.37484,-0.320954 0.84935,-0.527255 1.3712,-0.567461 z m 0.37222,3.432452 v -1.343427 c 0.15452,-0.02734 0.29741,-0.08767 0.4211,-0.174131 l 0.95011,0.950111 c -0.37485,0.320957 -0.84936,0.527257 -1.37121,0.567447 z m 0,-3.432452 v -1.343434 c 0.52185,0.04021 0.99636,0.246503 1.37121,0.567461 l -0.95011,0.950109 c -0.12369,-0.08647 -0.26658,-0.146776 -0.4211,-0.174136 z m 1.63438,2.601825 -0.95011,-0.950102 c 0.0865,-0.1237 0.14677,-0.26659 0.17413,-0.421111 h 1.34344 c -0.0402,0.521865 -0.2465,0.996373 -0.56746,1.371213 z m -0.77598,-1.743407 c -0.0273,-0.154527 -0.0876,-0.297416 -0.17412,-0.421106 l 0.95011,-0.950103 c 0.32096,0.374845 0.52725,0.849344 0.56746,1.371209 z"
       id="path26174"
       sodipodi:nodetypes="cccccssscccccccccccsccsscccccccccccccccccccccccccccccccccccccccccccccccscccc"
       style="stroke-width:0.264583" />
  </g>
</svg>
