<?xml version="1.0" encoding="UTF-8" standalone="no"?>
<!-- Created with Inkscape (http://www.inkscape.org/) -->

<svg
   width="210mm"
   height="297mm"
   viewBox="0 0 744.09448819 1052.3622047"
   id="svg6224"
   version="1.1"
   inkscape:version="1.2 (dc2aedaf03, 2022-05-15)"
   sodipodi:docname="LacrosseStick.svg"
   xmlns:inkscape="http://www.inkscape.org/namespaces/inkscape"
   xmlns:sodipodi="http://sodipodi.sourceforge.net/DTD/sodipodi-0.dtd"
   xmlns="http://www.w3.org/2000/svg"
   xmlns:svg="http://www.w3.org/2000/svg"
   xmlns:rdf="http://www.w3.org/1999/02/22-rdf-syntax-ns#"
   xmlns:cc="http://creativecommons.org/ns#"
   xmlns:dc="http://purl.org/dc/elements/1.1/">
  <title
     id="title8930">Lacrosse Player</title>
  <defs
     id="defs6226" />
  <sodipodi:namedview
     id="base"
     pagecolor="#ffffff"
     bordercolor="#666666"
     borderopacity="1.0"
     inkscape:pageopacity="0.0"
     inkscape:pageshadow="2"
     inkscape:zoom="1.4"
     inkscape:cx="398.57143"
     inkscape:cy="286.07143"
     inkscape:document-units="px"
     inkscape:current-layer="layer6"
     showgrid="false"
     inkscape:window-width="2560"
     inkscape:window-height="1351"
     inkscape:window-x="-9"
     inkscape:window-y="-9"
     inkscape:window-maximized="1"
     inkscape:showpageshadow="2"
     inkscape:pagecheckerboard="0"
     inkscape:deskcolor="#d1d1d1" />
  <metadata
     id="metadata6229">
    <rdf:RDF>
      <cc:Work
         rdf:about="">
        <dc:format>image/svg+xml</dc:format>
        <dc:type
           rdf:resource="http://purl.org/dc/dcmitype/StillImage" />
        <dc:title>Lacrosse Player</dc:title>
        <cc:license
           rdf:resource="http://creativecommons.org/publicdomain/zero/1.0/" />
        <dc:date>2016-05-30</dc:date>
        <dc:creator>
          <cc:Agent>
            <dc:title />
          </cc:Agent>
        </dc:creator>
      </cc:Work>
      <cc:License
         rdf:about="http://creativecommons.org/publicdomain/zero/1.0/">
        <cc:permits
           rdf:resource="http://creativecommons.org/ns#Reproduction" />
        <cc:permits
           rdf:resource="http://creativecommons.org/ns#Distribution" />
        <cc:permits
           rdf:resource="http://creativecommons.org/ns#DerivativeWorks" />
      </cc:License>
    </rdf:RDF>
  </metadata>
  <g
     inkscape:groupmode="layer"
     id="layer6"
     inkscape:label="Layer 2"
     style="display:inline">
    <path
       id="path6806"
       style="opacity:1;fill:#000000;fill-rule:evenodd;stroke:#000000;stroke-width:0.493545px;stroke-linecap:butt;stroke-linejoin:miter;stroke-opacity:1"
       d="m 287.36755,157.00745 c -1.78933,-0.51638 -1.19324,2.16967 -0.11535,2.67151 3.9623,4.39355 11.23842,3.89594 14.57336,9.03991 0.84262,1.94434 -2.11239,3.11547 -3.1549,1.43738 -4.34545,-3.28938 -9.52783,-5.94309 -12.45118,-10.76843 -0.93481,-1.12399 -2.24031,0.866 -1.64245,1.8695 0.45756,1.00372 1.62141,1.31457 2.23938,2.24854 3.79006,3.48651 9.66668,4.72984 12.17102,9.51599 0.10634,3.31246 0.1459,7.23116 -2.54517,9.62402 -2.48954,0.26083 -5.44739,-0.13812 -7.32239,1.85303 -3.15451,0.53862 -6.02074,-1.90426 -9.20105,-1.12243 -5.40265,0.10276 -10.58331,1.83088 -15.6903,3.42773 -0.59799,1.69123 0.18146,3.56279 0.6134,5.13245 0.98245,0.35654 2.88894,-0.97327 3.03955,0.72509 0.3688,2.18066 -0.71957,5.36997 1.81458,6.54969 4.19613,1.52596 8.7232,-2.223 12.75512,0.22522 1.28791,1.88628 -1.14719,3.48161 -1.96106,4.98779 -3.25421,4.363 -7.83046,7.78198 -10.06714,12.86316 -4.54978,1.17851 -10.00349,-0.3911 -13.81347,3.02307 -0.94946,1.98769 1.14268,3.70751 1.53076,5.53528 1.37836,1.48347 3.56792,-0.10511 5.04089,0.2655 0.23869,1.31217 -1.2429,2.18695 -1.30554,3.49548 -2.26152,5.80672 -1.08741,13.25316 4.10156,17.12586 2.54517,2.25359 5.51245,3.94509 8.38074,5.74219 -1.31337,2.73077 -4.84734,2.14499 -7.15942,3.38928 -4.36884,1.14102 -8.93984,-0.17903 -13.24219,-0.40283 -0.9358,1.0732 0.90167,2.17586 1.12427,2.74841 -0.80925,0.52189 -0.17251,2.03384 0.76721,1.83838 -0.8187,1.93031 0.79198,3.7708 1.30554,5.56457 0.30605,0.94831 1.78066,1.74194 2.15332,1.9281 -1.56204,0.38278 -0.63833,2.78629 0.79102,2.19544 -1.34555,0.82647 -0.0164,2.8361 1.31103,2.50122 -1.74153,0.8911 0.0109,3.1176 1.51428,2.87109 2.00978,0.18615 3.73707,-1.3089 5.74219,-1.14624 -0.60608,1.33253 0.32652,3.21232 1.93909,2.64771 1.86173,-0.87166 3.57316,-2.05012 5.47302,-2.88025 4.32146,-2.20949 8.74845,-4.27862 13.43079,-5.60486 -1.16345,4.24653 1.87151,8.95012 -0.78736,12.90527 -5.53301,14.71364 -11.10115,29.41271 -16.66259,44.1156 -11.26426,31.94819 -14.08658,40.37974 -19.25904,53.06397 0.63048,1.92998 -1.12914,3.59784 -1.4447,5.44373 -15.63779,42.39309 -31.39166,84.74441 -46.95923,127.16308 -3.0576,8.97374 -6.65886,17.77379 -11.2445,26.08154 -1.06255,1.9831 -2.53525,4.65521 -0.56946,6.60279 2.65502,2.63915 6.64006,4.04231 10.36743,3.66577 1.77474,-0.22638 3.69158,-1.1707 3.79944,-3.17871 0.64508,-3.16858 0.86285,-6.4251 2.01416,-9.47571 3.42826,-12.01055 8.81522,-23.34119 12.52075,-35.26062 13.10918,-36.86271 26.8303,-73.50475 40.15869,-110.28809 6.51924,-16.64589 12.4575,-36.28732 20.46491,-57.76428 -1.18233,-2.25401 2.34585,-4.41225 2.73089,-6.59729 5.22967,-14.45532 10.38164,-28.9382 15.62988,-43.38684 2.8273,0.603 4.34471,-2.56037 4.87244,-4.82117 3.26345,-6.01151 7.16815,-12.35242 6.54602,-19.48242 0.59745,-10.21919 1.26853,-21.1711 7.37732,-29.81872 4.68822,-6.27353 11.32718,-11.65435 13.03711,-19.6637 4.24231,-13.6935 1.65828,-28.44435 -3.05603,-41.65833 -1.11677,-2.91329 -2.11165,-6.41756 -4.9054,-8.11706 -3.60922,0.0385 -6.46323,2.72907 -9.94079,3.33984 -1.95867,0.78946 -3.85396,1.73168 -5.67444,2.80152 -1.25354,-1.51009 -3.21725,0.34639 -3.42957,1.77429 -1.0116,1.32926 -3.39574,1.93763 -4.30664,0.18677 -4.01123,-3.62032 -10.43759,-3.87658 -13.4198,-8.74878 z m 24.80347,13.77685 c 0,0 1.36932,0.0623 1.68091,0.0623 0.31161,0 -1.80725,1.43371 -1.80725,1.43371 z m 5.7312,0.99793 h 0.002 l 0.87159,0.31128 v 1.24511 l -0.9961,2.74292 -1.06018,0.0623 0.0623,-2.18079 z m -5.91797,1.68091 1.05835,0.25085 c 0,0 -1.55797,2.42976 -1.80725,2.49207 z m 7.91382,1.74682 c 0.0183,1.3918 0.01,2.78301 0.18677,4.17481 -0.37006,0.74828 -0.71729,1.62551 -1.24695,1.49597 l -0.62256,-0.7489 0.31128,-2.80335 c 0.26128,-1.00615 0.83358,-1.53613 1.37146,-2.11853 z m -2.92969,2.36756 -0.93383,3.36364 -0.68665,-2.42981 z m 0,4.48608 c 0.63548,0.24456 0.88016,0.54601 0.93567,0.87341 0.11594,0.89966 0.0887,1.75759 -0.37353,2.49207 l -0.87341,1.37146 -1.06019,-0.31128 c -0.41999,-0.24928 -0.0656,-3.17871 0.31312,-3.17871 0.4853,-0.28329 0.72166,-0.81503 1.05834,-1.24695 z m 3.36548,0.49805 c 0.381,1.14945 0.75011,2.2973 0.56214,3.36547 -0.35754,0.83632 -0.78558,1.42774 -1.30921,1.68274 l -0.56213,-2.74109 c 0.18161,-0.76858 0.47009,-1.53852 1.3092,-2.30712 z m -5.42175,0.43762 -0.80933,1.30737 -0.18676,-1.24512 z m -11.21704,4.29931 1.43371,0.1886 -3.42773,2.42981 z m 10.09643,0.4358 1.49415,0.68664 c -0.0914,1.05943 -0.70278,2.11746 -1.18287,3.17688 z m 3.4314,0.43396 c 0.0346,-0.003 0.0542,0.001 0.0568,0.004 0.47205,0.24069 0.93256,0.49734 0.99793,1.30737 0.0381,1.04732 -0.35577,1.8792 -0.80933,2.68066 -0.19274,0.82804 -0.8797,1.4089 -1.55822,1.99402 l 0.0623,-3.36548 c 0.0904,-2.34371 1.00838,-2.60384 1.25061,-2.62023 z m -31.4154,0.3717 c -2.12797,1.63785 -3.1316,4.29774 -3.61451,6.87561 -0.65577,-2.57529 -7.69273,-3.10203 -13.0426,-3.70056 5.04437,-0.48609 9.80895,-0.6597 16.65711,-3.17505 z m 20.25512,0.62805 c -0.55305,1.06055 -0.5969,2.19427 -1.68274,3.17871 l -2.92785,0.81116 c 1.43531,-1.53331 2.85262,-3.10191 4.61059,-3.98987 z m 14.45801,0.68482 c 0.21285,1.30477 0.60122,2.65513 0.18677,3.8031 -0.65016,-0.007 -1.30044,-0.0126 -1.86951,-0.74891 0.10629,-1.01787 0.50169,-2.03633 1.68274,-3.05419 z m -14.64477,3.05419 c 0.20595,0.31159 0.0849,2.80518 -0.12452,2.80518 -0.22945,0.63311 -0.72687,1.13269 -1.62048,1.43372 l -1.55823,-0.31311 c 0.70413,-1.80478 1.94033,-2.94447 3.30323,-3.92579 z m 8.16467,1.24695 c 0.64749,0.1176 1.0529,0.71691 1.36963,1.49597 -0.42441,0.90792 -0.92613,1.57917 -1.43189,2.24305 -0.39254,-1.15454 -0.2912,-2.4187 0.0623,-3.73902 z m -7.8534,3.73902 c 0.47102,1.36968 0.54663,2.66002 0.18677,3.86352 l -1.62048,1.12244 -1.5564,-1.18469 c 0.67019,-1.26716 1.49655,-2.53411 2.99011,-3.80127 z m 21.95984,7.50915 c 0.35751,0.019 0.64556,0.55055 0.78736,2.15149 -1.36255,3.48182 -2.37774,7.4852 -4.61243,9.65881 l -1.05835,-2.05627 c 0.0293,-2.61835 0.72775,-5.31205 2.8656,-8.16467 0.63171,-0.23125 1.42196,-1.6211 2.01782,-1.58936 z m -7.87536,8.88062 0.68481,2.49389 -0.24902,2.92969 c -1.80947,1.89552 -3.66677,3.90241 -6.16882,7.41394 l -4.42566,12.52625 c -0.29442,2.32717 -0.91836,1.83874 -1.68091,0.18676 l -2.05811,-4.92187 c -0.5307,-5.33664 3.62889,-7.46618 7.4176,-9.84741 1.23047,-2.58052 3.80146,-2.14409 3.36548,-8.47412 z m -24.14612,0.23254 c 0.27783,0.0108 0.64658,0.27273 1.18286,0.99426 0.22654,1.39962 0.14239,2.73694 -0.0439,4.05396 -0.83727,-0.44066 -0.34139,0.008 -2.51221,-1.32202 l 0.39734,-2.64405 c 0.30389,-0.4197 0.5129,-1.1001 0.97595,-1.08215 z m 19.16016,3.88184 -1.18287,3.42773 c -4.38276,2.26427 -6.44822,4.52714 -8.04016,6.79138 l 0.99793,-4.98596 c 3.34664,-2.75261 5.50693,-3.52801 8.2251,-5.23315 z m -20.62134,1.65161 c 0.6159,-0.0564 1.28416,0.51474 1.98303,1.45386 l -0.0879,2.15881 -1.27808,-0.0879 -0.7489,-1.01257 z"
       sodipodi:nodetypes="ccccccccccccccccccccccccccccccccccccccccccccccccccccccccccccccccscccccccccccccccccccccccccccccccccccccccccccccccccccccccccccccccccccccccccccccccccsccccsccccccccccsccccscccccccccccccc" />
  </g>
</svg>
