<?xml version="1.0" encoding="UTF-8" standalone="no"?>
<!-- Created with Inkscape (http://www.inkscape.org/) -->

<svg
   xmlns:dc="http://purl.org/dc/elements/1.1/"
   xmlns:cc="http://creativecommons.org/ns#"
   xmlns:rdf="http://www.w3.org/1999/02/22-rdf-syntax-ns#"
   xmlns:svg="http://www.w3.org/2000/svg"
   xmlns="http://www.w3.org/2000/svg"
   xmlns:sodipodi="http://sodipodi.sourceforge.net/DTD/sodipodi-0.dtd"
   xmlns:inkscape="http://www.inkscape.org/namespaces/inkscape"
   width="210mm"
   height="297mm"
   viewBox="0 0 744.09448819 1052.3622047"
   id="svg6224"
   version="1.1"
   inkscape:version="0.91 r13725"
   sodipodi:docname="player_sill.svg">
  <title
     id="title8930">Lacrosse Player</title>
  <defs
     id="defs6226" />
  <sodipodi:namedview
     id="base"
     pagecolor="#ffffff"
     bordercolor="#666666"
     borderopacity="1.0"
     inkscape:pageopacity="0.0"
     inkscape:pageshadow="2"
     inkscape:zoom="0.49497475"
     inkscape:cx="464.06204"
     inkscape:cy="524.58835"
     inkscape:document-units="px"
     inkscape:current-layer="layer6"
     showgrid="false"
     inkscape:window-width="1366"
     inkscape:window-height="715"
     inkscape:window-x="-8"
     inkscape:window-y="-8"
     inkscape:window-maximized="1" />
  <metadata
     id="metadata6229">
    <rdf:RDF>
      <cc:Work
         rdf:about="">
        <dc:format>image/svg+xml</dc:format>
        <dc:type
           rdf:resource="http://purl.org/dc/dcmitype/StillImage" />
        <dc:title>Lacrosse Player</dc:title>
        <cc:license
           rdf:resource="http://creativecommons.org/publicdomain/zero/1.0/" />
        <dc:date>2016-05-30</dc:date>
        <dc:creator>
          <cc:Agent>
            <dc:title></dc:title>
          </cc:Agent>
        </dc:creator>
      </cc:Work>
      <cc:License
         rdf:about="http://creativecommons.org/publicdomain/zero/1.0/">
        <cc:permits
           rdf:resource="http://creativecommons.org/ns#Reproduction" />
        <cc:permits
           rdf:resource="http://creativecommons.org/ns#Distribution" />
        <cc:permits
           rdf:resource="http://creativecommons.org/ns#DerivativeWorks" />
      </cc:License>
    </rdf:RDF>
  </metadata>
  <g
     inkscape:groupmode="layer"
     id="layer6"
     inkscape:label="Layer 2"
     style="display:inline">
    <path
       style="opacity:1;fill:#000000;fill-rule:evenodd;stroke:#000000;stroke-width:0.49354464px;stroke-linecap:butt;stroke-linejoin:miter;stroke-opacity:1"
       d="m 537.98361,150.27094 c -10.2517,0.1175 -20.22738,3.23204 -29.6175,7.16507 -5.27698,1.33071 -11.2172,0.0816 -16.04502,3.00176 -3.43864,3.86086 -2.48176,9.44297 -4.20477,14.01396 -1.48505,5.0511 -4.22028,9.84857 -4.15368,15.25073 -0.35316,3.88106 -1.15261,7.73514 -2.59207,11.35152 -0.49956,4.04441 2.4562,7.37714 3.41817,11.13176 1.28467,4.30064 3.97451,8.12396 4.67712,12.5931 0.0971,0.65394 0.16233,1.71217 -0.77696,1.17313 -2.13108,-1.01159 -4.63508,0.58509 -6.77178,-0.64296 -1.96552,-1.12525 -1.91082,-3.81523 -3.40468,-5.33453 0.36022,2.32446 1.47739,4.48318 2.97958,6.27438 -2.72209,0.32508 -2.59111,4.90346 -5.59672,4.48047 -0.41956,-0.27057 -1.86679,-0.79264 -0.65066,-0.14942 2.28327,1.21505 2.42922,4.90718 0.0328,6.09316 -3.3605,3.07937 -7.05442,5.90841 -11.12693,7.95937 -7.57571,2.96238 -15.9771,2.56797 -23.58411,5.44923 -16.28338,4.84463 -31.97083,11.47422 -47.43619,18.45202 -8.12717,3.90217 -15.5897,9.39182 -21.02867,16.64653 -4.88964,6.07014 -8.66174,12.91951 -12.90639,19.43236 -3.0711,1.09082 -5.72238,-1.97836 -8.825,-1.38809 -4.89055,-0.16271 -10.25921,1.4626 -13.1869,5.61599 -0.22787,3.21482 3.19097,6.27484 1.2088,9.4082 -2.56052,3.76341 -8.51591,2.02681 -10.92642,6.00833 -0.82379,1.57689 -1.19041,4.49742 -3.557,4.26357 -1.4539,-0.53082 -2.74869,-1.5703 -4.40044,-1.40256 -2.18487,-0.19334 -4.69972,0.81827 -6.65129,-0.40871 -1.07286,-1.23497 -2.88365,-2.66211 -4.44865,-1.33605 -1.82444,0.70705 -4.81065,0.61736 -5.32971,2.94489 0.47753,1.06935 2.80276,2.17413 1.27918,3.38251 -2.28283,1.46859 -5.96242,0.84859 -7.18244,3.77967 -1.24197,1.73494 -3.91467,3.80059 -5.87722,1.87489 -2.62288,-2.12389 -5.23017,-4.34972 -8.05191,-6.15678 -1.18233,-2.25401 1.00595,-4.4113 1.39099,-6.59634 5.22967,-14.45536 10.38225,-28.93893 15.63051,-43.38759 2.8273,0.603 4.3441,-2.55897 4.87183,-4.81977 3.26345,-6.01153 7.16835,-12.35247 6.54622,-19.48249 0.59745,-10.21921 1.26929,-21.17228 7.3781,-29.81992 4.68822,-6.27353 11.32563,-11.65338 13.03556,-19.66275 4.24231,-13.69352 1.65857,-28.44425 -3.05574,-41.65825 -1.11677,-2.91331 -2.11181,-6.41892 -4.90556,-8.11842 -3.60924,0.0385 -6.46178,2.73029 -9.93934,3.34106 -1.95867,0.78946 -3.85528,1.73141 -5.67576,2.80125 -1.25354,-1.51009 -3.21743,0.34674 -3.42975,1.77464 -1.01162,1.32926 -3.39508,1.93789 -4.30598,0.18701 -4.01125,-3.62032 -10.437,-3.87663 -13.41921,-8.74885 -1.78935,-0.51638 -1.19357,2.16831 -0.11568,2.67015 3.96232,4.39357 11.2381,3.89598 14.57306,9.03997 0.84262,1.94434 -2.11153,3.11534 -3.15406,1.43725 -4.34545,-3.28938 -9.52901,-5.94201 -12.45236,-10.76737 -0.93481,-1.12399 -2.23947,0.86655 -1.64161,1.87007 0.45756,1.00372 1.6213,1.31397 2.23927,2.24794 3.79008,3.48651 9.66557,4.72903 12.16991,9.5152 0.10634,3.31246 0.1472,7.2322 -2.54387,9.62508 -2.48954,0.26083 -5.4472,-0.13939 -7.3222,1.85176 -3.15453,0.53862 -6.02063,-1.90387 -9.20094,-1.12204 -5.40267,0.10276 -10.58328,1.83097 -15.69029,3.42782 -0.59799,1.69123 0.18018,3.56339 0.61212,5.13305 0.98245,0.35654 2.8897,-0.97349 3.04031,0.72489 0.3688,2.18066 -0.71903,5.3694 1.81512,6.54912 4.19615,1.52598 8.7231,-2.22266 12.75504,0.22556 1.28791,1.8863 -1.14777,3.48132 -1.96164,4.9875 -3.25423,4.36302 -7.82989,7.78279 -10.06657,12.86397 -4.5498,1.17851 -10.00347,-0.39217 -13.81347,3.022 -0.94946,1.98769 1.14172,3.70822 1.5298,5.53599 1.37836,1.48347 3.5685,-0.10553 5.04147,0.26508 0.23869,1.31217 -1.24255,2.18675 -1.30519,3.4953 -2.26152,5.80672 -1.08736,13.25389 4.10163,17.12659 2.54517,2.25359 5.51136,3.94517 8.37965,5.74227 -1.31337,2.73079 -4.84719,2.14401 -7.15929,3.3883 -4.36884,1.14102 -8.93949,-0.17816 -13.24184,-0.40196 -0.9358,1.0732 0.90138,2.17568 1.12398,2.74823 -0.80925,0.52189 -0.17146,2.03468 0.76826,1.83922 -0.8187,1.93031 0.79067,3.77016 1.30423,5.56395 0.30605,0.94831 1.78178,1.74272 2.15444,1.92888 -1.56204,0.38278 -0.63891,2.78577 0.79044,2.19492 -1.34555,0.82647 -0.0164,2.83538 1.31098,2.5005 -1.74153,0.8911 0.01,3.11716 1.51341,2.87065 2.00978,0.18615 3.73716,-1.30784 5.74228,-1.14518 -0.60608,1.33253 0.3269,3.21163 1.93947,2.64702 1.86173,-0.87166 3.57444,-2.0492 5.4743,-2.87933 4.32146,-2.20949 8.74844,-4.27916 13.43078,-5.6054 -1.16345,4.24653 1.87131,8.94929 -0.78756,12.90446 -5.53303,14.71366 -11.10145,29.41438 -16.66291,44.11731 -1.82927,-1.56998 -4.98635,-2.11149 -6.77853,-0.20147 -4.40842,-2.50881 -10.12251,0.58536 -11.82675,5.02028 -3.00285,4.14545 -6.60101,8.14408 -7.81672,13.24184 -1.70435,2.53844 -4.46879,4.26511 -5.61117,7.20556 -2.32532,4.3508 -3.94056,9.30178 -3.73243,14.25977 1.514,4.96027 6.27523,8.11518 11.10572,9.29638 2.06022,0.99898 3.95963,2.48749 5.40104,4.24043 0.63048,1.92998 -1.12941,3.59756 -1.44497,5.44345 -15.63783,42.39319 -31.39145,84.74419 -46.95904,127.16294 -3.05762,8.97376 -6.65887,17.77395 -11.24453,26.08172 -1.06255,1.9831 -2.53645,4.65647 -0.57066,6.60405 2.65504,2.63915 6.64092,4.04149 10.36829,3.66495 1.77474,-0.22638 3.69205,-1.17014 3.79991,-3.17815 0.64508,-3.16858 0.86239,-6.42603 2.0137,-9.47664 3.42828,-12.01057 8.81527,-23.34104 12.5208,-35.26049 13.1092,-36.86279 26.8309,-73.50359 40.15931,-110.28699 2.35388,1.91976 5.57015,-2.32306 3.33818,-4.21151 -0.71667,-1.76024 2.32107,-3.15353 3.03645,-1.27242 3.46946,3.52019 4.54244,9.42072 9.57303,11.29755 1.1951,0.6552 3.83673,0.74232 3.69291,-1.15868 -0.87123,-3.03139 -4.38589,-4.38781 -5.0916,-7.54776 -0.74885,-2.03072 0.2606,-4.77093 2.66147,-4.93353 3.95328,-0.89699 8.05334,-0.47419 12.06485,-0.79718 1.54286,0.0196 3.08456,0.0825 4.62603,0.14845 -2.44546,2.75212 -0.71194,8.48569 3.35166,8.21867 4.67817,-0.25915 9.09761,-3.3653 13.85782,-2.00791 5.29921,0.0884 9.80739,-3.85 15.09552,-3.59362 5.61936,2.58097 11.85114,0.0357 16.94825,-2.59305 3.67262,-1.94815 7.64507,-4.38538 9.32047,-8.3488 0.1612,-1.27382 -2.25265,-2.33158 -0.77887,-3.42398 1.76679,-1.05458 3.69209,-1.82781 5.46079,-2.90535 5.66641,-2.97176 11.12871,-6.49688 17.17768,-8.62835 3.1821,-0.87743 5.88574,-3.20628 7.24218,-6.21172 0.68578,-1.07736 1.71276,-2.60791 2.88512,-2.78005 1.31089,2.33259 4.92506,1.29057 6.20787,3.50301 0.82062,2.41917 1.57492,5.55699 4.48528,6.17413 3.31244,1.32604 7.5603,0.8368 10.04536,3.82015 -0.41756,3.2251 -1.22942,6.40136 -1.10179,9.68003 -0.1642,5.29003 -0.55856,10.5905 -0.57163,15.8744 0.56594,5.25334 0.45956,10.56967 -0.0298,15.80693 0.79149,6.36875 2.77402,12.60578 2.70196,19.06413 0.9493,4.3761 5.25175,7.181 6.25992,11.44213 -1.21596,2.02877 -3.79672,0.36732 -5.60732,0.54752 -2.57923,0.0574 -4.51086,2.16537 -5.34706,4.43516 -2.23981,3.29102 -7.53634,1.70179 -9.39855,5.38464 -0.85953,2.1285 0.93926,4.17797 0.99191,6.32644 0.54983,2.18947 -0.69399,4.1056 -1.98286,5.73167 -1.39418,1.90501 -2.38459,4.34586 -1.90285,6.66478 -1.07523,1.13733 -3.47876,0.99357 -3.503,2.99791 -1.5488,4.52756 -1.47975,9.51498 -3.73147,13.82214 -2.66638,6.57324 -5.43359,13.19179 -6.51537,20.24689 -2.09652,8.01037 -4.03698,16.33954 -2.69521,24.65217 0.92873,7.9559 3.5296,15.68195 7.38292,22.69245 -1.42194,2.22061 -4.23449,3.91845 -4.01873,6.86915 -1.28474,2.9558 -3.14303,5.72612 -5.27958,8.09432 -2.01911,1.2249 -3.78348,3.04803 -4.3831,5.34513 -2.01412,1.98974 -5.68708,1.73934 -6.90865,4.63276 -4.39908,4.97905 -8.90634,9.91545 -13.84817,14.35039 -4.24741,2.81976 -9.00354,5.03538 -12.39839,8.96093 -4.74702,4.68123 -9.23119,9.9002 -11.6436,16.19443 -1.81363,3.49432 -4.25506,7.01338 -3.85968,11.15584 -0.002,2.23854 0.74321,4.42966 1.07674,6.5761 -0.91378,2.8654 -3.95857,4.18723 -5.52057,6.6349 -6.1497,6.83493 -11.75661,14.32244 -19.09208,19.95385 l -6.231,2.46001 c -1.23666,-2.65009 -4.83399,-1.81977 -6.70141,-0.38076 -3.61116,1.17729 -8.20567,1.49085 -10.25551,5.19475 -4.1373,4.38926 -10.57522,4.60022 -15.76837,7.06675 -11.56472,4.13629 -22.61066,10.59817 -30.39251,20.27389 -5.27236,6.02929 -10.76946,12.30519 -18.25345,15.59871 -6.10018,4.01215 -11.28535,9.22403 -17.22298,13.4597 -13.19774,10.31271 -26.93009,20.08383 -41.89249,27.69058 -5.05325,-2.01204 -10.16422,2.22228 -15.25843,0.51763 -3.78163,-0.12744 -7.64358,1.18416 -11.34286,-0.12724 -5.33171,-0.73168 -10.34632,1.84798 -15.19288,3.67074 -4.08676,1.86293 -8.431868,3.72167 -11.539502,7.06 -1.888168,2.30416 -2.751116,6.42981 0.0058,8.42304 1.42139,0.6992 4.049491,-0.43595 4.429372,1.76018 0.1697,1.48018 1.08185,3.21589 0.31232,4.5913 -1.418941,1.42052 -4.211156,0.49877 -5.11185,2.66533 -0.740914,1.79655 -0.0707,3.80651 -0.521499,5.67671 -0.20455,2.43273 1.013385,5.62739 3.900158,5.54181 1.904571,0.10359 4.216371,1.13219 4.123801,3.36321 2.60845,12.47261 0.59967,25.376 -2.78005,37.49592 -1.444908,1.2269 -4.207914,2.14376 -3.737251,4.51129 1.065411,1.70915 4.392441,2.03691 3.909801,4.57299 -0.0242,3.39899 -4.016761,5.65222 -3.17623,9.18843 1.888183,2.11779 5.57512,1.96972 6.70816,4.88919 2.06155,2.8679 1.65236,6.58872 2.02141,9.86606 1.55619,2.37785 5.19348,0.97327 6.85566,3.31119 2.69161,2.62773 5.12193,5.85117 8.92331,6.90193 4.79107,1.76842 10.31595,2.18418 15.13794,0.34794 2.81499,-1.4403 3.75333,-5.02112 2.64992,-7.8591 -1.38437,-5.4938 -5.26307,-10.80409 -3.63219,-16.69761 0.7141,-3.17373 0.34004,-6.87112 -2.13323,-9.20673 -0.25982,-1.84935 2.31806,-2.23871 3.07405,-3.65533 1.57579,-1.70426 2.34321,-3.88756 2.53809,-6.17603 0.5272,-3.14392 2.53861,-5.76618 3.90305,-8.58885 1.936,-3.0701 3.6925,-6.93742 7.37329,-8.19073 1.52963,-0.60681 0.95464,1.39047 0.56198,2.13419 -0.7959,1.1054 0.0472,2.92095 1.50666,2.33955 2.77317,-1.2231 2.2671,-4.77283 3.10105,-7.18245 0.6541,-2.26103 2.6026,-3.76876 4.29056,-5.25161 1.13105,-1.02446 3.39622,-0.33843 2.94777,1.40156 -0.70769,2.23013 -2.39693,4.01237 -3.53578,6.04114 -1.82366,2.74682 -3.69558,5.46186 -5.49551,8.22443 2.02738,0.39414 2.1782,-2.38496 3.60808,-3.2003 4.27029,-5.04526 9.33049,-10.45421 9.60966,-17.43506 -0.21795,-1.49884 -1.12848,-2.77322 -1.50858,-4.22405 2.74767,-1.20262 6.29662,0.63653 8.61196,-1.75534 1.6357,-0.54833 3.11192,-2.68612 1.65897,-4.17682 -1.22093,-2.31665 -3.64785,-5.05395 -2.04262,-7.75116 3.52224,-3.74907 8.08034,-6.27557 12.1092,-9.4159 13.71132,-9.404 28.81474,-16.50596 43.965,-23.24289 1.64988,-3.3417 5.87674,-3.43611 8.72474,-5.24007 15.36744,-6.82421 30.2133,-14.91005 43.97754,-24.57889 4.03833,-1.6437 9.04035,-1.27623 12.24896,-4.6424 3.52084,-1.88086 8.08407,-1.82218 10.82424,-5.06655 4.41696,-3.73973 10.44553,-3.77462 15.71535,-5.4878 8.76784,-2.3787 17.78244,-6.43243 22.9238,-14.2964 2.49674,-3.64914 5.27022,-7.23361 9.1248,-9.53544 3.36039,-2.31041 6.57386,-4.96622 10.27287,-6.69659 2.57535,-0.64032 5.34533,-0.93677 7.44462,-2.73666 4.36527,-2.45695 9.19449,-3.93653 13.68814,-6.14039 10.37722,-4.70226 20.72413,-9.47506 31.20996,-13.93011 8.35535,-3.78899 16.12837,-8.81341 22.99609,-14.89696 11.09438,-9.21134 21.43696,-19.34764 30.92463,-30.19683 1.05263,-1.47633 1.5043,-3.5703 2.99886,-4.61349 5.73218,0.0319 11.18264,2.69479 15.3876,6.47393 -0.80145,2.06242 -3.10738,2.90624 -4.38695,4.62023 -9.98333,9.11125 -19.44191,19.13538 -25.74048,31.21284 -3.08251,5.39284 -5.42447,11.22941 -8.76427,16.45278 -2.90484,2.52397 -5.04881,5.95867 -5.66998,9.77353 -1.87064,4.30933 -4.71204,8.11244 -6.63779,12.39838 -8.63911,16.00446 -16.32614,32.6279 -26.80661,47.54898 -4.31604,4.30122 -10.49323,7.02907 -12.96326,12.94205 -2.59692,4.80618 -5.50732,9.57028 -9.56147,13.27172 -1.54304,2.83067 -1.93628,6.86298 -5.36633,8.15794 -5.34456,3.17556 -11.3028,6.5787 -13.68718,12.67793 -1.40339,2.57857 -3.01483,5.97791 -1.18085,8.74788 1.34144,0.74841 3.88126,-0.39592 4.28285,1.66957 1.26875,3.64083 5.39677,5.15724 7.09085,8.46162 -0.14093,1.42427 -2.32751,2.97612 -0.66224,4.26837 1.8957,1.73382 3.90921,4.22045 6.70237,4.1479 1.50807,-0.21395 2.81946,-2.21187 4.34551,-1.55294 -0.86568,1.00678 -0.97243,2.64772 0.2034,3.52425 2.11529,1.31476 4.94399,0.37825 6.846,-0.96877 2.26821,-1.60595 4.58615,-3.81348 7.6056,-3.36036 4.51389,0.29826 8.69352,2.25166 13.00567,3.44904 1.85329,0.76076 4.07248,1.2544 5.68637,2.21128 0.0714,1.68847 -1.45841,4.05605 0.49837,5.18706 3.33664,1.23549 6.55664,-3.09734 9.74557,-0.80201 1.69963,1.44001 0.46132,4.90751 3.10683,5.45984 4.01649,0.58598 6.53008,-4.7476 10.63242,-3.31218 2.37897,0.85018 5.71904,1.58324 7.38678,-0.91188 4.23694,-3.50643 9.93858,-5.0154 13.46451,-9.42842 3.5334,-3.80474 5.25629,-9.89537 2.34338,-14.55573 -3.36405,-6.17394 -10.30493,-8.93236 -16.63496,-11.00836 -2.17667,-0.89766 -4.89749,-1.55072 -6.24739,-3.57529 -1.20543,-3.52944 -4.25258,-7.01149 -2.98151,-10.93221 1.61376,-2.137 2.56653,-4.91615 2.04358,-7.596 0.96294,-0.47661 1.10378,1.33623 1.64065,1.86141 1.1734,2.43535 3.49075,5.56546 6.58477,4.55759 2.17945,-0.95763 3.19885,-3.39406 4.09585,-5.40007 -0.37045,-2.06973 -3.08776,-2.25624 -3.94257,-4.06405 -1.37743,-1.68056 -3.22204,-2.93896 -5.1292,-3.88089 -1.1459,-1.65559 0.12651,-4.71616 -2.36266,-5.42702 -1.25631,-0.47859 -0.64705,-1.73796 -0.0897,-2.50148 3.24834,-6.72712 6.89192,-13.26749 10.71339,-19.68298 7.35712,-11.78886 17.06136,-21.9918 27.973,-30.54386 12.55547,-11.54489 20.66697,-26.76281 29.96356,-40.82829 4.23484,-5.80071 8.41493,-11.75641 13.62067,-16.72461 3.25542,-2.05401 7.03604,-3.79961 8.86259,-7.40703 3.22478,-4.8694 6.2466,-9.95003 10.50519,-14.01397 4.86078,-5.39984 9.29438,-11.95094 9.32625,-19.49309 0.61062,-10.24835 -4.53503,-20.22149 -12.24029,-26.76612 -3.06514,-3.53161 -3.72218,-8.53786 -7.07639,-11.86435 -3.48862,-4.64941 -6.3646,-9.73121 -10.00874,-14.26942 -2.65187,-4.03117 -4.77612,-8.58794 -8.78934,-11.49997 -0.003,-0.20169 1.5088,-0.0852 1.90189,-0.70465 1.615,-1.31517 1.72765,-3.99668 0.28051,-5.44056 -0.48911,-3.22146 3.00932,-5.03056 5.66033,-5.61504 1.36793,-0.42543 2.98274,-1.52222 4.31563,-1.1712 0.85277,2.83984 5.90988,1.80794 5.45984,-1.19242 0.75306,-3.7217 2.12699,-7.35501 4.47275,-10.36154 6.12774,-11.46627 11.01678,-23.5326 16.11924,-35.4687 4.69894,-9 10.13432,-17.72643 13.04617,-27.53247 1.13819,-3.50216 2.04768,-7.08009 2.67979,-10.70857 4.37487,2.60943 2.99985,8.83158 6.59248,12.0716 5.50382,6.51269 13.95231,9.92426 18.73735,17.12947 8.46087,8.80548 23.89975,8.86803 32.71565,0.5456 5.29112,-4.24199 10.67613,-8.56763 14.85357,-13.93975 3.43289,-6.10143 2.13071,-13.43474 0.37401,-19.83817 -1.17263,-5.55484 -1.12573,-11.53274 1.12687,-16.80559 0.0988,-4.05666 -4.54483,-6.72405 -3.69966,-10.91774 -0.86852,-7.06306 -3.82081,-13.63836 -5.23433,-20.58621 -3.50027,-13.57755 -5.7799,-27.43766 -8.89826,-41.09338 -4.77775,-11.28936 -2.40573,-24.517 -8.67751,-35.30869 -5.235,-9.45115 -13.44401,-16.72484 -21.3487,-23.8598 -0.98754,-2.55181 1.60518,-4.57046 2.22865,-6.87781 2.18671,-4.921 3.64546,-10.12802 5.64782,-15.12156 3.43027,-10.43375 5.51323,-21.34471 5.98711,-32.31947 -0.31871,-3.12839 -2.18607,-6.11738 -1.51437,-9.36963 0.13582,-2.4505 -0.50306,-5.05058 0.19665,-7.40606 0.81212,-0.75366 2.39538,-2.18069 0.90323,-3.11068 -7.52468,-6.43215 -15.01358,-13.7842 -18.06548,-23.46554 -2.28774,-3.1294 -5.46986,-5.5612 -7.29713,-9.02936 -7.40825,-9.257 -18.90114,-14.00742 -30.1525,-16.66678 -5.91106,-1.27203 -11.96747,-1.80648 -18.00956,-1.765 -0.68581,-0.0195 -1.37074,-0.0252 -2.05418,-0.0173 z m -225.81308,20.51295 c 0,0 1.37051,0.0626 1.6821,0.0626 0.31161,0 -1.80741,1.4334 -1.80741,1.4334 l 0.12531,-1.49606 z m 5.73265,0.99769 0.87334,0.31136 0,1.24639 -0.99769,2.74245 -1.0594,0.0617 0.0626,-2.18046 1.12108,-2.18143 z m -5.91965,1.6821 1.05938,0.24966 c 0,0 -1.55813,2.43048 -1.80741,2.49279 l 0.74803,-2.74245 z m 7.91407,1.74572 c 0.0183,1.3918 0.01,2.78309 0.187,4.17489 -0.37006,0.74828 -0.71673,1.6256 -1.24639,1.49606 l -0.62271,-0.74803 0.31136,-2.80415 c 0.26128,-1.00615 0.83286,-1.53637 1.37074,-2.11877 z m -2.9285,2.36747 -0.93504,3.36518 -0.68537,-2.43014 1.62041,-0.93504 z m 0,4.48721 c 0.63548,0.24456 0.87857,0.54498 0.93408,0.87238 0.11594,0.89966 0.0892,1.75831 -0.37306,2.49279 l -0.87335,1.37074 -1.05938,-0.31136 c -0.42001,-0.24928 -0.0664,-3.17815 0.31232,-3.17815 0.48532,-0.28329 0.72271,-0.81448 1.05939,-1.2464 z m 3.36517,0.49837 c 0.381,1.14947 0.74899,2.29697 0.56102,3.36516 -0.35754,0.83632 -0.78542,1.42807 -1.30905,1.68307 l -0.56102,-2.74245 c 0.18161,-0.7686 0.46994,-1.53718 1.30905,-2.30578 z m -5.42225,0.43667 -0.80972,1.30809 -0.18701,-1.24639 0.99673,-0.0617 z m -11.21754,4.3002 1.43341,0.187 -3.42687,2.43013 1.99346,-2.61713 z m 10.09646,0.43571 1.49509,0.68537 c -0.0914,1.05943 -0.70364,2.11873 -1.18373,3.17815 l -0.31136,-3.86352 z m 3.43168,0.43378 c 0.0346,-0.003 0.0552,3.5e-4 0.0578,0.003 0.47205,0.24069 0.93136,0.49806 0.99673,1.30809 0.0381,1.04732 -0.35616,1.87831 -0.80972,2.67979 -0.19274,0.82804 -0.87921,1.4093 -1.55775,1.99442 l 0.0617,-3.36516 c 0.0904,-2.34373 1.00899,-2.60363 1.25122,-2.62002 z m -31.41528,0.37208 c -2.12797,1.63785 -3.13095,4.29705 -3.61386,6.87492 -0.65577,-2.57529 -7.6934,-3.10304 -13.04327,-3.70157 5.04437,-0.48609 9.80897,-0.658 16.65713,-3.17335 z m 20.25558,0.62754 c -0.55305,1.06055 -0.59722,2.19372 -1.68306,3.17816 l -2.9285,0.81069 c 1.43531,-1.53331 2.85359,-3.10089 4.61156,-3.98885 z m 14.45836,0.68537 c 0.21285,1.30479 0.60145,2.65387 0.187,3.80184 -0.65016,-0.007 -1.301,-0.0117 -1.87007,-0.74803 0.10629,-1.01789 0.50202,-2.03593 1.68307,-3.05381 z m -14.64536,3.05381 c 0.20595,0.31159 0.0851,2.80414 -0.12435,2.80414 -0.22945,0.63311 -0.72681,1.13237 -1.62042,1.4334 l -1.55775,-0.31135 c 0.70413,-1.80478 1.93962,-2.94487 3.30252,-3.92619 z m 8.16372,1.24639 c 0.64749,0.1176 1.05401,0.71698 1.37074,1.49606 -0.42441,0.90792 -0.92667,1.57924 -1.43243,2.24312 -0.39254,-1.15454 -0.29176,-2.41886 0.0617,-3.73918 z m -7.85237,3.73918 c 0.47102,1.36968 0.54687,2.66003 0.18701,3.86353 l -1.62041,1.12204 -1.55775,-1.18374 c 0.67019,-1.26716 1.49757,-2.53467 2.99115,-3.80183 z m 21.95985,7.50824 c 0.35751,0.019 0.64478,0.55061 0.78658,2.15155 -1.36255,3.48182 -2.37687,7.48615 -4.61156,9.65978 l -1.05938,-2.05708 c 0.0293,-2.61835 0.72895,-5.31108 2.8668,-8.16372 0.63171,-0.23125 1.4217,-1.62227 2.01756,-1.59053 z m 280.83848,2.07925 c 0.11724,-0.006 0.23441,-0.006 0.35184,0 1.48612,2.56425 0.71729,5.6908 1.65029,8.42592 0.26326,0.86806 -0.57511,1.52401 -1.18373,0.6873 -2.76138,-1.46154 -6.39279,-2.08621 -7.98637,-5.08004 0.5522,-2.84733 4.00914,-2.81533 6.12979,-3.8481 0.33663,-0.10247 0.68645,-0.16819 1.03818,-0.18508 z m -15.1659,3.07791 5.95435,0.10989 c 1.02856,1.60523 -1.82027,2.99282 -2.71064,1.46906 -1.00447,-0.48016 -2.86234,-0.88294 -3.24371,-1.57895 z m -7.56704,0.54463 14.10073,4.22983 -0.26413,9.16625 c -2.55291,-0.14124 -6.12284,0.73942 -7.54391,-2.07733 l -6.29269,-11.31875 z m -265.98105,3.18008 0.68537,2.49279 -0.2487,2.92946 c -1.80947,1.89552 -3.66821,3.90415 -6.17028,7.4157 l -4.42454,12.52562 c -0.29442,2.32719 -0.91955,1.83899 -1.6821,0.18701 l -2.05708,-4.92291 c -0.5307,-5.33664 3.62793,-7.46557 7.41666,-9.8468 1.23047,-2.58052 3.80115,-2.14504 3.36517,-8.47509 l 3.1155,-2.30578 z m -24.1461,0.23135 c 0.27783,0.0108 0.64649,0.27328 1.18277,0.99481 0.22654,1.39962 0.14305,2.73737 -0.0433,4.05439 -0.83727,-0.44066 -0.34125,0.008 -2.51207,-1.32158 l 0.39619,-2.64413 c 0.30389,-0.41972 0.51343,-1.10144 0.97648,-1.08349 z m 306.32833,1.38906 8.91176,3.61484 c 0.67696,2.59122 -2.47816,4.05518 -4.6289,3.85003 -1.36488,0.15934 -3.04989,1.09519 -4.22213,0.72489 -0.0202,-2.72997 -0.0406,-5.4598 -0.0608,-8.18976 z m -287.16781,2.49279 -1.18373,3.42782 c -4.38278,2.26427 -6.44744,4.52776 -8.03938,6.79202 l 0.99673,-4.98557 c 3.34666,-2.75261 5.50821,-3.52913 8.22638,-5.23427 z m -20.62187,1.65222 c 0.6159,-0.0564 1.28495,0.51452 1.98382,1.45364 l -0.0886,2.15926 -1.2782,-0.0877 -0.74899,-1.01312 0.13205,-2.51206 z m 316.50094,4.49106 -0.54752,10.93221 c -2.73766,-2.0714 -6.56802,-2.9618 -8.49437,-5.93506 -0.31506,-2.17661 1.73314,-4.11285 3.85967,-3.89149 1.7057,-0.4477 3.38807,-1.15624 5.18222,-1.10566 z m -16.34867,2.20746 5.33164,0 c 0.93622,1.33029 -1.12917,3.30807 -2.22095,1.84501 -1.09564,-0.49392 -2.32495,-0.87817 -3.11069,-1.84501 z m -0.23906,2.88318 c 0.17307,-0.0122 0.34759,0.0248 0.51186,0.13207 2.02273,0.62227 5.01384,1.55491 4.67229,4.24139 0.20426,2.52868 -0.1069,6.13858 -3.16466,6.73323 -3.81283,1.22004 -9.10594,-1.22682 -9.21155,-5.54949 1.26255,-2.68408 5.03448,-2.55701 6.3968,-5.188 0.22286,-0.19229 0.50683,-0.34886 0.79526,-0.3692 z m 7.62777,3.34879 7.72707,4.86122 c 0.002,2.5015 -3.08944,2.64107 -4.90461,2.90632 -1.19863,0.79022 -3.36894,0.054 -2.77523,-1.61945 -0.0157,-2.04945 -0.0316,-4.09865 -0.0473,-6.14809 z m -11.78048,9.12383 c 1.80189,0.72163 -0.16088,2.70514 -1.32159,3.00754 -1.22306,0.36194 -0.9366,-1.43187 -0.30461,-1.91346 0.32867,-0.58378 0.89953,-1.15979 1.6262,-1.09408 z m 16.49615,0.49258 c 1.05649,0.0217 2.2049,0.27974 1.85368,1.57896 -0.63176,2.06019 -1.18457,4.13599 -1.50184,6.25992 -0.11879,0.96991 -1.25077,1.55815 -1.77464,0.50607 -1.70645,-1.89513 -3.16866,-4.58425 -2.63255,-7.18146 0.51557,-1.18004 2.00073,-1.17785 3.0885,-1.1365 0.27275,-0.0156 0.61468,-0.0342 0.96685,-0.0269 z m -10.08585,0.0116 c 0.14905,-0.0107 0.29985,-0.003 0.43088,0.0164 1.48407,0.74144 -0.87117,2.19986 -1.15385,0.77309 -0.15665,-0.55847 0.27578,-0.75743 0.72297,-0.78947 z m 3.2302,0.81068 c 1.54545,0.37064 -0.41964,3.12651 -1.01022,1.44979 -0.0588,-0.61739 0.23476,-1.53712 1.01022,-1.44979 z m -7.09663,0.642 c 0.0927,0.005 0.18753,0.0165 0.28533,0.0357 1.13914,0.30527 3.2383,1.38818 2.40507,2.75402 -1.47613,1.20929 -2.83393,3.2347 -4.57204,3.70737 -0.87862,-1.16493 -2.81249,-2.92416 -1.35725,-4.36672 1.01609,-0.74468 1.84939,-2.20365 3.23889,-2.13034 z m 5.43671,3.50204 c 0.10575,-9.3e-4 0.21245,0.004 0.31906,0.0164 2.96107,0.92516 4.62393,4.89977 2.84367,7.54488 -2.9812,-0.0646 -6.20917,-1.23763 -8.28711,-3.23888 0.45145,-1.56138 2.12277,-2.34233 3.08176,-3.55797 0.59065,-0.43537 1.30233,-0.7564 2.04262,-0.76441 z"
       id="path6806"
       inkscape:connector-curvature="0" />
  </g>
</svg>
