<?xml version="1.0" encoding="UTF-8" standalone="no"?>
<!-- Generator: Adobe Illustrator 16.0.0, SVG Export Plug-In . SVG Version: 6.00 Build 0)  -->
<svg xmlns:dc="http://purl.org/dc/elements/1.1/" xmlns:cc="http://creativecommons.org/ns#" xmlns:rdf="http://www.w3.org/1999/02/22-rdf-syntax-ns#" xmlns:svg="http://www.w3.org/2000/svg" xmlns="http://www.w3.org/2000/svg" xmlns:sodipodi="http://sodipodi.sourceforge.net/DTD/sodipodi-0.dtd" xmlns:inkscape="http://www.inkscape.org/namespaces/inkscape" version="1.1" id="toaster" x="0px" y="0px" width="358.92804" height="425" viewBox="0 0 358.92804 425" enable-background="new 0 0 363 310" xml:space="preserve" inkscape:version="0.91 r13725" sodipodi:docname="burnedtoast.svg"><metadata id="metadata40"><rdf:RDF><cc:Work rdf:about=""><dc:format>image/svg+xml</dc:format><dc:type rdf:resource="http://purl.org/dc/dcmitype/StillImage"/><dc:title/></cc:Work></rdf:RDF></metadata><defs id="defs38"/><sodipodi:namedview pagecolor="#ffffff" bordercolor="#666666" borderopacity="1" objecttolerance="10" gridtolerance="10" guidetolerance="10" inkscape:pageopacity="0" inkscape:pageshadow="2" inkscape:window-width="1916" inkscape:window-height="1035" id="namedview36" showgrid="false" fit-margin-top="0" fit-margin-left="0" fit-margin-right="0" fit-margin-bottom="0" inkscape:zoom="0.7" inkscape:cx="-2.1376118" inkscape:cy="164.03156" inkscape:current-layer="toaster" inkscape:window-x="4" inkscape:window-y="1" inkscape:window-maximized="1"/><g transform="translate(-812.58044,132.42858)" id="use4286"/><g id="g22066" transform="translate(-4.4335938e-5,146.20983)"><path id="path4302" d="m 1089.526,34.365 c 0,0 0,-0.79 0,0 0,-9.468 -7.108,-16.58 -15.79,-16.58 l -189.473,0 c -8.685,0 -15.789,7.112 -15.789,15.007 l 0,0.783 c 0,6.318 3.947,11.842 9.475,14.213 8.681,3.947 14.209,12.636 14.209,22.104 l 0,31.052 173.684,0 0,-30.255 c 0,-10.266 5.528,-18.954 14.209,-22.107 5.528,-3.165 9.475,-7.894 9.475,-14.217" inkscape:connector-curvature="0" style="fill:#000000;fill-opacity:1;stroke:#855b27;stroke-width:8;stroke-miterlimit:4;stroke-dasharray:none;stroke-opacity:1" sodipodi:nodetypes="ccsssscsccscc" transform="translate(-812.5804,-13.78125)"/><path sodipodi:nodetypes="ccsssscsccscc" style="fill:#826e48;fill-opacity:1;stroke:none" inkscape:connector-curvature="0" d="m 1089.526,34.365 c 0,0 0,-0.79 0,0 0,-9.468 -7.108,-16.58 -15.79,-16.58 l -189.473,0 c -8.685,0 -15.789,7.112 -15.789,15.007 l 0,0.783 c 0,6.318 3.947,11.842 9.475,14.213 8.681,3.947 14.209,12.636 14.209,22.104 l 0,31.052 173.684,0 0,-30.255 c 0,-10.266 5.528,-18.954 14.209,-22.107 5.528,-3.165 9.475,-7.894 9.475,-14.217" id="path4304" transform="translate(-812.5804,-13.78125)"/><path style="fill:#855b27;fill-opacity:1;stroke:none" inkscape:connector-curvature="0" d="m 876.368,41.474 c 0,0 0,-0.79 0,0 0,-8.685 7.104,-15.79 15.79,-15.79 l 189.473,0 c 2.367,0 4.734,0.791 6.314,1.581 -2.366,-5.528 -7.895,-9.476 -14.209,-9.476 l -189.473,0 c -8.685,0 -15.789,7.104 -15.789,15 l 0,0.791 c 0,6.314 3.947,11.842 9.475,14.209 -0.791,-1.578 -1.581,-3.949 -1.581,-6.315" id="path4306" transform="translate(-812.5804,-13.78125)"/><ellipse ry="51.376755" rx="45.311443" cy="-4.2720604" cx="889.28876" id="path22015" style="opacity:0.45954692;fill:#533e23;fill-opacity:1;stroke:none;stroke-width:2.79999995;stroke-linecap:round;stroke-linejoin:round;stroke-miterlimit:4;stroke-dasharray:none;stroke-opacity:1" transform="translate(-812.5804,-13.78125)"/><ellipse style="opacity:0.45954692;fill:#533e23;fill-opacity:1;stroke:none;stroke-width:2.79999995;stroke-linecap:round;stroke-linejoin:round;stroke-miterlimit:4;stroke-dasharray:none;stroke-opacity:1" id="ellipse22017" cx="945.30371" cy="-4.2720604" rx="35.678303" ry="39.959698" transform="translate(-812.5804,-13.78125)"/><ellipse ry="39.959698" rx="35.678303" cy="-31.387569" cx="906.77112" id="ellipse22019" style="opacity:0.45954692;fill:#533e23;fill-opacity:1;stroke:none;stroke-width:2.79999995;stroke-linecap:round;stroke-linejoin:round;stroke-miterlimit:4;stroke-dasharray:none;stroke-opacity:1" transform="translate(-812.5804,-13.78125)"/><ellipse style="opacity:0.45954692;fill:#533e23;fill-opacity:1;stroke:none;stroke-width:2.79999995;stroke-linecap:round;stroke-linejoin:round;stroke-miterlimit:4;stroke-dasharray:none;stroke-opacity:1" id="ellipse22021" cx="972.06244" cy="-24.965473" rx="26.045162" ry="32.11047" transform="translate(-812.5804,-13.78125)"/><ellipse style="opacity:0.45954692;fill:#533e23;fill-opacity:1;stroke:none;stroke-width:2.79999995;stroke-linecap:round;stroke-linejoin:round;stroke-miterlimit:4;stroke-dasharray:none;stroke-opacity:1" id="ellipse22023" cx="951.36902" cy="-53.508118" rx="45.311443" ry="51.376755" transform="translate(-812.5804,-13.78125)"/><ellipse ry="25.688377" rx="21.050198" cy="12.853523" cx="979.19806" id="ellipse22025" style="opacity:0.45954692;fill:#533e23;fill-opacity:1;stroke:none;stroke-width:2.79999995;stroke-linecap:round;stroke-linejoin:round;stroke-miterlimit:4;stroke-dasharray:none;stroke-opacity:1" transform="translate(-812.5804,-13.78125)"/><ellipse style="opacity:0.45954692;fill:#533e23;fill-opacity:1;stroke:none;stroke-width:2.79999995;stroke-linecap:round;stroke-linejoin:round;stroke-miterlimit:4;stroke-dasharray:none;stroke-opacity:1" id="ellipse22027" cx="999.53473" cy="-31.74435" rx="39.246132" ry="45.311443" transform="translate(-812.5804,-13.78125)"/><ellipse ry="39.959698" rx="35.678303" cy="19.27562" cx="1016.6603" id="ellipse22029" style="opacity:0.45954692;fill:#533e23;fill-opacity:1;stroke:none;stroke-width:2.79999995;stroke-linecap:round;stroke-linejoin:round;stroke-miterlimit:4;stroke-dasharray:none;stroke-opacity:1" transform="translate(-812.5804,-13.78125)"/><ellipse style="opacity:0.45954692;fill:#533e23;fill-opacity:1;stroke:none;stroke-width:2.79999995;stroke-linecap:round;stroke-linejoin:round;stroke-miterlimit:4;stroke-dasharray:none;stroke-opacity:1" id="ellipse22031" cx="927.46454" cy="-89.186417" rx="35.678303" ry="39.959698" transform="translate(-812.5804,-13.78125)"/><ellipse ry="36.391869" rx="32.110474" cy="-72.060837" cx="1001.6754" id="ellipse22033" style="opacity:0.45954692;fill:#533e23;fill-opacity:1;stroke:none;stroke-width:2.79999995;stroke-linecap:round;stroke-linejoin:round;stroke-miterlimit:4;stroke-dasharray:none;stroke-opacity:1" transform="translate(-812.5804,-13.78125)"/><ellipse style="opacity:0.45954692;fill:#533e23;fill-opacity:1;stroke:none;stroke-width:2.79999995;stroke-linecap:round;stroke-linejoin:round;stroke-miterlimit:4;stroke-dasharray:none;stroke-opacity:1" id="ellipse22035" cx="1047.3436" cy="-2.8449275" rx="35.678303" ry="39.959698" transform="translate(-812.5804,-13.78125)"/><ellipse style="opacity:0.45954692;fill:#533e23;fill-opacity:1;stroke:none;stroke-width:2.79999995;stroke-linecap:round;stroke-linejoin:round;stroke-miterlimit:4;stroke-dasharray:none;stroke-opacity:1" id="ellipse22037" cx="1076.9567" cy="1.4364667" rx="21.050198" ry="25.688377" transform="translate(-812.5804,-13.78125)"/><ellipse ry="25.688377" rx="21.050198" cy="-24.965477" cx="1079.0974" id="ellipse22039" style="opacity:0.45954692;fill:#533e23;fill-opacity:1;stroke:none;stroke-width:2.79999995;stroke-linecap:round;stroke-linejoin:round;stroke-miterlimit:4;stroke-dasharray:none;stroke-opacity:1" transform="translate(-812.5804,-13.78125)"/><ellipse style="opacity:0.45954692;fill:#533e23;fill-opacity:1;stroke:none;stroke-width:2.79999995;stroke-linecap:round;stroke-linejoin:round;stroke-miterlimit:4;stroke-dasharray:none;stroke-opacity:1" id="ellipse22041" cx="1012.0222" cy="14.280655" rx="21.050198" ry="25.688377" transform="translate(-812.5804,-13.78125)"/><ellipse ry="25.688377" rx="21.050198" cy="-102.74417" cx="985.6203" id="ellipse22043" style="opacity:0.45954692;fill:#533e23;fill-opacity:1;stroke:none;stroke-width:2.79999995;stroke-linecap:round;stroke-linejoin:round;stroke-miterlimit:4;stroke-dasharray:none;stroke-opacity:1" transform="translate(-812.5804,-13.78125)"/><ellipse style="opacity:0.45954692;fill:#533e23;fill-opacity:1;stroke:none;stroke-width:2.79999995;stroke-linecap:round;stroke-linejoin:round;stroke-miterlimit:4;stroke-dasharray:none;stroke-opacity:1" id="ellipse22045" cx="894.28381" cy="-72.774391" rx="21.050198" ry="25.688377" transform="translate(-812.5804,-13.78125)"/><rect rx="4" ry="4" y="119.26959" x="328.21622" height="61.737289" width="30.711864" id="use4288" style="color:#000000;display:inline;overflow:visible;visibility:visible;fill:#80a0c1;fill-opacity:1;fill-rule:nonzero;stroke:none;stroke-width:1;marker:none;enable-background:accumulate"/><g id="g4388"><path inkscape:connector-curvature="0" id="use4290" d="m 162.589,52.732749 c -27.8791,0.119408 -55.7705,2.24881 -83.1785,6.505584 L 32.1454,66.77286 c -6.0013,0.80477 -11.1531,3.488131 -15.1022,7.368569 l 0,-0.730218 C 11.3715,79.078142 7.5835,85.685264 7.5835,94.18924 l 0,100.17271 0,9.45965 0,11.45965 0.9294,0 320.3999,0 0.9294,0 0,-120.16263 c 0,-14.175686 -10.3861,-26.444823 -24.5619,-28.34576 l -59.5459,-8.497088 c -27.4057,-3.779143 -55.2663,-5.66243 -83.1454,-5.543023 z" style="fill:#cdc0d0;fill-opacity:1;stroke:none" sodipodi:nodetypes="sccccsccccccsccs"/><path inkscape:connector-curvature="0" id="use4292" d="m 162.589,52.732749 c -27.8791,0.119406 -55.7705,2.248808 -83.1785,6.505584 L 32.1454,66.77286 c -6.0013,0.80477 -11.1531,3.488129 -15.1022,7.368569 l 0,110.760871 c 0,5.66692 3.7547,9.45965 9.4264,9.45965 l 255.1782,0 c 5.6683,0 9.4596,-3.79393 9.4596,-9.45965 l 0,-120.154137 -45.373,-6.472391 C 218.3287,54.496628 190.4681,52.613344 162.589,52.732749 Z" style="opacity:0.3;fill:#ffffff;fill-opacity:1;stroke:none"/><g id="use4298" style="opacity:0.4" transform="translate(-778.18593,-13.78125)"><path style="fill:#ffffff;fill-opacity:1;stroke:none" inkscape:connector-curvature="0" d="m 848.99219,164.76824 c 4.90939,0 8.89797,3.97957 8.89797,8.89797 0,4.9184 -3.98858,8.89909 -8.89797,8.89909 -4.90937,0 -8.89796,-3.97957 -8.89796,-8.89909 0,-4.9184 3.98859,-8.89797 8.89796,-8.89797" id="path4338"/><path style="fill:#ffffff;fill-opacity:1;stroke:none" inkscape:connector-curvature="0" d="m 848.99219,155.87141 c -5.3399,0 -8.89796,-3.56258 -8.89796,-8.89797 l 0,-35.59073 c 0,-5.33878 3.55806,-8.89797 8.89796,-8.89797 5.33991,0 8.89797,3.55806 8.89797,8.89797 l 0,35.59073 c 0,5.33428 -3.55806,8.89797 -8.89797,8.89797" id="path4340"/></g></g><g style="color:#000000;display:inline;overflow:visible;visibility:visible;fill:#174961;fill-opacity:1;fill-rule:nonzero;stroke:none;stroke-width:1;marker:none;enable-background:accumulate" id="use4294" transform="translate(-408.5804,-13.78125)"><rect style="color:#000000;display:inline;overflow:visible;visibility:visible;fill:#174961;fill-opacity:1;fill-rule:nonzero;stroke:none;stroke-width:1;marker:none;enable-background:accumulate" id="rect4326" width="49.608372" height="338.89828" x="-276.3287" y="408.58044" ry="3.9999995" rx="4" transform="matrix(0,-1,1,0,0,0)"/><g id="g4328" transform="translate(-369.58103,0)" style="color:#000000;display:inline;overflow:visible;visibility:visible;fill:#174961;fill-opacity:1;fill-rule:nonzero;stroke:none;stroke-width:1;marker:none;enable-background:accumulate"><path sodipodi:nodetypes="sssssssss" inkscape:connector-curvature="0" id="path4330" d="m 820.95942,288.5714 -4,-9.17594 c -0.88552,-2.03138 -0.216,-4 2,-4 l 51.93547,0 c 2.216,0 2.88552,1.96862 2,4 l -4,9.17594 c -0.88552,2.03138 -1.784,4 -4,4 l -39.93547,0 c -2.216,0 -3.11448,-1.96862 -4,-4 z" style="color:#000000;display:inline;overflow:visible;visibility:visible;fill:#174961;fill-opacity:1;fill-rule:nonzero;stroke:none;stroke-width:1;marker:none;enable-background:accumulate"/><path style="color:#000000;display:inline;overflow:visible;visibility:visible;fill:#174961;fill-opacity:1;fill-rule:nonzero;stroke:none;stroke-width:1;marker:none;enable-background:accumulate" d="m 1024.9594,288.5714 -4,-9.17594 c -0.8855,-2.03138 -0.216,-4 2,-4 l 51.9355,0 c 2.216,0 2.8855,1.96862 2,4 l -4,9.17594 c -0.8855,2.03138 -1.784,4 -4,4 l -39.9355,0 c -2.216,0 -3.1145,-1.96862 -4,-4 z" id="path4332" inkscape:connector-curvature="0" sodipodi:nodetypes="sssssssss"/></g></g><path style="opacity:0.49140894;fill:#c7ddef;stroke:none" d="m 7.5759,212.46875 0,13.28125 c 0,4.77871 2.8749,7.96875 7.2187,7.96875 l 30.7812,0 234.2188,0 30.7812,0 c 4.3439,0 7.2188,-3.19004 7.2188,-7.96875 l 0,-13.28125 -38,0 -234.2188,0 -37.9999,0 z" id="use4296" inkscape:connector-curvature="0"/></g></svg>