<?xml version="1.0" encoding="UTF-8" standalone="no"?>
<!-- Generator: Adobe Illustrator 16.0.0, SVG Export Plug-In . SVG Version: 6.00 Build 0)  -->
<svg xmlns:dc="http://purl.org/dc/elements/1.1/" xmlns:cc="http://creativecommons.org/ns#" xmlns:rdf="http://www.w3.org/1999/02/22-rdf-syntax-ns#" xmlns:svg="http://www.w3.org/2000/svg" xmlns="http://www.w3.org/2000/svg" xmlns:sodipodi="http://sodipodi.sourceforge.net/DTD/sodipodi-0.dtd" xmlns:inkscape="http://www.inkscape.org/namespaces/inkscape" version="1.1" id="toaster" x="0px" y="0px" width="358.92804" height="278.79016" viewBox="0 0 358.92804 278.79016" enable-background="new 0 0 363 310" xml:space="preserve" inkscape:version="0.48.5 r10040" sodipodi:docname="toaster.svg"><metadata id="metadata40"><rdf:RDF><cc:Work rdf:about=""><dc:format>image/svg+xml</dc:format><dc:type rdf:resource="http://purl.org/dc/dcmitype/StillImage"/></cc:Work></rdf:RDF></metadata><defs id="defs38"/><sodipodi:namedview pagecolor="#ffffff" bordercolor="#666666" borderopacity="1" objecttolerance="10" gridtolerance="10" guidetolerance="10" inkscape:pageopacity="0" inkscape:pageshadow="2" inkscape:window-width="640" inkscape:window-height="480" id="namedview36" showgrid="false" fit-margin-top="0" fit-margin-left="0" fit-margin-right="0" fit-margin-bottom="0" inkscape:zoom="1.22" inkscape:cx="-2.1375675" inkscape:cy="164.03157" inkscape:current-layer="toaster"/><g transform="translate(-812.5804,-13.78125)" id="use4286"><path sodipodi:nodetypes="ccsssscsccscc" style="fill:#000000;fill-opacity:1;stroke:#b3701f;stroke-width:8;stroke-miterlimit:4;stroke-opacity:1;stroke-dasharray:none" inkscape:connector-curvature="0" d="M 1089.526,34.365 C 1089.526,34.365 1089.526,33.575 1089.526,34.365 1089.526,24.897 1082.418,17.785 1073.736,17.785 L 884.263,17.785 C 875.578,17.785 868.474,24.897 868.474,32.792 L 868.474,33.575 C 868.474,39.893 872.421,45.417 877.949,47.788 886.63,51.735 892.158,60.424 892.158,69.892 L 892.158,100.944 1065.842,100.944 1065.842,70.689 C 1065.842,60.423 1071.37,51.735 1080.051,48.582 1085.579,45.417 1089.526,40.688 1089.526,34.365" id="path4302"/><path id="path4304" d="M 1089.526,34.365 C 1089.526,34.365 1089.526,33.575 1089.526,34.365 1089.526,24.897 1082.418,17.785 1073.736,17.785 L 884.263,17.785 C 875.578,17.785 868.474,24.897 868.474,32.792 L 868.474,33.575 C 868.474,39.893 872.421,45.417 877.949,47.788 886.63,51.735 892.158,60.424 892.158,69.892 L 892.158,100.944 1065.842,100.944 1065.842,70.689 C 1065.842,60.423 1071.37,51.735 1080.051,48.582 1085.579,45.417 1089.526,40.688 1089.526,34.365" inkscape:connector-curvature="0" style="fill:#cfa553;fill-opacity:1;stroke:none" sodipodi:nodetypes="ccsssscsccscc"/><path id="path4306" d="M 876.368,41.474 C 876.368,41.474 876.368,40.684 876.368,41.474 876.368,32.789 883.472,25.684 892.158,25.684 H 1081.631 C 1083.998,25.684 1086.365,26.475 1087.945,27.265 1085.579,21.737 1080.05,17.789 1073.736,17.789 H 884.263 C 875.578,17.789 868.474,24.893 868.474,32.789 V 33.58 C 868.474,39.894 872.421,45.422 877.949,47.789 877.158,46.211 876.368,43.84 876.368,41.474" inkscape:connector-curvature="0" style="fill:#b3701f;fill-opacity:1;stroke:none"/><path id="path4308" d="M 979,33.579 C 983.355,33.579 986.895,37.106 986.895,41.474 986.895,45.841 983.356,49.369 979,49.369 974.644,49.369 971.105,45.842 971.105,41.474 971.105,37.106 974.644,33.579 979,33.579" inkscape:connector-curvature="0" style="fill:#ead89b;fill-opacity:1;stroke:none"/><path id="path4310" d="M 1042.158,33.579 C 1046.513,33.579 1050.053,37.106 1050.053,41.474 1050.053,45.841 1046.514,49.369 1042.158,49.369 1037.802,49.369 1034.262,45.842 1034.262,41.474 1034.263,37.106 1037.802,33.579 1042.158,33.579" inkscape:connector-curvature="0" style="fill:#ead89b;fill-opacity:1;stroke:none"/><path id="path4312" d="M 915.842,33.579 C 920.198,33.579 923.737,37.106 923.737,41.474 923.737,45.841 920.198,49.369 915.842,49.369 911.487,49.369 907.947,45.842 907.947,41.474 907.947,37.106 911.486,33.579 915.842,33.579" inkscape:connector-curvature="0" style="fill:#ead89b;fill-opacity:1;stroke:none"/><path id="path4314" d="M 1010.579,57.263 C 1014.934,57.263 1018.474,60.79 1018.474,65.158 1018.474,69.526 1014.935,73.053 1010.579,73.053 1006.223,73.053 1002.683,69.526 1002.683,65.158 1002.683,60.79 1006.223,57.263 1010.579,57.263" inkscape:connector-curvature="0" style="fill:#ead89b;fill-opacity:1;stroke:none"/><path id="path4316" d="M 947.421,57.263 C 951.777,57.263 955.316,60.79 955.316,65.158 955.316,69.526 951.777,73.053 947.421,73.053 943.065,73.053 939.526,69.526 939.526,65.158 939.526,60.79 943.065,57.263 947.421,57.263" inkscape:connector-curvature="0" style="fill:#ead89b;fill-opacity:1;stroke:none"/></g><rect style="color:#000000;fill:#80a0c1;fill-opacity:1;fill-rule:nonzero;stroke:none;stroke-width:1;marker:none;visibility:visible;display:inline;overflow:visible;enable-background:accumulate" id="use4288" width="30.711864" height="61.737289" x="328.21622" y="119.26959" ry="4" rx="4"/><g id="g4388"><path sodipodi:nodetypes="sccccsccccccsccs" style="fill:#cdc0d0;fill-opacity:1;stroke:none" d="M 162.589,52.732749 C 134.7099,52.852157 106.8185,54.981559 79.4105,59.238333 L 32.1454,66.77286 C 26.1441,67.57763 20.9923,70.260991 17.0432,74.141429 L 17.0432,73.411211 C 11.3715,79.078142 7.5835,85.685264 7.5835,94.18924 L 7.5835,194.36195 7.5835,203.8216 7.5835,215.28125 8.5129,215.28125 328.9128,215.28125 329.8422,215.28125 329.8422,95.11862 C 329.8422,80.942934 319.4561,68.673797 305.2803,66.77286 L 245.7344,58.275772 C 218.3287,54.496629 190.4681,52.613342 162.589,52.732749 z" id="use4290" inkscape:connector-curvature="0"/><path style="opacity:0.3;fill:#ffffff;fill-opacity:1;stroke:none" d="M 162.589,52.732749 C 134.7099,52.852155 106.8185,54.981557 79.4105,59.238333 L 32.1454,66.77286 C 26.1441,67.57763 20.9923,70.260989 17.0432,74.141429 L 17.0432,184.9023 C 17.0432,190.56922 20.7979,194.36195 26.4696,194.36195 L 281.6478,194.36195 C 287.3161,194.36195 291.1074,190.56802 291.1074,184.9023 L 291.1074,64.748163 245.7344,58.275772 C 218.3287,54.496628 190.4681,52.613344 162.589,52.732749 z" id="use4292" inkscape:connector-curvature="0"/><g transform="translate(-778.18593,-13.78125)" style="opacity:0.4" id="use4298"><path id="path4338" d="M 848.99219,164.76824 C 853.90158,164.76824 857.89016,168.74781 857.89016,173.66621 857.89016,178.58461 853.90158,182.5653 848.99219,182.5653 844.08282,182.5653 840.09423,178.58573 840.09423,173.66621 840.09423,168.74781 844.08282,164.76824 848.99219,164.76824" inkscape:connector-curvature="0" style="fill:#ffffff;fill-opacity:1;stroke:none"/><path id="path4340" d="M 848.99219,155.87141 C 843.65229,155.87141 840.09423,152.30883 840.09423,146.97344 V 111.38271 C 840.09423,106.04393 843.65229,102.48474 848.99219,102.48474 854.3321,102.48474 857.89016,106.0428 857.89016,111.38271 V 146.97344 C 857.89016,152.30772 854.3321,155.87141 848.99219,155.87141" inkscape:connector-curvature="0" style="fill:#ffffff;fill-opacity:1;stroke:none"/></g></g><g transform="translate(-408.5804,-13.78125)" id="use4294" style="color:#000000;fill:#174961;fill-opacity:1;fill-rule:nonzero;stroke:none;stroke-width:1;marker:none;visibility:visible;display:inline;overflow:visible;enable-background:accumulate"><rect transform="matrix(0,-1,1,0,0,0)" rx="4" ry="3.9999995" y="408.58044" x="-276.3287" height="338.89828" width="49.608372" id="rect4326" style="color:#000000;fill:#174961;fill-opacity:1;fill-rule:nonzero;stroke:none;stroke-width:1;marker:none;visibility:visible;display:inline;overflow:visible;enable-background:accumulate"/><g style="color:#000000;fill:#174961;fill-opacity:1;fill-rule:nonzero;stroke:none;stroke-width:1;marker:none;visibility:visible;display:inline;overflow:visible;enable-background:accumulate" transform="translate(-369.58103,0)" id="g4328"><path style="color:#000000;fill:#174961;fill-opacity:1;fill-rule:nonzero;stroke:none;stroke-width:1;marker:none;visibility:visible;display:inline;overflow:visible;enable-background:accumulate" d="M 820.95942,288.5714 816.95942,279.39546 C 816.0739,277.36408 816.74342,275.39546 818.95942,275.39546 L 870.89489,275.39546 C 873.11089,275.39546 873.78041,277.36408 872.89489,279.39546 L 868.89489,288.5714 C 868.00937,290.60278 867.11089,292.5714 864.89489,292.5714 L 824.95942,292.5714 C 822.74342,292.5714 821.84494,290.60278 820.95942,288.5714 z" id="path4330" inkscape:connector-curvature="0" sodipodi:nodetypes="sssssssss"/><path sodipodi:nodetypes="sssssssss" inkscape:connector-curvature="0" id="path4332" d="M 1024.9594,288.5714 1020.9594,279.39546 C 1020.0739,277.36408 1020.7434,275.39546 1022.9594,275.39546 L 1074.8949,275.39546 C 1077.1109,275.39546 1077.7804,277.36408 1076.8949,279.39546 L 1072.8949,288.5714 C 1072.0094,290.60278 1071.1109,292.5714 1068.8949,292.5714 L 1028.9594,292.5714 C 1026.7434,292.5714 1025.8449,290.60278 1024.9594,288.5714 z" style="color:#000000;fill:#174961;fill-opacity:1;fill-rule:nonzero;stroke:none;stroke-width:1;marker:none;visibility:visible;display:inline;overflow:visible;enable-background:accumulate"/></g></g><path inkscape:connector-curvature="0" id="use4296" d="M 7.5759,212.46875 7.5759,225.75 C 7.5759,230.52871 10.4508,233.71875 14.7946,233.71875 L 45.5758,233.71875 279.7946,233.71875 310.5758,233.71875 C 314.9197,233.71875 317.7946,230.52871 317.7946,225.75 L 317.7946,212.46875 279.7946,212.46875 45.5758,212.46875 7.5759,212.46875 z" style="opacity:0.49140894;fill:#c7ddef;stroke:none"/></svg>