<?xml version="1.0" encoding="UTF-8" standalone="no"?>
<!-- Created with Inkscape (http://www.inkscape.org/) -->

<svg
   width="210mm"
   height="297mm"
   viewBox="0 0 210 297"
   version="1.1"
   id="svg3067"
   inkscape:version="1.2.1 (9c6d41e410, 2022-07-14)"
   sodipodi:docname="toastytoes.svg"
   xml:space="preserve"
   inkscape:export-filename="toastytoes_jpg.jpg"
   inkscape:export-xdpi="150"
   inkscape:export-ydpi="150"
   xmlns:inkscape="http://www.inkscape.org/namespaces/inkscape"
   xmlns:sodipodi="http://sodipodi.sourceforge.net/DTD/sodipodi-0.dtd"
   xmlns:xlink="http://www.w3.org/1999/xlink"
   xmlns="http://www.w3.org/2000/svg"
   xmlns:svg="http://www.w3.org/2000/svg"><sodipodi:namedview
     id="namedview3069"
     pagecolor="#ffffff"
     bordercolor="#000000"
     borderopacity="0.25"
     inkscape:showpageshadow="2"
     inkscape:pageopacity="0.0"
     inkscape:pagecheckerboard="0"
     inkscape:deskcolor="#d1d1d1"
     inkscape:document-units="mm"
     showgrid="true"
     inkscape:zoom="0.914906"
     inkscape:cx="259.58951"
     inkscape:cy="560.71334"
     inkscape:window-width="2560"
     inkscape:window-height="1377"
     inkscape:window-x="-8"
     inkscape:window-y="-8"
     inkscape:window-maximized="1"
     inkscape:current-layer="g6339"><inkscape:grid
       type="xygrid"
       id="grid6341" /></sodipodi:namedview><defs
     id="defs3064"><inkscape:path-effect
       effect="copy_rotate"
       starting_point="24.154252,76.612137"
       origin="2.987585,44.862137"
       id="path-effect21883"
       is_visible="true"
       lpeversion="1.2"
       lpesatellites=""
       method="normal"
       num_copies="6"
       starting_angle="-56.309932"
       rotation_angle="60"
       gap="-0.01"
       copies_to_360="true"
       mirror_copies="false"
       split_items="false"
       link_styles="false" /><inkscape:path-effect
       effect="copy_rotate"
       starting_point="24.154252,76.612137"
       origin="2.987585,44.862137"
       id="path-effect21873"
       is_visible="true"
       lpeversion="1.2"
       lpesatellites=""
       method="normal"
       num_copies="6"
       starting_angle="-56.309932"
       rotation_angle="60"
       gap="-0.01"
       copies_to_360="true"
       mirror_copies="false"
       split_items="false"
       link_styles="false" /><inkscape:path-effect
       effect="copy_rotate"
       starting_point="24.154252,76.612137"
       origin="2.987585,44.862137"
       id="path-effect21863"
       is_visible="true"
       lpeversion="1.2"
       lpesatellites=""
       method="normal"
       num_copies="6"
       starting_angle="-56.309932"
       rotation_angle="60"
       gap="-0.01"
       copies_to_360="true"
       mirror_copies="false"
       split_items="false"
       link_styles="false" /><inkscape:path-effect
       effect="copy_rotate"
       starting_point="24.154252,76.612137"
       origin="2.987585,44.862137"
       id="path-effect21853"
       is_visible="true"
       lpeversion="1.2"
       lpesatellites=""
       method="normal"
       num_copies="6"
       starting_angle="-56.309932"
       rotation_angle="60"
       gap="-0.01"
       copies_to_360="true"
       mirror_copies="false"
       split_items="false"
       link_styles="false" /><inkscape:path-effect
       effect="copy_rotate"
       starting_point="24.154252,76.612137"
       origin="2.987585,44.862137"
       id="path-effect21783"
       is_visible="true"
       lpeversion="1.2"
       lpesatellites=""
       method="normal"
       num_copies="6"
       starting_angle="-56.309932"
       rotation_angle="60"
       gap="-0.01"
       copies_to_360="true"
       mirror_copies="false"
       split_items="false"
       link_styles="false" /><clipPath
       clipPathUnits="userSpaceOnUse"
       id="clipPath20195"><rect
         style="fill:#00ff00;fill-opacity:0.617117;stroke:none;stroke-width:0.999998;stroke-linecap:round;stroke-linejoin:round;stroke-opacity:1"
         id="rect20197"
         width="174.625"
         height="55.5625"
         x="21.166666"
         y="82.020836" /></clipPath><filter
       style="color-interpolation-filters:sRGB;"
       inkscape:label="Colorize"
       id="filter7677"
       x="0"
       y="0"
       width="1"
       height="1"><feComposite
         in2="SourceGraphic"
         operator="arithmetic"
         k1="0"
         k2="1"
         result="composite1"
         id="feComposite7663" /><feColorMatrix
         in="composite1"
         values="1"
         type="saturate"
         result="colormatrix1"
         id="feColorMatrix7665" /><feFlood
         flood-opacity="1"
         flood-color="rgb(0,66,131)"
         result="flood1"
         id="feFlood7667" /><feBlend
         in="flood1"
         in2="colormatrix1"
         mode="multiply"
         result="blend1"
         id="feBlend7669" /><feBlend
         in2="blend1"
         mode="screen"
         result="blend2"
         id="feBlend7671" /><feColorMatrix
         in="blend2"
         values="1"
         type="saturate"
         result="colormatrix2"
         id="feColorMatrix7673" /><feComposite
         in="colormatrix2"
         in2="SourceGraphic"
         operator="in"
         k2="1"
         result="composite2"
         id="feComposite7675" /></filter><filter
       inkscape:collect="always"
       style="color-interpolation-filters:sRGB"
       id="filter17299"
       x="-8.1578501e-05"
       y="-0.00022683274"
       width="1.0001632"
       height="1.0004537"><feGaussianBlur
         inkscape:collect="always"
         stdDeviation="0.0044247982"
         id="feGaussianBlur17301" /></filter><filter
       style="color-interpolation-filters:sRGB;"
       inkscape:label="Colorize"
       id="filter7677-4"
       x="0"
       y="0"
       width="1"
       height="1"><feComposite
         in2="SourceGraphic"
         operator="arithmetic"
         k1="0"
         k2="1"
         result="composite1"
         id="feComposite7663-9" /><feColorMatrix
         in="composite1"
         values="1"
         type="saturate"
         result="colormatrix1"
         id="feColorMatrix7665-3" /><feFlood
         flood-opacity="1"
         flood-color="rgb(0,66,131)"
         result="flood1"
         id="feFlood7667-5" /><feBlend
         in="flood1"
         in2="colormatrix1"
         mode="multiply"
         result="blend1"
         id="feBlend7669-9" /><feBlend
         in2="blend1"
         mode="screen"
         result="blend2"
         id="feBlend7671-8" /><feColorMatrix
         in="blend2"
         values="1"
         type="saturate"
         result="colormatrix2"
         id="feColorMatrix7673-8" /><feComposite
         in="colormatrix2"
         in2="SourceGraphic"
         operator="in"
         k2="1"
         result="composite2"
         id="feComposite7675-2" /></filter><pattern
       inkscape:collect="always"
       xlink:href="#Polkadots-largewhite"
       id="pattern6901"
       patternTransform="matrix(1.2736482,0,0,1.2736482,31.085375,-4.3276948)" /><pattern
       inkscape:collect="always"
       patternUnits="userSpaceOnUse"
       width="10"
       height="10"
       patternTransform="translate(0,0) scale(10,10)"
       id="Polkadots-largewhite"
       inkscape:stockid="Polka dots, large white"><circle
         style="fill:white;stroke:none"
         cx="2.567"
         cy="0.810"
         r="0.45"
         id="circle6369" /><circle
         style="fill:white;stroke:none"
         cx="3.048"
         cy="2.33"
         r="0.45"
         id="circle6371" /><circle
         style="fill:white;stroke:none"
         cx="4.418"
         cy="2.415"
         r="0.45"
         id="circle6373" /><circle
         style="fill:white;stroke:none"
         cx="1.844"
         cy="3.029"
         r="0.45"
         id="circle6375" /><circle
         style="fill:white;stroke:none"
         cx="6.08"
         cy="1.363"
         r="0.45"
         id="circle6377" /><circle
         style="fill:white;stroke:none"
         cx="5.819"
         cy="4.413"
         r="0.45"
         id="circle6379" /><circle
         style="fill:white;stroke:none"
         cx="4.305"
         cy="4.048"
         r="0.45"
         id="circle6381" /><circle
         style="fill:white;stroke:none"
         cx="5.541"
         cy="3.045"
         r="0.45"
         id="circle6383" /><circle
         style="fill:white;stroke:none"
         cx="4.785"
         cy="5.527"
         r="0.45"
         id="circle6385" /><circle
         style="fill:white;stroke:none"
         cx="2.667"
         cy="5.184"
         r="0.45"
         id="circle6387" /><circle
         style="fill:white;stroke:none"
         cx="7.965"
         cy="1.448"
         r="0.45"
         id="circle6389" /><circle
         style="fill:white;stroke:none"
         cx="7.047"
         cy="5.049"
         r="0.45"
         id="circle6391" /><circle
         style="fill:white;stroke:none"
         cx="4.340"
         cy="0.895"
         r="0.45"
         id="circle6393" /><circle
         style="fill:white;stroke:none"
         cx="7.125"
         cy="0.340"
         r="0.45"
         id="circle6395" /><circle
         style="fill:white;stroke:none"
         cx="7.125"
         cy="10.340"
         r="0.45"
         id="circle6397" /><circle
         style="fill:white;stroke:none"
         cx="9.550"
         cy="1.049"
         r="0.45"
         id="circle6399" /><circle
         style="fill:white;stroke:none"
         cx="7.006"
         cy="2.689"
         r="0.45"
         id="circle6401" /><circle
         style="fill:white;stroke:none"
         cx="8.909"
         cy="2.689"
         r="0.45"
         id="circle6403" /><circle
         style="fill:white;stroke:none"
         cx="9.315"
         cy="4.407"
         r="0.45"
         id="circle6405" /><circle
         style="fill:white;stroke:none"
         cx="7.820"
         cy="3.870"
         r="0.45"
         id="circle6407" /><circle
         style="fill:white;stroke:none"
         cx="8.270"
         cy="5.948"
         r="0.45"
         id="circle6409" /><circle
         style="fill:white;stroke:none"
         cx="7.973"
         cy="7.428"
         r="0.45"
         id="circle6411" /><circle
         style="fill:white;stroke:none"
         cx="9.342"
         cy="8.072"
         r="0.45"
         id="circle6413" /><circle
         style="fill:white;stroke:none"
         cx="8.206"
         cy="9.315"
         r="0.45"
         id="circle6415" /><circle
         style="fill:white;stroke:none"
         cx="9.682"
         cy="9.475"
         r="0.45"
         id="circle6417" /><circle
         style="fill:white;stroke:none"
         cx="-0.318"
         cy="9.475"
         r="0.45"
         id="circle6419" /><circle
         style="fill:white;stroke:none"
         cx="9.688"
         cy="6.186"
         r="0.45"
         id="circle6421" /><circle
         style="fill:white;stroke:none"
         cx="-0.312"
         cy="6.186"
         r="0.45"
         id="circle6423" /><circle
         style="fill:white;stroke:none"
         cx="3.379"
         cy="6.296"
         r="0.45"
         id="circle6425" /><circle
         style="fill:white;stroke:none"
         cx="2.871"
         cy="8.204"
         r="0.45"
         id="circle6427" /><circle
         style="fill:white;stroke:none"
         cx="4.59"
         cy="8.719"
         r="0.45"
         id="circle6429" /><circle
         style="fill:white;stroke:none"
         cx="3.181"
         cy="9.671"
         r="0.45"
         id="circle6431" /><circle
         style="fill:white;stroke:none"
         cx="3.181"
         cy="-0.329"
         r="0.45"
         id="circle6433" /><circle
         style="fill:white;stroke:none"
         cx="5.734"
         cy="7.315"
         r="0.45"
         id="circle6435" /><circle
         style="fill:white;stroke:none"
         cx="6.707"
         cy="6.513"
         r="0.45"
         id="circle6437" /><circle
         style="fill:white;stroke:none"
         cx="5.730"
         cy="9.670"
         r="0.45"
         id="circle6439" /><circle
         style="fill:white;stroke:none"
         cx="5.730"
         cy="-0.330"
         r="0.45"
         id="circle6441" /><circle
         style="fill:white;stroke:none"
         cx="6.535"
         cy="8.373"
         r="0.45"
         id="circle6443" /><circle
         style="fill:white;stroke:none"
         cx="4.37"
         cy="7.154"
         r="0.45"
         id="circle6445" /><circle
         style="fill:white;stroke:none"
         cx="0.622"
         cy="7.25"
         r="0.45"
         id="circle6447" /><circle
         style="fill:white;stroke:none"
         cx="0.831"
         cy="5.679"
         r="0.45"
         id="circle6449" /><circle
         style="fill:white;stroke:none"
         cx="1.257"
         cy="8.519"
         r="0.45"
         id="circle6451" /><circle
         style="fill:white;stroke:none"
         cx="1.989"
         cy="6.877"
         r="0.45"
         id="circle6453" /><circle
         style="fill:white;stroke:none"
         cx="0.374"
         cy="3.181"
         r="0.45"
         id="circle6455" /><circle
         style="fill:white;stroke:none"
         cx="10.374"
         cy="3.181"
         r="0.45"
         id="circle6457" /><circle
         style="fill:white;stroke:none"
         cx="1.166"
         cy="1.664"
         r="0.45"
         id="circle6459" /><circle
         style="fill:white;stroke:none"
         cx="1.151"
         cy="0.093"
         r="0.45"
         id="circle6461" /><circle
         style="fill:white;stroke:none"
         cx="1.151"
         cy="10.093"
         r="0.45"
         id="circle6463" /><circle
         style="fill:white;stroke:none"
         cx="1.302"
         cy="4.451"
         r="0.45"
         id="circle6465" /><circle
         style="fill:white;stroke:none"
         cx="3.047"
         cy="3.763"
         r="0.45"
         id="circle6467" /></pattern><filter
       style="color-interpolation-filters:sRGB"
       inkscape:label="Colorize"
       id="filter7677-4-0"
       x="0"
       y="0"
       width="1"
       height="1"><feComposite
         in2="SourceGraphic"
         operator="arithmetic"
         k1="0"
         k2="1"
         result="composite1"
         id="feComposite7663-9-5"
         k3="0"
         k4="0" /><feColorMatrix
         in="composite1"
         values="1"
         type="saturate"
         result="colormatrix1"
         id="feColorMatrix7665-3-6" /><feFlood
         flood-opacity="1"
         flood-color="rgb(0,66,131)"
         result="flood1"
         id="feFlood7667-5-4" /><feBlend
         in="flood1"
         in2="colormatrix1"
         mode="multiply"
         result="blend1"
         id="feBlend7669-9-3" /><feBlend
         in2="blend1"
         mode="screen"
         result="blend2"
         id="feBlend7671-8-9" /><feColorMatrix
         in="blend2"
         values="1"
         type="saturate"
         result="colormatrix2"
         id="feColorMatrix7673-8-3" /><feComposite
         in="colormatrix2"
         in2="SourceGraphic"
         operator="in"
         result="composite2"
         id="feComposite7675-2-6" /></filter><pattern
       inkscape:collect="always"
       xlink:href="#Wavywhite"
       id="pattern14892"
       patternTransform="matrix(0.36748688,0.00839186,-0.01369351,0.59964518,34.043122,-0.144596)" /><pattern
       inkscape:collect="always"
       patternUnits="userSpaceOnUse"
       width="30.066020"
       height="5.1805778"
       id="Wavywhite"
       inkscape:stockid="Wavy white"
       inkscape:isstock="true"><path
         style="fill:white;stroke:none;"
         d="M 7.597,0.061 C 5.079,-0.187 2.656,0.302 -0.01,1.788 L -0.01,3.061 C 2.773,1.431 5.173,1.052 7.472,1.280 C 9.770,1.508 11.969,2.361 14.253,3.218 C 18.820,4.931 23.804,6.676 30.066,3.061 L 30.062,1.788 C 23.622,5.497 19.246,3.770 14.691,2.061 C 12.413,1.207 10.115,0.311 7.597,0.061 z "
         id="path6473" /></pattern><filter
       inkscape:collect="always"
       style="color-interpolation-filters:sRGB"
       id="filter17299-6"
       x="-8.1578501e-05"
       y="-0.00022683274"
       width="1.0001632"
       height="1.0004537"><feGaussianBlur
         inkscape:collect="always"
         stdDeviation="0.0044247982"
         id="feGaussianBlur17301-7" /></filter></defs><g
     inkscape:groupmode="layer"
     id="layer5"
     inkscape:label="Circle"
     style="display:none"
     sodipodi:insensitive="true"><path
       sodipodi:type="star"
       style="fill:#183a70;fill-opacity:1;stroke:#313546;stroke-width:0"
       id="path3552"
       inkscape:flatsided="false"
       sodipodi:sides="200"
       sodipodi:cx="15.405307"
       sodipodi:cy="47.648972"
       sodipodi:r1="165.11786"
       sodipodi:r2="168.48761"
       sodipodi:arg1="0.78539816"
       sodipodi:arg2="0.80110613"
       inkscape:rounded="0"
       inkscape:randomized="0"
       d="m 132.16126,164.40493 0.49673,4.23943 -4.22173,-0.62965 0.36332,4.25294 -4.19987,-0.76195 0.22955,4.26226 -4.17387,-0.89349 0.0956,4.26736 -4.14374,-1.02415 -0.0385,4.26825 -4.10953,-1.1538 -0.17258,4.26493 -4.07126,-1.28232 -0.30646,4.25742 -4.02897,-1.40957 -0.44004,4.24569 -3.982704,-1.53543 -0.573183,4.22977 -3.932511,-1.65977 -0.70576,4.20968 -3.878435,-1.78247 -0.837641,4.18543 -3.820534,-1.90341 -0.968695,4.15705 -3.75886,-2.02248 -1.098794,4.12458 -3.693478,-2.13956 -1.227807,4.08803 -3.624451,-2.25451 -1.355609,4.04744 -3.551846,-2.36724 -1.482074,4.00286 -3.475737,-2.47764 -1.607075,3.95434 -3.396197,-2.5856 -1.730491,3.90191 -3.313306,-2.691 -1.852199,3.84562 -3.227144,-2.79374 -1.97208,3.78555 -3.137798,-2.89373 -2.090013,3.72173 -3.045355,-2.99086 -2.205885,3.65425 -2.949907,-3.08505 -2.319579,3.58316 -2.851548,-3.17618 -2.430984,3.50853 -2.750375,-3.26419 -2.53999,3.43045 -2.646488,-3.34897 -2.646489,3.34897 -2.539988,-3.43045 -2.750377,3.26419 -2.4309818,-3.50853 -2.8515505,3.17618 -2.31957652,-3.58316 -2.94990968,3.08505 -2.2058823,-3.65425 -3.0453577,2.99086 -2.0900115,-3.72173 -3.1378,2.89373 -1.972077,-3.78555 -3.227146,2.79374 -1.852198,-3.84562 -3.313307,2.691 -1.730489,-3.90191 -3.396199,2.5856 -1.607074,-3.95434 -3.475738,2.47764 -1.482072,-4.00286 -3.551848,2.36724 -1.355608,-4.04744 -3.624452,2.25451 -1.227806,-4.08803 -3.69348,2.13956 -1.098791,-4.12458 -3.758862,2.02248 -0.968694,-4.15705 -3.820535,1.90341 -0.837639,-4.18543 -3.878438,1.78247 -0.705758,-4.20968 -3.932513,1.65977 -0.57318,-4.22977 -3.982707,1.53542 -0.440038,-4.24568 -4.02897,1.40957 -0.306461,-4.25741 -4.071257,1.28231 -0.172581,-4.26493 -4.109527,1.1538 -0.03853,-4.26825 -4.143741,1.02415 0.09556,-4.26736 -4.173866,0.89348 0.229551,-4.26224 -4.199871,0.76194 0.363318,-4.25294 -4.221735,0.62964 0.49673,-4.23942 -4.23943,0.49672 0.62965,-4.22173 -4.25294,0.36332 0.76194,-4.19987 -4.26225,0.22955 0.89349,-4.17386 -4.26736,0.0956 1.02415,-4.14374 -4.26825,-0.0385 1.1538,-4.10953 -4.26493,-0.17258 1.28231,-4.07125 -4.25741,-0.30647 1.40957,-4.02896 -4.24569,-0.44004 1.53543,-3.98271 -4.22977,-0.57318 1.65976,-3.93251 -4.20967,-0.70576 1.78247,-3.87844 -4.18543,-0.83764 1.90341,-3.82053 -4.15705,-0.9687 2.02248,-3.75886 -4.12458,-1.09879 2.13955,-3.69348 -4.08802,-1.22781 2.25451,-3.62445 -4.04744,-1.35561 2.36724,-3.551843 -4.00286,-1.482074 2.47764,-3.475737 -3.95434,-1.607075 2.5856,-3.396197 -3.90191,-1.730492 2.691,-3.313305 -3.84562,-1.852199 2.79374,-3.227144 -3.78555,-1.97208 2.89373,-3.137798 -3.72173,-2.090013 2.99086,-3.045356 -3.65425,-2.205884 3.08505,-2.949908 -3.58316,-2.319578 3.17618,-2.851549 -3.50853,-2.430984 3.26418,-2.750375 -3.43044,-2.53999 3.34897,-2.646487 -3.34897,-2.646489 3.43044,-2.539988 -3.26418,-2.750377 3.50853,-2.430982 -3.17618,-2.851551 3.58316,-2.319576 -3.08505,-2.94991 3.65425,-2.205882 -2.99086,-3.045358 3.72173,-2.090011 -2.89373,-3.1378 3.78555,-1.972077 -2.79374,-3.227147 3.84562,-1.852197 -2.691,-3.3133074 3.90191,-1.7304892 -2.5856,-3.3961989 3.95434,-1.6070735 -2.47764,-3.4757386 4.00286,-1.4820718 -2.36724,-3.5518482 4.04744,-1.3556074 -2.25451,-3.624453 4.08802,-1.227805 -2.13955,-3.69348 4.12458,-1.098791 -2.02248,-3.758863 4.15705,-0.968693 -1.90341,-3.820535 4.18543,-0.837639 -1.78247,-3.878438 4.20967,-0.705758 -1.65976,-3.932513 4.22977,-0.573181 -1.53543,-3.982706 4.24569,-0.440038 -1.40957,-4.02897 4.25741,-0.306461 -1.28231,-4.071257 4.26493,-0.172581 -1.1538,-4.109528 4.26825,-0.03853 -1.02415,-4.143742 4.26736,0.09556 -0.89349,-4.173866 4.26225,0.229551 -0.76194,-4.199872 4.25294,0.363319 -0.62965,-4.221733 4.23943,0.496727 -0.49673,-4.239426 4.221734,0.629645 -0.363317,-4.252937 4.19987,0.761942 -0.229549,-4.26225 4.173864,0.893487 -0.09555,-4.267358 4.143739,1.024151 0.03853,-4.268254 4.109525,1.153804 0.172583,-4.264937 4.071255,1.282317 0.306463,-4.257411 4.028968,1.409566 0.44004,-4.245685 3.982705,1.535423 0.573182,-4.229767 3.932511,1.659765 0.70576,-4.209679 3.878436,1.782472 0.837641,-4.185432 3.820533,1.90342 0.968696,-4.15706 3.75886,2.02248 1.098793,-4.12457 3.693478,2.13955 1.227808,-4.08803 3.62445,2.25451 1.35561,-4.04744 3.551846,2.36725 1.482074,-4.00287 3.475736,2.47764 1.607076,-3.95433 3.396197,2.58559 1.730491,-3.9019 3.313305,2.691 1.8522,-3.84563 3.227144,2.79374 1.972079,-3.78554 3.137798,2.89373 2.0900136,-3.72174 3.0453555,2.99087 2.2058845,-3.65425 2.94990746,3.08504 2.31957884,-3.58316 2.8515482,3.17619 2.430984,-3.50854 2.7503749,3.26419 2.53999,-3.43044 2.646487,3.34896 2.64649,-3.34896 2.539988,3.43044 2.750377,-3.26419 2.430981,3.50854 2.851551,-3.17619 2.319576,3.58316 2.94991,-3.08504 2.205882,3.65425 3.045358,-2.99087 2.090011,3.72174 3.137801,-2.89373 1.972077,3.78554 3.227146,-2.79374 1.852197,3.84563 3.313308,-2.691 1.730489,3.9019 3.396199,-2.58559 1.607073,3.95433 3.475739,-2.47764 1.482072,4.00287 3.551848,-2.36725 1.355607,4.04744 3.624453,-2.25451 1.227805,4.08803 3.69348,-2.13955 1.098792,4.12457 3.758862,-2.02248 0.968693,4.15706 3.820536,-1.90342 0.837639,4.185432 3.878437,-1.782472 0.705759,4.209679 3.932512,-1.659765 0.573181,4.229767 3.982705,-1.535423 0.44004,4.245684 4.02897,-1.409565 0.30646,4.257411 4.07126,-1.282317 0.17258,4.264936 4.10953,-1.153802 0.0385,4.268252 4.14374,-1.024149 -0.0956,4.267356 4.17387,-0.893486 -0.22955,4.262249 4.19987,-0.76194 -0.36332,4.252935 4.22173,-0.629644 -0.49673,4.239425 4.23943,-0.496725 -0.62964,4.221731 4.25293,-0.363317 -0.76194,4.19987 4.26225,-0.229549 -0.89349,4.173864 4.26736,-0.09556 -1.02415,4.14374 4.26825,0.03853 -1.1538,4.109526 4.26494,0.172582 -1.28232,4.071256 4.25741,0.306463 -1.40956,4.028968 4.24568,0.44004 -1.53542,3.982704 4.22976,0.573183 -1.65976,3.932511 4.20968,0.70576 -1.78247,3.878436 4.18543,0.837641 -1.90342,3.820533 4.15706,0.968695 -2.02248,3.758861 4.12457,1.098793 -2.13955,3.693478 4.08803,1.227808 -2.25452,3.6244499 4.04745,1.3556096 -2.36725,3.5518461 4.00287,1.4820739 -2.47765,3.4757364 3.95434,1.6070757 -2.5856,3.3961967 3.90191,1.7304914 -2.691,3.3133053 3.84563,1.852199 -2.79375,3.227145 3.78555,1.972079 -2.89373,3.137798 3.72174,2.090013 -2.99087,3.045356 3.65425,2.205884 -3.08504,2.949908 3.58316,2.319579 -3.17619,2.851548 3.50853,2.430984 -3.26418,2.750375 3.43044,2.53999 -3.34896,2.646487 3.34896,2.646489 -3.43044,2.539988 3.26418,2.750377 -3.50853,2.430982 3.17619,2.851551 -3.58316,2.319576 3.08504,2.94991 -3.65425,2.205882 2.99087,3.045358 -3.72174,2.090011 2.89373,3.1378 -3.78555,1.972077 2.79375,3.227147 -3.84563,1.852197 2.691,3.313307 -3.90191,1.73049 2.5856,3.396199 -3.95434,1.607073 2.47765,3.475739 -4.00287,1.482071 2.36725,3.551845 -4.04744,1.35561 2.25451,3.62445 -4.08803,1.22781 2.13955,3.69348 -4.12457,1.09879 2.02248,3.75886 -4.15706,0.9687 1.90342,3.82053 -4.18543,0.83764 1.78247,3.87844 -4.20968,0.70576 1.65976,3.93251 -4.22976,0.57318 1.53542,3.98271 -4.24568,0.44003 1.40956,4.02897 -4.25741,0.30646 1.28232,4.07126 -4.26494,0.17258 1.1538,4.10953 -4.26825,0.0385 1.02415,4.14374 -4.26736,-0.0956 0.89349,4.17386 -4.26225,-0.22955 0.76194,4.19987 -4.25293,-0.36332 0.62964,4.22174 z"
       transform="matrix(0.55810438,0,0,0.55810438,130.44535,121.7623)"
       inkscape:label="stars" /><ellipse
       style="fill:url(#pattern6901);fill-opacity:1;stroke:none;stroke-width:0;filter:url(#filter7677-4-0)"
       id="path4419"
       cx="139.04312"
       cy="148.35541"
       rx="91.536186"
       ry="90.799477"
       inkscape:label="dots" /><circle
       style="display:inline;fill:#ffffff;fill-opacity:1;stroke:none;stroke-width:0"
       id="path7780"
       cx="139.04312"
       cy="148.35541"
       r="82.020828"
       inkscape:label="White mantle" /><circle
       style="display:inline;fill:#2457a8;fill-opacity:1;stroke:none;stroke-width:0"
       id="circle7782"
       cx="139.04312"
       cy="148.35541"
       r="63.235413"
       inkscape:label="Lighter Inner" /><circle
       style="display:inline;fill:url(#pattern14892);fill-opacity:1;stroke:none;stroke-width:0"
       id="circle14836"
       cx="139.04312"
       cy="148.35541"
       r="63.235413"
       inkscape:label="Wavy Circle" /><circle
       style="display:none;fill:none;fill-opacity:1;stroke:#b0389c;stroke-width:1.2034;stroke-dasharray:none;stroke-opacity:1"
       id="circle15326"
       cx="-148.44431"
       cy="-138.50038"
       r="76.097404"
       inkscape:label="Lower word guide"
       transform="matrix(-8.493062e-4,-0.99999964,-0.99999964,8.493062e-4,0,0)" /><circle
       style="display:none;fill:none;fill-opacity:1;stroke:#38b058;stroke-width:1.05397;stroke-dasharray:none;stroke-opacity:1"
       id="circle15263-8"
       cx="139.00958"
       cy="-148.38681"
       r="66.64801"
       inkscape:label="Guide Upper Word "
       transform="rotate(93.724641)" /><text
       xml:space="preserve"
       style="font-weight:bold;font-size:19.7556px;font-family:Arial;-inkscape-font-specification:'Arial Bold';text-align:center;letter-spacing:-0.399521px;word-spacing:-0.963083px;text-anchor:middle;display:inline;fill:#173669;fill-opacity:1;stroke:none;stroke-width:1;stroke-dasharray:none;stroke-opacity:1;filter:url(#filter17299-6)"
       id="text15382-0"
       inkscape:label="Text Upper"><textPath
         xlink:href="#circle15263-8"
         startOffset="50%"
         id="textPath15555-0"
         style="font-style:normal;font-variant:normal;font-weight:normal;font-stretch:normal;font-size:19.7556px;font-family:'Eras Bold ITC';-inkscape-font-specification:'Eras Bold ITC, Normal';font-variant-ligatures:normal;font-variant-caps:normal;font-variant-numeric:normal;font-variant-east-asian:normal;display:inline;fill:#173669;fill-opacity:1;stroke:none;stroke-width:1;stroke-opacity:1"
         dx="0">Bio Mon Tools</textPath></text><text
       xml:space="preserve"
       style="font-weight:bold;font-size:14.1111px;font-family:Arial;-inkscape-font-specification:'Arial Bold';text-align:center;text-anchor:middle;fill:#173669;fill-opacity:1;stroke:none;stroke-width:1;stroke-dasharray:none;stroke-opacity:1"
       id="text15567"
       inkscape:label="Text Lower"><textPath
         xlink:href="#circle15326"
         startOffset="50%"
         id="textPath15572"
         style="font-style:normal;font-variant:normal;font-weight:normal;font-stretch:normal;font-size:14.1111px;font-family:'Eras Bold ITC';-inkscape-font-specification:'Eras Bold ITC, Normal';font-variant-ligatures:normal;font-variant-caps:normal;font-variant-numeric:normal;font-variant-east-asian:normal;fill:#173669;fill-opacity:1">Bioassessment Biomonitoring</textPath></text></g><g
     inkscape:groupmode="layer"
     id="layer4"
     inkscape:label="Backing"
     style="display:inline;fill:#ffffff"
     sodipodi:insensitive="true"><rect
       style="opacity:0.5;fill:#ffffff;fill-opacity:1;stroke:#ffffff;stroke-width:2;stroke-linecap:round;stroke-linejoin:round;stroke-dasharray:none;stroke-opacity:1"
       id="rect8122"
       width="190"
       height="190"
       x="10.410906"
       y="24.292114"
       rx="0.37030113"
       ry="0.5001877"
       inkscape:label="square_white" /></g><g
     inkscape:groupmode="layer"
     id="layer3"
     inkscape:label="Text"
     style="display:inline"><g
       id="g6339"
       transform="translate(22.754166)"
       style="stroke:#174961;stroke-opacity:1"><circle
         style="display:inline;fill:none;fill-opacity:1;stroke:#80a0c1;stroke-width:1.05397;stroke-dasharray:none;stroke-opacity:1"
         id="circle15263"
         cx="114.69805"
         cy="-90.022789"
         r="66.64801"
         inkscape:label="Guide Upper Word "
         transform="rotate(93.724641)" /><text
         xml:space="preserve"
         style="font-weight:bold;font-size:19.7556px;font-family:Arial;-inkscape-font-specification:'Arial Bold';text-align:center;letter-spacing:-0.399521px;word-spacing:-0.963083px;text-anchor:middle;display:inline;fill:#174961;fill-opacity:1;stroke:#174961;stroke-width:2;stroke-dasharray:none;stroke-opacity:1;filter:url(#filter17299)"
         id="text15382"
         inkscape:label="Text Upper"
         transform="translate(0.70280523,-1.4459587)"><textPath
           xlink:href="#circle15263"
           startOffset="50%"
           id="textPath15555"
           style="font-style:normal;font-variant:normal;font-weight:normal;font-stretch:normal;font-size:19.7556px;font-family:'Kristen ITC';-inkscape-font-specification:'Kristen ITC, Normal';font-variant-ligatures:normal;font-variant-caps:normal;font-variant-numeric:normal;font-variant-east-asian:normal;display:inline;fill:#174961;fill-opacity:1;stroke:#174961;stroke-width:2;stroke-dasharray:none;stroke-opacity:1">Toasty Toes </textPath></text></g><text
       xml:space="preserve"
       style="font-weight:bold;font-size:14.1111px;font-family:Arial;-inkscape-font-specification:'Arial Bold';text-align:center;text-anchor:middle;fill:#174961;fill-opacity:1;stroke:#174961;stroke-width:1;stroke-dasharray:none;stroke-opacity:1"
       id="text15567-3"
       inkscape:label="Text Lower"
       transform="translate(-34.574449,-25.019243)"><textPath
         xlink:href="#circle15326"
         startOffset="50%"
         id="textPath15572-0"
         style="font-style:normal;font-variant:normal;font-weight:normal;font-stretch:normal;font-size:21.1667px;font-family:'Kristen ITC';-inkscape-font-specification:'Kristen ITC, Normal';font-variant-ligatures:normal;font-variant-caps:normal;font-variant-numeric:normal;font-variant-east-asian:normal;fill:#174961;fill-opacity:1;stroke:#174961;stroke-opacity:1">2023</textPath></text></g><g
     inkscape:groupmode="layer"
     id="layer2"
     inkscape:label="Toes"
     style="display:inline"
     transform="translate(-3.7974791)"><g
       id="g6319"
       transform="matrix(0.84369298,0,0,0.84369298,36.398007,18.627426)"><g
         id="g4344"
         transform="matrix(0.32505221,0.11435087,-0.09026981,0.25659971,211.61295,75.535441)"
         inkscape:label="Carmel2"
         style="display:inline"><path
           id="path4304"
           d="m -309.33,101.9 c 4.8861,4.0574 4.2053,11.943 5.2969,17.082 -3.713,-3.3121 -9.0257,-5.1261 -13.986,-3.2598 -2.5699,1.2073 -8.4349,1.9202 -7.6777,5.7695 1.8352,3.4154 5.5367,5.9581 9.5508,5.3125 -2.5739,1.6691 -7.8233,0.59767 -6.6348,4.4902 -4.0028,0.33433 -7.4823,-2.0667 -10.875,-3.8398 2.5458,5.4966 1.7621,18.591 3.0553,23.919 7.2076,-3.2728 27.013,-11.739 35.146,-11.256 -5.8276,-7.1847 -6.1632,-16.474 -4.5317,-23.454 1.9362,-6.4261 -0.57688,-15.088 -7.9668,-16.379 -2.914,-0.0387 -5.4668,-2.0503 -1.377,1.6152 z m 28.691,1.4336 c -0.48203,2.2951 -0.23838,5.2269 -0.75,7.1895 -4.6746,-2.5529 -10.85,0.0728 -12.707,4.957 0.19678,-2.8675 0.65364,-5.7787 -0.30078,-8.582 -5.4302,8.7697 0.0202,18.777 3.7129,27.018 2.3738,4.9062 -3.3332,7.954 1.7075,10.576 10.4,9.9239 25.651,26.104 40.064,31.052 0.84511,0.48231 6.9771,2.155 3.6249,1.7804 -17.081,-4.7282 -27.303,-21.846 -44.404,-26.57 7.8574,15.697 25.992,21.511 37.748,33.432 2.0215,2.2025 -4.5937,-1.7776 -5.922,-1.9672 -10.79,-3.7236 -17.801,-13.327 -27.17,-19.123 -5.8527,-0.73372 -11.698,-1.6868 -17.592,-2.0976 -11.085,0.30133 -22.041,4.8411 -30.633,11.697 -2.9672,3.4848 3.2909,6.6935 4.7113,9.5386 7.1597,6.6072 10.134,15.967 10.821,25.37 2.8531,19.454 4.7921,38.926 4.0672,58.626 -0.91362,15.313 8.2875,31.342 23.498,35.676 9.0572,3.4075 20.34,0.72234 25.32,-8.0215 8.6921,-12.926 7.1388,-30.673 14.58,-43.422 -0.55729,8.561 2.4531,1.9122 3.6543,-2.2949 -4.083,-1.0956 -1.2913,-6.3117 -1.3652,-9.1289 0.97986,-9.1304 13.765,-12.677 12.078,-22.537 -0.59021,-5.9088 -0.55586,-13.549 -6.3377,-16.933 7.8983,0.4739 7.1394,10.252 7.5932,15.898 0.66296,2.9618 -0.66989,7.013 1.1822,9.4556 2.895,-0.39761 2.675,-5.2319 4.0117,-7.4531 3.3081,-9.2665 1.8155,-20.222 -5.4102,-27.266 -0.62159,-4.6424 3.57,-8.6874 3.9902,-13.377 -4.9452,-0.0263 -3.1483,-7.4944 -0.7168,-9.6973 3.9634,-4.8448 -0.71398,-11.683 -5.2832,-14.254 -1.805,-1.4132 -5.1543,-0.83072 -3.5918,1.8555 1.1782,2.346 -2.8122,5.7578 -1.7891,1.7226 0.63224,-2.3989 1.7042,-4.9169 -1.6875,-4.0469 -1.5456,-0.21527 -3.1665,2.6646 -3.3301,2.5059 -0.21422,-4.1707 3.6455,-5.5788 6.5801,-6.9023 0.8277,-4.9431 -1.872,-10.312 -4.8027,-14.291 -2.6342,-3.3696 -6.606,-5.5657 -10.852,-6.0684 0.98424,2.8014 2.2533,7.3818 -0.3125,9.4043 -3.0174,0.62319 -0.7919,3.7695 1.4434,3.6211 2.9617,0.42722 2.8319,3.5039 1.3867,4.5879 -4.1128,-1.1782 -8.6278,0.21399 -12.559,-0.52344 -3.4863,-5.9262 -3.889,-16.002 3.4375,-19.359 2.7088,-1.6121 6.8016,-1.3649 5.2715,-5.4023 -0.14276,-3.3111 -1.7554,-6.6834 -4.9473,-8.0312 -0.94682,2.296 0.89901,7.3707 -3.2617,5.7305 -5.1281,-0.65767 -12.483,0.18619 -14.447,5.207 0.75999,2.8282 4.0655,5.2055 4.9082,7.3242 -2.1869,0.29579 -3.7241,0.90067 -4.207,-2.1309 -2.8494,-6.864 -2.6855,-17.044 5.4609,-20.135 -1.0967,-2.79 -3.469,-4.9492 -6.2832,-5.9375 l -0.14265,0.98977 -0.0488,0.33835 z m -48.961,4.2852 c -6.7673,5.0063 -8.0156,18.419 1.2417,21.286 1.2836,-0.81477 -1.2271,-5.5545 -1.0308,-8.1302 -1.1738,-4.648 1.1328,-9.0495 1.3788,-13.502 0.45047,-2.4082 -1.0404,0.18064 -1.5898,0.34607 z m 36.361,14.1 c 0.804,0.84393 2.9773,2.0236 0.80469,1.5606 -0.3896,-0.43891 -0.64543,-1.0478 -0.80469,-1.5606 z m 51.098,37.947 c 0.78872,1.9013 3.667,5.9121 2.873,6.7461 -1.5735,-1.7595 -2.7866,-4.9534 -2.873,-6.7461 z m -2.9707,2.2148 c 1.3145,2.323 1.8817,3.4138 0.20117,0.45508 -0.18459,-0.28797 -1.3802,-2.789 -0.20117,-0.45508 z m -85.766,34.811 c 8.4054,25.529 15.386,52.469 10.284,79.416 -2.2001,10.543 -3.6023,22.645 3.8603,31.635 10.748,14.002 30.937,21.722 47.852,15.244 8.4089,-3.4583 12.164,-12.554 12.713,-21.092 0.47486,-5.0103 1.6055,-10.155 0.53516,-15.127 -4.7848,10.364 -6.4611,24.48 -18.129,29.82 -16.371,5.7696 -33.744,-7.6987 -37.98,-23.33 -6.9771,-22.327 -1.1939,-46.227 -5.8789,-69.057 -0.88693,-10.064 -2.2561,-21.386 -10.932,-27.986 -2.5881,-1.6659 -4.4462,-5.0348 -2.3242,0.47657 z"
           fill="#fce2b7" /><path
           id="path22"
           d="m -314.05,100.09 c -2.5918,0.084 -5.2324,0.88086 -7.4824,1.7559 -9.4,3.8 -10.4,14.901 -8,23.801 0.7,2.7 1.8008,5.1 4.8008,4.5 3.5,-0.7 7.3,-1.3016 10.5,-3.1016 0.1,-0.1 4e-4,-1.3984 -0.0996,-1.3984 -2.6,0.4 -5.5012,0.49883 -7.7012,-1.2012 -1.4496,-1.1017 -2.1942,-2.6406 -2.9141,-4.207 0.0702,-0.0663 0.13948,-0.13474 0.21484,-0.19336 2.3,-2 5.3988,-3.0992 8.2988,-3.6992 4.3,-1 7.7012,-0.3 10.701,3 0.80001,-0.4 1.1,-0.20039 1,0.59961 0.1,0.5 0.19922,1.0996 0.19922,1.5996 0.1,1.2 0.10078,2.5012 0.30078,3.7012 0.2,2.1 0.49922,4.1988 0.69922,6.2988 0.1,0.8 0.4,0.7 0.5,0 1,-7.2 0.20078,-14.198 -1.1992,-20.898 -0.8,-4.1 -1.0008,-7.9008 -5.3008,-9.8008 -1.425,-0.6 -2.9625,-0.80625 -4.5176,-0.75586 z m 29.504,0.084 c -1.7568,-0.043 -3.4609,0.28515 -5.0859,1.4726 -2.6,1.9 -4.1008,4.8984 -4.8008,7.8984 -0.7,3.2 -0.99843,6.7 -0.39843,10 0.3,1.7 1.0988,5.4 3.2988,5.5 h 0.0996 c 0.7,-1.1 1.4004,-2.0984 1.9004,-3.3984 0,-0.2 -0.0992,-1.1004 -0.19922,-0.90039 -1.7,3.7 -4.2004,-1.3004 -3.9004,-3.4004 0.1,-1.4 1.2992,-3.0996 2.1992,-4.0996 2.5,-3 6.8016,-3.8 10.102,-1.5 1.3,1 1.3984,-4.3008 1.3984,-4.8008 0,-0.8 0.20157,-6.1004 -1.3984,-6.4004 -1.0875,-0.1875 -2.1608,-0.34531 -3.2148,-0.37109 z m 14.541,11.447 c -4.2373,0.0342 -8.4024,1.3613 -10.027,5.4238 -1.1,2.8 -1.0988,6.7016 -0.29882,9.6016 0.7,2.6 2.9996,5.7984 6.0996,4.3984 0.40001,-0.1 0.29961,-1.3996 0.0996,-1.5996 -1.8,-1.9 -4.0004,-3.5992 -4.9004,-6.1992 -0.4,-1.2 3.9e-4,-1 0.90039,-2 0.9,-0.9 1.9996,-1.5004 3.0996,-1.9004 3.9,-1.4 8.4008,-1.0996 12.301,-0.0996 -0.002,-0.0372 -0.004,-0.076 -0.006,-0.11328 0.3661,0.10409 0.70507,-2.695 0.70507,-2.7871 0,-0.6 0.10118,-3.3992 -0.79882,-3.6992 -2.0625,-0.6 -4.6314,-1.0459 -7.1738,-1.0254 z m 14.049,14.9 c -0.05,-0.025 -0.12539,0.27461 -0.7754,0.22461 -0.8,-0.1 -1.7996,0.19922 -2.5996,0.19922 -2.7,0.2 -7.4012,-0.29883 -9.2012,2.2012 -1.9,2.7 -1.2988,7.8984 -0.79882,10.898 0.3,2 0.99882,5.3016 3.2988,6.1016 1,0.4 1.9004,-0.10117 2.9004,-0.20117 1.3,-0.2 2.5008,-0.20039 3.8008,-0.40039 1.9017,-0.38035 3.746,-0.64304 5.6641,-0.83594 0.13937,-0.0114 0.27886,-0.0201 0.41797,-0.0371 0.46877,-0.0444 0.93742,-0.09 1.418,-0.12695 -0.008,-0.0847 -0.009,-0.16733 -0.0156,-0.25195 0.36357,-0.61521 0.16573,-2.8712 -0.18555,-3.0469 -1.7583,-1.1722 -3.8521,-1.9623 -5.9023,-2.7578 0.85114,-0.14671 1.693,-0.31185 2.502,-0.54297 1.1,-0.4 1.1016,-3.3992 1.1016,-4.1992 -0.1,2.1 0.19921,-0.89961 0.19921,-1.5996 0,-0.8 -7.8e-4,-1.5012 -0.30078,-2.2012 -0.2,-0.7 0.10157,0.80078 -0.89843,-1.6992 -0.55,-1.35 -0.575,-1.6996 -0.625,-1.7246 z m -11.406,5.0156 c 0.26384,-0.0957 1.641,1.2634 2.3965,3.123 -0.22113,-0.19987 -0.44223,-0.39144 -0.66602,-0.61523 -0.4,-0.4 -0.79961,-0.79922 -1.0996,-1.1992 -0.61875,-0.8625 -0.76071,-1.2615 -0.63085,-1.3086 z m -35.67,13.609 c -8.1,-0.1 -15.699,3.1984 -22.799,6.8984 -5.6,2.9 -10.8,6.1016 -12.5,12.602 -1.6,6.4 -1.3004,14.3 1.0996,20.6 2.3,6.1 6.8992,10.2 11.199,14.9 4.3,4.7 5.8004,9.8 6.4004,16 0.8,7.9 2.2004,15.799 2.9004,23.799 0.7,7.4 0.29922,14.7 0.19922,22.1 -0.1,12 0.7,24.902 5.5,36.102 4.5,10.5 13,17.599 24,20.299 8.2,2 15.901,-0.0988 21.301,-6.7988 6.2,-7.8 8.7004,-18.4 10.9,-27.9 1.1,-5.1 2.2996,-10.2 3.0996,-15.4 0.90001,-5.5 0.90001,-11.001 2.5,-16.301 0.2,-0.8 -0.3,-4.8996 -0.5,-4.5996 -7.8,11.3 -7.2012,26.001 -12.201,38.701 -2.6,6.5 -6.7984,13.298 -13.898,15.398 -9,2.7 -20.102,-1.6984 -26.602,-7.8984 -6.7,-6.3 -9.6988,-15.301 -10.299,-24.301 -0.3,-5.5 0.19922,-11 0.19922,-16.5 0.1,-8.1 -0.6,-16.199 -1.5,-24.199 -0.8,-6.6 -1.7,-13.201 -2.5,-19.801 -0.6,-5.9 -1.4004,-11.901 -3.9004,-17.301 -2.5,-5.5 -6.6996,-8.9984 -10.6,-13.398 -0.27014,-0.31782 -0.52136,-0.65117 -0.76562,-0.99023 0.0257,-0.31837 -0.0135,-0.71094 -0.13477,-0.71094 h -0.35742 c -0.4246,-0.64001 -0.82649,-1.2946 -1.2266,-1.9492 0.62691,-0.7224 1.222,-1.5085 1.8848,-2.0508 6.4,-4.9 15.801,-8.6996 23.801,-10.1 4,-0.7 7.8988,-0.59922 11.799,0.30078 1.6,0.4 3.3,1 5,1 1.5,0 2.7012,-0.50117 4.2012,-0.20117 3.4,0.7 6.3984,4.1008 8.8984,6.3008 2.8,2.6 5.6008,5.2004 8.8008,7.4004 2.7,1.9 5.6,3.5 8.5,5 3.5,1.8 7.4004,2.6988 10.9,4.7988 0.5,0.1 0.59883,-1.3992 0.29883,-1.6992 -5.3,-5.7 -10.798,-9.9008 -17.398,-13.801 -6.5,-3.8 -12.3,-8.6992 -17.4,-14.199 -2.9,-3.1 -4.8004,-7.4012 -8.4004,-9.7012 -3,-1.9 -6.9004,-2.3984 -10.4,-2.3984 z m 62.4,7.3984 c -1.4,-0.2 -2.2,1.5016 -2.5,2.6016 -0.5,2.1 -0.29921,4.5996 0.30079,6.5996 0.6,2.1 2.2992,6.0988 4.6992,6.7988 0.39345,0.0984 0.20687,-2.8721 0.10547,-3.2559 -0.0572,-0.15942 -0.11841,-0.31336 -0.20508,-0.44336 -0.3,-0.8 -0.80117,-1.3992 -1.2012,-2.1992 -0.6533,-1.1614 -1.149,-2.4265 -1.7539,-3.6074 0.62499,-0.20127 1.1166,-0.50135 1.4551,-1.0938 0.60001,-1.1 0.69961,-5.1004 -0.90039,-5.4004 z m 2.6055,12.744 c 0.0749,0.20847 0.13865,0.42958 0.19532,0.65625 0.2,0.7 0.79882,1.4008 -0.20118,-0.69922 0.002,0.005 0.004,0.0366 0.006,0.043 z m -3.9746,-5.6738 c -0.0143,0.10117 -0.0522,0.15708 -0.13086,0.13086 z m 0.58789,39.047 c -0.53474,-0.024 -1.1062,0.003 -1.7188,0.084 -0.2,0.1 -0.10078,1.9 0.19922,2 4.5,1.5 5.2016,7.1988 5.6016,11.299 0.2,2.4 0.99843,5.6008 0.39843,8.3008 -0.7,3.8 -4.4992,6.9004 -7.1992,9.4004 -3.9,3.7 -4.8,7.7 -5.5,13 -0.1,1.1 -0.49921,4.9 0.80079,5.5 2.7,1.3 2.0996,1.1996 4.0996,-0.40039 1,-0.8 2.0004,-1.9008 2.9004,-2.8008 2.2,-2.1 4.2,-4.1984 5.5,-6.8984 3.2,-6.5 3.0988,-14.002 2.7988,-21.102 -0.28125,-6.375 0.14026,-18.023 -7.8809,-18.383 z"
           fill="#fad28f" /><path
           id="path4328"
           d="m -310.78,94.314 c -2.3711,-0.01648 -4.8887,0.49219 -7.3574,1.4297 -9.8,3.7 -17.4,11.299 -17.5,22.199 -0.1,8.3 4.4996,15.1 13.6,14.1 0.3,0 0.20038,-2.1992 -0.0996,-2.1992 -3.1,-0.5 -6.1992,-1.0996 -8.6992,-3.0996 -4.3,-3.5 -4.2004,-10.2 -1.4004,-14.6 3.7,-5.7 10.5,-9.4008 17.1,-10.801 5,-1.1 10.401,-0.50039 13.301,4.0996 3.1,5 0.79961,10.7 0.0996,16 0,0.2 0,3.2996 0.5,3.0996 2.6,-0.8 2.8004,-7.3 2.9004,-9.5 0.3,-4 0.1,-8.1 -1,-12 -1.7188,-6.1187 -6.227,-8.6923 -11.443,-8.7285 z m 26.707,2.8867 c -2.014,0.08077 -4.1777,0.77656 -6.3652,2.2422 -8.8,5.8 -9.3984,22.501 -1.8984,29.801 0.1,0.1 0.29961,-1.5008 0.0996,-1.8008 -5.2,-8.3 -6.0004,-21 5.0996,-24.5 5.099,-1.6187 10.066,0.4331 11.934,4.9316 -0.93528,0.3445 -1.7983,0.76328 -2.5332,1.2695 -7.6,5.3 -4.6004,20.499 1.5996,25.699 0.2,0.2 0.29962,-1.2 0.0996,-1.5 -4,-6.1 -8.9996,-17.2 0.90039,-20.4 0.31967,-0.10312 0.64725,-0.1852 0.97657,-0.26367 0.076,0.19458 0.15398,0.30475 0.22265,0.0645 0.0122,-0.0431 0.0195,-0.0859 0.0312,-0.12891 2.7974,-0.61086 5.8853,-0.39321 8.6699,0.12891 1.7,0.3 4.1992,0.79922 5.1992,2.1992 1.5148,2.0495 1.4564,5.1827 1.6348,7.8281 -1.7802,0.27774 -3.6033,0.90823 -5.4336,1.9727 -4.8,2.8 -6.9,8.2996 -5,13.6 1.1,3.2 3.6992,4.6008 6.6992,5.8008 1.5,0.6 3.1008,1.2992 4.8008,1.6992 0.54548,0.15585 2.8336,0.19073 3.9199,0.29297 0.0186,0.13631 0.0469,0.24026 0.0801,0.20703 0.1,0 0.29843,-0.0996 0.39843,-0.0996 0.008,-0.004 0.0142,-0.0166 0.0215,-0.0234 0.0221,0.008 0.0711,0.0145 0.0801,0.0234 v -0.25195 c 0.0149,-0.12045 0.0124,-0.25559 0,-0.39453 v -0.45313 c -0.0214,0.0214 -0.0573,0.0288 -0.0859,0.043 -0.005,-0.01 -0.0102,-0.0376 -0.0156,-0.043 -1.3,-2.4 -5.6996,-3.2008 -8.0996,-4.3008 -2.8,-1.3 -5.7992,-2.2996 -6.1992,-5.5996 -0.4,-3.5 2.8996,-5.2012 6.0996,-6.2012 10.4,-3.1 18.999,7.2008 19.699,16.801 0,0.2 0.40117,2.3008 0.70117,1.3008 3.9958,-11.321 -4.9005,-24.987 -16.127,-24.521 0.33895,-4.3978 0.57459,-10.676 -2.9726,-13.379 -3.2523,-2.4392 -9.0153,-3.0169 -13.619,-1.9023 -0.62253,-5.8805 -5.0448,-10.364 -10.617,-10.141 z m -20.27,40.135 c -9.1433,-0.12766 -18.264,2.777 -25.295,8.9082 -12.2,10.6 -15.401,25.499 -10.301,40.699 3.1,9.2 8.6012,17.1 11.201,26.5 2.7,9.6 5.6988,19.301 7.2988,29.201 2.9,18.9 -4.4,36.998 -2.5,55.898 1.6,15.8 11.201,29 26.301,34.4 13.3,4.8 30.899,2.4 37.699,-11.5 5.6,-11.6 4.8016,-25.699 6.1016,-38.199 1.1,-10.2 2.7,-20.6 7,-30 4.1,-8.9 11,-16.1 15.1,-25.1 3.4,-7.5 5.1992,-15.601 4.6992,-23.801 -0.4,-6.7 -1.8992,-14.499 -8.6992,-17.199 -0.3,-0.1 -0.5,3.3988 0,3.7988 14.5,13.4 4.1004,33.501 -5.5996,46.701 -8.4,11.4 -11.501,24.8 -13.201,38.6 -0.8,6.6 -1.3004,13.3 -1.9004,19.9 -0.5,5.6 -0.99881,11.599 -3.2988,16.799 -5.5,12.1 -21.2,13.3 -32.6,10.1 -13.6,-3.9 -29.001,-15.398 -29.201,-30.898 -0.1,-7.4 1.8012,-14.7 2.7012,-22 1.1,-8.2 1.0984,-16.501 0.39843,-24.701 -0.7,-8.5 -2.3996,-16.9 -4.5996,-25.1 -2,-7.4 -3.8004,-14.9 -6.4004,-22.1 -2.9,-7.8 -9.2992,-15.301 -10.199,-23.701 -0.7,-6.7 5.9008,-15.399 10.801,-19.299 6.7,-5.2 14.8,-6.0012 23,-6.2012 8.9,-0.2 16.8,1.8016 24.5,6.1016 12.9,7.2 22.599,20.7 37.799,23.5 0.2,0.4 0.50038,-2.2004 -0.0996,-2.4004 -8.8,-1.9 -16.299,-7.2008 -22.199,-13.801 -5.7,-6.4 -10.702,-15 -18.102,-19.4 -6.1688,-3.675 -13.293,-5.6077 -20.404,-5.707 z m 64.303,10.301 c -3.0172,0.0521 -6.1969,1.1254 -7.2969,3.8066 -3.4,7.9 5.2992,15.701 8.1992,22.201 0.2,0.4 0.19922,-0.60117 0.19922,-0.70117 -0.3,-3.4 -2.4996,-6.2992 -4.0996,-9.1992 -1.1,-2 -2.9004,-4.6004 -3.4004,-6.9004 -0.5,-2.6 1.6016,-3.5008 4.1016,-3.8008 7.2,-1 9.7988,4.4008 11.799,10.301 0.0203,0.071 0.0181,0.1566 0.0293,0.23633 -0.0463,0.10722 -0.0943,0.2291 -0.12891,0.26367 -0.7,0.9 -1.1008,2.0004 -1.8008,2.9004 -1.5,1.9 -2.6,3.9004 -2.5,6.4004 0,1.2 0.50039,3.9988 1.9004,4.2988 1.9,0.4 3.3008,-2.2992 3.8008,-3.6992 2,-5.1 1.6992,-12.1 0.19922,-17.4 -1.1,-3.8 -3.3992,-6.9992 -7.1992,-8.1992 -1.0937,-0.34375 -2.4313,-0.53149 -3.8027,-0.50781 z"
           fill="#704805" /></g><g
         id="g4349"
         transform="matrix(0.27271443,-0.09740955,0.08816436,0.24683094,169.29839,19.96404)"
         style="display:inline"
         inkscape:label="Carmel3"><path
           id="path4278"
           d="m -387.59,42.018 c -8.7109,-0.31611 -20.424,3.7519 -21.111,13.875 -1.4761,-7.7518 -11.553,-10.848 -18.352,-8.9414 -4.4062,2.221 -3.0696,8.1274 -2.8184,12.146 1.5557,0.87122 3.8761,4.0647 1.2793,1.7344 -5.128,-3.8503 -15.353,-2.0502 -14.994,5.6484 -0.6816,3.6931 0.24744,7.1134 2.2988,10.141 -5.3353,-7.1867 -18.72,-3.3073 -19.055,5.8359 -0.10178,4.1499 -1.2321,8.8298 2.6856,11.6 2.885,4.4243 4.0876,11.69 0.12695,15.668 -2.275,1.0062 -7.3835,-1.1325 -6.0527,-3.7637 2.8815,-0.45772 9.4726,-1.8652 7.3184,-6.0586 -3.1216,-6.6511 -12.698,-3.9491 -15.357,1.7227 -2.1266,3.3828 -6.4331,8.6804 -3.1699,12.459 1.5182,0.35435 -1.6867,1.4635 -0.64648,3.9785 1.4287,14.6 -8.5698,29.34 -1.8651,43.66 7.1456,16.305 18.807,30.436 23.654,47.723 6.0436,16.391 6.2405,33.817 7.2832,51.043 0.63198,10.423 6.5446,21.831 17.68,23.789 11.098,1.4201 22.788,-1.6673 32.369,-7.3144 13.46,-8.2532 16.541,-25.458 15.213,-40.045 -1.7153,-24.448 -9.6323,-49.119 -1.9922,-73.277 3.6217,-15.962 13.014,-30.5 13.992,-47.041 0.744,-13.866 -7.2297,-29.847 -22.09,-32.117 -18.266,-3.0478 -37.454,5.2177 -48.621,19.85 -5.529,7.4421 -14.375,14.616 -21.812,17.598 7.1297,-6.8752 16.021,-12.494 21.518,-21.111 7.2533,-10.052 17.115,-18.773 29.539,-21.461 -0.4973,-6.5139 1.2076,-12.831 2.0117,-19.229 1.3139,5.8103 4.329,12.9 3.4176,18.241 2.9148,2.3054 9.3918,-1.2738 12.774,0.25156 3.3519,0.1322 11.293,7.8936 13.858,7.3442 3.0325,-3.0909 2.455,-11.964 3.356,-15.944 3.4003,-6.0233 7.2422,-13.013 3.1418,-20.348 -2.9173,-5.5887 -9.5104,-8.1887 -15.578,-7.6562 z m -39.551,29.146 c -0.45799,1.806 -3.7032,4.8394 -1.5195,1.6504 0.16825,-0.1101 2.3102,-3.1252 1.5195,-1.6504 z m -13.555,13.252 c 0.0376,2.4498 -2.993,5.7359 -4.6289,2.5215 0.88644,-0.83167 4.046,-1.6211 4.6289,-2.5215 z"
           fill="#fce2b7" /><path
           id="path10"
           d="m -391.39,42.803 c -4.2269,-0.07822 -8.5547,0.95977 -11.648,3.041 -6.8,4.5 -6.4996,18.199 -2.0996,24.199 1.1,1.5 2.6992,2.9004 4.6992,2.9004 1,0 4.4016,-0.59922 5.1016,-1.1992 0.3,-0.5 0.8,-1.6004 0.5,-2.4004 -1,-2.6 -2.7012,-3.5008 -4.7012,-5.3008 -1.1,-1 -2.0992,-2 -3.1992,-3 -0.53284,-0.45673 -1.7591,-2.238 -2.3594,-1.6992 1.6018,-3.4831 8.6191,-5.4535 11.658,-5.9004 7,-1 12.702,1.4004 16.102,6.9004 0.1,0.2 0.29882,-0.09922 0.29882,-0.19922 1.7,-5.3 -0.49882,-12.402 -5.2988,-15.102 -2.5375,-1.4438 -5.7652,-2.1794 -9.0527,-2.2402 z m -34.049,5.9414 c -0.7,0 -0.79883,1.8988 -0.79883,2.2988 -0.6,4.1 -0.19999,8.6004 2.5,11.9 1.6,2 4.2004,3.2004 2.4004,5.9004 -1.7,2.7 -4.6004,4.1996 -7.4004,5.5996 -0.5,0.1 -7.8e-4,2.8008 0.19922,2.8008 5.2,-2 9.5008,-4.1012 9.8008,-10.201 0.10001,-2.5 -0.20078,-5.0984 -1.3008,-7.3984 -0.32603,-0.71728 -0.73354,-1.4351 -1.1465,-2.1523 2.8861,0.30547 5.8141,1.6553 5.9473,4.6523 0,0.5 0.19961,3.4992 1.0996,3.1992 0.9,-0.3 0.69922,-3.8004 0.69922,-4.4004 -0.1,-7.9 -3.9,-12.199 -12,-12.199 z m -11.326,12.211 c -1.4971,-0.0918 -2.9102,0.58789 -3.9727,2.0879 -4.8,7.2 -0.10039,16.7 1.5996,24 0.2,0.7 0.40039,-0.69844 0.40039,-0.89844 -0.1,-2.8 -0.5996,-5.5012 -1.0996,-8.2012 -0.5,-2.6 -1.7012,-5.5996 0.29882,-7.5996 1.3,-1.3 3.3008,-1.1992 4.8008,-0.19922 1,0.7 1.6992,1.6988 2.1992,2.7988 0.4,0.9 0.40118,2.3 1.2012,3 0.8,0.8 1.0996,-2.9 1.0996,-3 0.2,-3.9 -0.30078,-8.7 -3.8008,-11 -0.9,-0.6 -1.8283,-0.9332 -2.7266,-0.98828 z m -9.6035,10.828 c -9.0022,0.04944 -8.5449,12.529 -9.6699,19.561 0,0.1 -0.0988,1.5996 0.20118,1.5996 1.7,-0.3 2.5992,-4.6992 3.1992,-6.1992 1.5414,-3.6609 4.3005,-4.8914 8.0762,-4.4414 0.17769,0.35853 0.43182,0.50963 0.92382,0.14062 0.8,-0.7 0.6,-3.7 0.5,-4.5 v -0.79883 c 0,-0.8 -7.8e-4,-5.0012 -1.3008,-5.2012 -0.6875,-0.1125 -1.3295,-0.16345 -1.9297,-0.16016 z m 46.602,9.4902 c -13.34,-0.05331 -27.198,6.7387 -37.07,14.67 -7.4,6 -12.101,13.1 -17.301,21 -4.3,6.5 -9.2992,15.7 -17.699,16.9 -0.1,0.3 -0.002,3 0.39843,3 11.6,0.3 18.1,-11.699 25.9,-18.199 6.1,-5.1 11.4,-10.401 18.4,-14.201 5.7,-3.1 12,-5.2988 18.4,-6.2988 6,-0.9 12.3,-0.90156 18.1,0.89844 2.9,0.9 5.5008,2.3012 7.8008,4.2012 1.2,1 2.1992,2.0988 3.1992,3.2988 0.5,0.7 1,1.4012 1.5,2.2012 -0.21819,-0.29093 1.09,2.6182 1.6699,3.3945 -0.0153,0.18128 -0.0312,0.36893 -0.0703,0.50586 -0.4,0.9 -0.6,1.8988 -1,2.7988 -0.5,1.5 -1.0988,2.9008 -1.7988,4.3008 -1.6,3.8 -3.5004,7.6 -4.9004,11.5 -2.5,7.4 -2.8,15.299 -5,22.699 -2.4,8.1 -4.8996,15.701 -5.5996,24.301 -0.7,8.9 -0.2,17.899 0.5,26.799 0.6,8.3 0.89843,16.5 2.8984,24.5 0.9,3.5 2.0008,6.9004 2.8008,10.4 0.2,0.7 0.70079,4.7004 0.80079,3.4004 -0.2,2.1 -1.5,4.5008 -2.5,6.3008 -6.5,11.3 -19.3,18.399 -32,20.199 -9.1,1.3 -19.3,-0.80039 -20,-11.4 -0.9,-12.8 1.9,-27.399 0,-40.799 -2.1,-14.6 -9.9004,-29.801 -20.9,-39.701 -0.39999,-0.4 -0.50078,3.4004 -0.30078,3.9004 4,9.2 7.6008,18.6 11.801,27.6 3.4,7.3 6.5988,13.9 6.2988,22 -0.4,12.3 -1.6992,25.2 0.30078,37.5 0.8,4.8 2.0996,10.201 5.5996,13.801 3.9,4 9.6004,4.5992 14.9,4.1992 13.5,-1.1 27.6,-8.5 34.9,-20 9.3,-14.6 5.1,-32.4 1,-48 -2.3,-8.5 -2.4012,-17.8 -2.7012,-26.6 -0.3,-9.6 2.6016,-17.5 5.1016,-26.6 2.3,-8.7 2.8,-17.401 6.5,-25.701 3.1,-7.1 6.3,-13.999 7,-21.799 1.4,-14.7 -3.1016,-32.701 -19.602,-36.201 -2.4062,-0.51562 -4.8577,-0.75966 -7.3281,-0.76953 z m -61.232,14.434 c -1.0158,-0.12305 -1.6379,1.0363 -2.3379,1.7363 -0.7,0.7 -1.5012,1.4012 -2.2012,2.2012 -0.7,0.8 -1.4992,1.5984 -2.1992,2.3984 -0.8,1 -1.3,2.1016 -2,3.1016 0.10001,0.1 0.0992,1 0.19922,1 0.9,-0.4 1.7,-0.30078 2.5,-0.80078 1,-0.5 1.9008,-1.0992 2.8008,-1.6992 0.9,-0.7 1.7996,-1.4012 2.5996,-2.2012 1,-1 1.1004,-1.9988 1.4004,-3.2988 0.10001,-0.4 0.29922,-2.0008 -0.30078,-2.3008 -0.1625,-0.075 -0.31582,-0.11914 -0.46093,-0.13672 z"
           fill="#fad28f" /><path
           id="path4338-8"
           d="m -387.44,38.566 c -0.58747,0.0075 -1.1848,0.03437 -1.791,0.07813 -8.2,0.6 -17,3.8992 -19.1,12.699 -0.12341,0.51542 -0.21963,1.0338 -0.30274,1.5527 -0.89654,-2.8892 -2.7641,-5.3429 -6.1973,-6.9531 -7,-3.3 -16.1,-1.8 -14.5,7.5 0.1,0.9 0.29921,-0.29961 0.19921,-0.59961 -0.9,-8.8 11.5,-5.5008 15.6,-2.8008 8.4,5.6 1.6996,16.101 2.0996,24.201 0,0.4 0.40157,1.6996 0.60157,0.59961 0.69192,-3.7445 2.016,-8.3484 2.5976,-12.852 0.83386,3.5356 2.3902,6.9329 4.4024,9.9512 -0.1,0 0.1,-1.1004 0,-1.4004 -1.7822,-3.62 -3.6839,-7.7041 -4.125,-11.736 0.0287,-0.88898 0.0133,-1.7653 -0.0586,-2.6191 0.15694,-2.3034 0.90798,-4.552 2.582,-6.6445 3.8,-4.8 10.401,-6.2992 16.301,-6.6992 5.8,-0.3 11.9,0.59922 15.4,5.6992 6.4,9.3 -2.6012,15.1 -5.7012,22.9 -0.2,0.4 7.8e-4,3.7996 0.30078,3.5996 7.7,-4.4 10.301,-15.199 8.8008,-23.299 -1.6875,-9.2812 -8.2972,-13.29 -17.109,-13.178 z m -47.74,18.395 c -2.2688,0.02529 -4.4758,0.76406 -6.0508,2.3828 -2.3,2.3 -2.3004,6 -1.9004,9 0.3,1 0.4004,-0.50078 0.4004,-0.80078 -0.9,-6.6 5.6,-9.0988 11,-7.2988 2.3,0.8 4.5996,2.2996 5.5996,4.5996 1.4,3.2 -2.9,6.6996 -4.5,9.0996 -0.2,0.3 -0.20039,2.4008 0.0996,2.3008 3.1,-1.2 5.1008,-5.5012 5.3008,-8.7012 0.2,-2.7 -0.19961,-5.5 -2.0996,-7.5 -1.9125,-1.9688 -4.9325,-3.1146 -7.8496,-3.082 z m -14.172,13.105 c -2.9784,0.09448 -5.9664,1.4277 -7.8789,3.6777 -3.2,3.8 -3.9996,9.8 -2.5996,14.5 0.2,1.1 0.29882,-1.2004 0.29882,-1.4004 -0.7,-4.6 0.7,-9.5004 5,-11.9 3.1,-1.7 7.5996,-1.6992 10.6,0.30078 2.2,1.5 4.2012,4.7004 3.2012,7.4004 -0.9,2.3 -3.1008,2.7 -5.3008,3 -0.4,0.1 -0.2,1.9988 0,2.2988 3.5,3.5 6.0004,-0.4 6.4004,-4 0.5,-3.9 -0.20078,-8.8992 -3.3008,-11.699 -1.7938,-1.575 -4.1034,-2.2512 -6.4199,-2.1777 z m 50.084,6.9902 c -4.7625,0.0375 -9.5629,0.8875 -13.963,2.1875 -9.6,2.8 -16.901,7.8 -23.201,15.5 -4.1,5 -7.5988,10.4 -12.299,14.9 -4.3,4.2 -9.2012,7.3992 -13.701,11.199 -0.6,0.6 -0.0988,3.2996 0.20118,3.0996 3.6,-2.6 7.5988,-4.6996 11.299,-7.0996 3.8,-2.4 6.6,-5.9008 9.5,-9.3008 5.7,-6.7 11.601,-13.299 19.701,-17.299 12.3,-6 31.799,-9.3008 42.699,1.1992 5.7,5.5 8.3996,13.7 9.0996,21.4 0.7,8.7 -2.0996,16.4 -5.0996,24.5 -6.6,17.3 -13.099,34.2 -12.299,53 0.6,13.6 3.3984,27 4.8984,40.6 1.5,13.6 1.6004,29.1 -8.0996,40 -4.8,5.4 -11.7,8.7996 -18.5,10.6 -6.3,1.7 -14.7,3.4 -21.1,1.5 -17.7,-5.3 -15.6,-27.5 -16.4,-42 -1,-19.1 -7.0988,-38.198 -16.299,-54.898 -5.1,-9.3 -11.8,-17.901 -14.9,-28.201 -3.5,-11.8 2.3,-22.4 3.5,-34 0,-0.4 -0.30118,-3.6996 -0.70118,-2.0996 -1.1,4.9 -3.4,9.2992 -4.5,14.199 -1.1,4.5 -1.5,9.1012 -1.5,13.701 0.1,8.5 2.2,16.5 6,24.1 4.6,9.3 11,17.5 15.5,26.9 5,10.4 8.7,21.5 10.5,33 2.6,15.7 -1.2,34.2 7.5,48.5 8.8,14.5 28.7,16 41.9,7 27.6,-18.8 19.601,-57 15.801,-84.9 -1.1,-8.1 -2.2004,-16.4 -0.90039,-24.6 1.9,-11.7 6.8008,-22.8 10.801,-33.9 5.6,-15.4 8.0984,-31.6 2.8984,-47.6 -2.5,-7.7 -7.0996,-15 -14.6,-18.5 -4.25,-1.95 -8.9738,-2.725 -13.736,-2.6875 z m -63.764,13.287 c -7,0.1 -11,9.4996 -12.5,15.1 -0.6,2.4 -1.0996,5.1996 -0.59961,7.5996 0.6,2.7 2.0996,2.8012 4.5996,2.2012 0.3,0 0.19961,-1.1996 0.0996,-1.0996 -6.4,0.4 -2.9996,-6.7012 -1.0996,-9.7012 2.1,-3.2 4.8,-7.2992 9,-7.6992 1.7,-0.2 3.5004,0.29883 4.9004,1.2988 0.687,0.53432 1.6616,2.6912 2.3086,3.7754 -0.0342,0.0536 -0.0686,0.10458 -0.10938,0.125 -0.5,0.4 -0.9,0.90078 -1.5,1.3008 -2,1.4 -4.1,1.5004 -6.5,1.9004 -0.6,0.1 -0.4,2.9988 0,3.2988 2.1,1.7 6.0008,3.9 8.3008,1.5 1.9,-2 2.0004,-5.4004 1.9004,-7.9004 -0.10001,-5.3 -2.5008,-11.799 -8.8008,-11.699 z"
           fill="#704805" /></g></g></g><g
     inkscape:label="Toaster"
     inkscape:groupmode="layer"
     id="layer1"
     style="display:inline"
     transform="translate(-3.797479)"><g
       id="g6334"
       transform="translate(25.400001,3.1750001)"><g
         transform="matrix(0.26458333,0,0,0.26458333,-176.29926,83.067636)"
         id="use4286" /><rect
         rx="1.0583333"
         ry="1.0583333"
         y="118.27068"
         x="125.53651"
         height="16.334658"
         width="8.1258478"
         id="use4288"
         style="color:#000000;display:inline;overflow:visible;visibility:visible;fill:#80a0c1;fill-opacity:1;fill-rule:nonzero;stroke:none;stroke-width:0.264583;marker:none;enable-background:accumulate" /><path
         inkscape:connector-curvature="0"
         id="use4290"
         d="m 81.714304,100.66613 c -7.376345,0.0316 -14.755945,0.595 -22.007644,1.72127 l -12.505558,1.99351 c -1.587844,0.21293 -2.950924,0.9229 -3.99579,1.9496 v -0.1932 c -1.500638,1.49937 -2.502879,3.24751 -2.502879,5.49752 v 26.50403 2.50286 3.03204 h 0.245903 84.772474 0.2459 v -31.79303 c 0,-3.75065 -2.74799,-6.99686 -6.49867,-7.49982 l -15.75485,-2.24819 c -7.251091,-0.9999 -14.622541,-1.49818 -21.998886,-1.46659 z"
         style="fill:#c0c6d0;fill-opacity:1;stroke:none;stroke-width:0.264583"
         sodipodi:nodetypes="sccccsccccccsccs" /><path
         inkscape:connector-curvature="0"
         id="use4292"
         d="m 81.714304,100.66613 c -7.376345,0.0316 -14.755945,0.595 -22.007644,1.72127 l -12.505558,1.99351 c -1.587844,0.21293 -2.950924,0.9229 -3.99579,1.9496 v 29.30548 c 0,1.49937 0.993431,2.50287 2.494068,2.50287 h 67.5159 c 1.49974,0 2.50285,-1.00381 2.50285,-2.50287 v -31.79078 l -12.00494,-1.71249 c -7.251091,-0.9999 -14.622541,-1.49818 -21.998886,-1.46659 z"
         style="opacity:0.3;fill:#ffffff;fill-opacity:1;stroke:none;stroke-width:0.264583" /><g
         id="use4298"
         style="opacity:0.4"
         transform="matrix(0.26458333,0,0,0.26458333,-174.42885,83.067636)"><path
           style="fill:#ffffff;fill-opacity:1;stroke:none"
           inkscape:connector-curvature="0"
           d="m 848.99219,164.76824 c 4.90939,0 8.89797,3.97957 8.89797,8.89797 0,4.9184 -3.98858,8.89909 -8.89797,8.89909 -4.90937,0 -8.89796,-3.97957 -8.89796,-8.89909 0,-4.9184 3.98859,-8.89797 8.89796,-8.89797"
           id="path4338" /><path
           style="fill:#ffffff;fill-opacity:1;stroke:none"
           inkscape:connector-curvature="0"
           d="m 848.99219,155.87141 c -5.3399,0 -8.89796,-3.56258 -8.89796,-8.89797 v -35.59073 c 0,-5.33878 3.55806,-8.89797 8.89796,-8.89797 5.33991,0 8.89797,3.55806 8.89797,8.89797 v 35.59073 c 0,5.33428 -3.55806,8.89797 -8.89797,8.89797"
           id="path4340" /></g><g
         style="color:#000000;display:inline;overflow:visible;visibility:visible;fill:#174961;fill-opacity:1;fill-rule:nonzero;stroke:none;stroke-width:1;marker:none;enable-background:accumulate"
         id="use4294"
         transform="matrix(0.26458333,0,0,0.26458333,-69.407595,83.067636)"><rect
           style="color:#000000;display:inline;overflow:visible;visibility:visible;fill:#174961;fill-opacity:1;fill-rule:nonzero;stroke:none;stroke-width:1;marker:none;enable-background:accumulate"
           id="rect4326"
           width="49.608372"
           height="338.89828"
           x="-276.3287"
           y="408.58044"
           ry="3.9999995"
           rx="4"
           transform="rotate(-90)" /><g
           id="g4328"
           transform="translate(-369.58103)"
           style="color:#000000;display:inline;overflow:visible;visibility:visible;fill:#174961;fill-opacity:1;fill-rule:nonzero;stroke:none;stroke-width:1;marker:none;enable-background:accumulate"><path
             sodipodi:nodetypes="sssssssss"
             inkscape:connector-curvature="0"
             id="path4330"
             d="m 820.95942,288.5714 -4,-9.17594 c -0.88552,-2.03138 -0.216,-4 2,-4 h 51.93547 c 2.216,0 2.88552,1.96862 2,4 l -4,9.17594 c -0.88552,2.03138 -1.784,4 -4,4 h -39.93547 c -2.216,0 -3.11448,-1.96862 -4,-4 z"
             style="color:#000000;display:inline;overflow:visible;visibility:visible;fill:#174961;fill-opacity:1;fill-rule:nonzero;stroke:none;stroke-width:1;marker:none;enable-background:accumulate" /><path
             style="color:#000000;display:inline;overflow:visible;visibility:visible;fill:#174961;fill-opacity:1;fill-rule:nonzero;stroke:none;stroke-width:1;marker:none;enable-background:accumulate"
             d="m 1024.9594,288.5714 -4,-9.17594 c -0.8855,-2.03138 -0.216,-4 2,-4 h 51.9355 c 2.216,0 2.8855,1.96862 2,4 l -4,9.17594 c -0.8855,2.03138 -1.784,4 -4,4 h -39.9355 c -2.216,0 -3.1145,-1.96862 -4,-4 z"
             id="path4332"
             inkscape:connector-curvature="0"
             sodipodi:nodetypes="sssssssss" /></g></g><path
         style="display:inline;opacity:0.491409;fill:#c7ddef;stroke:none;stroke-width:0.264583"
         d="m 40.700425,142.92961 v 3.514 c 0,1.26437 0.76065,2.1084 1.90994,2.1084 h 8.1442 61.970385 8.14419 c 1.14933,0 1.90998,-0.84403 1.90998,-2.1084 v -3.514 H 112.72495 50.754565 Z"
         id="use4296"
         inkscape:connector-curvature="0" /></g></g></svg>
