<svg width="1280" height="720" xmlns="http://www.w3.org/2000/svg" xmlns:xlink="http://www.w3.org/1999/xlink" overflow="hidden"><defs><clipPath id="clip0"><rect x="0" y="0" width="1280" height="720"/></clipPath><clipPath id="clip1"><rect x="275" y="264" width="67" height="67"/></clipPath><clipPath id="clip2"><rect x="275" y="264" width="67" height="67"/></clipPath><clipPath id="clip3"><rect x="275" y="264" width="67" height="67"/></clipPath></defs><g clip-path="url(#clip0)"><rect x="0" y="0" width="1280" height="720" fill="#FFFFFF"/><g clip-path="url(#clip1)"><g clip-path="url(#clip2)"><g clip-path="url(#clip3)"><path d="M308.49 270.976C293.851 270.976 281.984 282.843 281.984 297.482 281.984 312.121 293.851 323.988 308.49 323.988 323.129 323.988 334.996 312.121 334.996 297.482 335.003 282.849 323.146 270.982 308.514 270.976 308.506 270.976 308.498 270.976 308.49 270.976ZM308.49 310.76C308.49 310.76 295.6 300.903 295.6 292.942 295.6 287.634 303.713 281.947 308.49 291.425 313.267 281.947 321.381 287.634 321.381 292.942 321.381 300.903 308.49 310.76 308.49 310.76Z"/></g></g></g></g></svg>