<?xml version="1.0" encoding="UTF-8" standalone="no"?>
<!-- Created with Inkscape (http://www.inkscape.org/) -->

<svg
   width="210mm"
   height="297mm"
   viewBox="0 0 210 297"
   version="1.1"
   id="svg1680"
   inkscape:version="1.2.1 (9c6d41e410, 2022-07-14)"
   sodipodi:docname="ZReinvest.svg"
   inkscape:export-filename="ZReinvest.png"
   inkscape:export-xdpi="415.79053"
   inkscape:export-ydpi="415.79053"
   xmlns:inkscape="http://www.inkscape.org/namespaces/inkscape"
   xmlns:sodipodi="http://sodipodi.sourceforge.net/DTD/sodipodi-0.dtd"
   xmlns="http://www.w3.org/2000/svg"
   xmlns:svg="http://www.w3.org/2000/svg">
  <sodipodi:namedview
     id="namedview1682"
     pagecolor="#ffffff"
     bordercolor="#000000"
     borderopacity="0.25"
     inkscape:showpageshadow="2"
     inkscape:pageopacity="0.0"
     inkscape:pagecheckerboard="0"
     inkscape:deskcolor="#d1d1d1"
     inkscape:document-units="mm"
     showgrid="true"
     inkscape:zoom="0.84096521"
     inkscape:cx="271.7116"
     inkscape:cy="313.925"
     inkscape:window-width="1920"
     inkscape:window-height="1137"
     inkscape:window-x="-8"
     inkscape:window-y="-8"
     inkscape:window-maximized="1"
     inkscape:current-layer="layer3">
    <inkscape:grid
       type="xygrid"
       id="grid1262"
       spacingx="1.0583333"
       spacingy="1.0583333"
       color="#35bcff"
       opacity="0.14901961"
       empcolor="#e500ac"
       empopacity="0.30196078" />
  </sodipodi:namedview>
  <defs
     id="defs1677">
    <rect
       x="-311.54678"
       y="329.38342"
       width="142.69318"
       height="159.34072"
       id="rect1072" />
  </defs>
  <g
     inkscape:groupmode="layer"
     id="layer3"
     inkscape:label="FatCircler"
     style="display:inline;opacity:1">
    <rect
       style="opacity:1;fill:none;stroke-width:0.749405"
       id="rect1361"
       width="146.61229"
       height="145.66843"
       x="17.618643"
       y="33.034958"
       inkscape:label="bufferRect" />
  </g>
  <g
     inkscape:label="Layer 1"
     inkscape:groupmode="layer"
     id="layer1"
     style="display:inline">
    <g
       id="g1273"
       inkscape:label="Heart Circle">
      <path
         id="path3150"
         style="display:inline;opacity:1;fill:#000000;stroke:none;stroke-width:0.697928"
         inkscape:label="Cut Circle"
         d="M 92.812423,39.790336 A 67.671303,67.328384 0 0 0 46.188912,58.426925 L 41.24141,53.293388 38.29637,63.525838 35.351331,73.757772 45.685067,71.192554 56.018803,68.626819 51.481095,63.918062 A 59.83062,59.83062 0 0 1 92.812423,47.28807 59.83062,59.83062 0 0 1 152.64288,107.11904 59.83062,59.83062 0 0 1 92.812423,166.9495 59.83062,59.83062 0 0 1 56.719019,154.79262 H 45.094405 A 67.671303,67.328384 0 0 0 92.812423,174.44723 67.671303,67.328384 0 0 0 160.48374,107.11904 67.671303,67.328384 0 0 0 92.812423,39.790336 Z" />
      <g
         id="g1189"
         inkscape:label="Hearts">
        <path
           d="m 33.589681,74.929267 c -3.859462,0 -6.988102,3.128642 -6.988102,6.988098 0,3.85946 3.12864,6.9881 6.988102,6.9881 3.859451,0 6.988091,-3.12864 6.988091,-6.9881 0.002,-3.857875 -3.124156,-6.986516 -6.981764,-6.988098 -0.002,0 -0.004,0 -0.006,0 z m 0,10.488739 c 0,0 -3.398348,-2.598722 -3.398348,-4.697576 0,-1.399412 2.138924,-2.898745 3.398348,-0.399945 1.259413,-2.4988 3.398606,-0.999467 3.398606,0.399945 0,2.098854 -3.398606,4.697576 -3.398606,4.697576 z"
           id="path1095"
           style="display:inline;fill:#000000;stroke-width:0.263642"
           inkscape:label="Heart5" />
        <path
           d="m 29.409175,90.859973 c -3.859459,0 -6.988099,3.128635 -6.988099,6.988095 0,3.859472 3.12864,6.988112 6.988099,6.988112 3.859453,0 6.988093,-3.12864 6.988093,-6.988112 0.0019,-3.85787 -3.124155,-6.986511 -6.981768,-6.988095 -0.0019,0 -0.0038,0 -0.0057,0 z m 0,10.488747 c 0,0 -3.398348,-2.598732 -3.398348,-4.697582 0,-1.39941 2.138927,-2.89875 3.398348,-0.39994 1.259416,-2.49881 3.398604,-0.99947 3.398604,0.39994 0,2.09885 -3.398604,4.697582 -3.398604,4.697582 z"
           id="path1095-3"
           style="display:inline;fill:#000000;stroke-width:0.263642"
           inkscape:label="heart4" />
        <path
           d="m 29.772931,107.18813 c -3.859459,0 -6.988099,3.12864 -6.988099,6.9881 0,3.85946 3.12864,6.9881 6.988099,6.9881 3.859453,0 6.988093,-3.12864 6.988093,-6.9881 0.0019,-3.85788 -3.124155,-6.98652 -6.981768,-6.9881 -0.0019,0 -0.0038,0 -0.0057,0 z m 0,10.48874 c 0,0 -3.398348,-2.59872 -3.398348,-4.69758 0,-1.39941 2.138927,-2.89874 3.398348,-0.39994 1.259416,-2.4988 3.398604,-0.99947 3.398604,0.39994 0,2.09886 -3.398604,4.69758 -3.398604,4.69758 z"
           id="path1095-7"
           style="display:inline;fill:#000000;stroke-width:0.263642"
           inkscape:label="heart3" />
        <path
           d="m 33.79553,123.30627 c -3.85946,0 -6.988099,3.12865 -6.988099,6.9881 0,3.85946 3.128639,6.9881 6.988099,6.9881 3.859453,0 6.988093,-3.12864 6.988093,-6.9881 0.0019,-3.85787 -3.124156,-6.98651 -6.981769,-6.9881 -0.0019,0 -0.0038,0 -0.0057,0 z m 0,10.48874 c 0,0 -3.398348,-2.59872 -3.398348,-4.69757 0,-1.39941 2.138926,-2.89875 3.398348,-0.39995 1.259415,-2.4988 3.398604,-0.99946 3.398604,0.39995 0,2.09885 -3.398604,4.69757 -3.398604,4.69757 z"
           id="path1095-8"
           style="display:inline;fill:#000000;stroke-width:0.263642"
           inkscape:label="heart2" />
        <path
           d="m 42.220022,138.16422 c -3.859459,0 -6.988099,3.12864 -6.988099,6.98809 0,3.85946 3.12864,6.9881 6.988099,6.9881 3.859453,0 6.988093,-3.12864 6.988093,-6.9881 0.0019,-3.85787 -3.124155,-6.98651 -6.981768,-6.98809 -0.0019,0 -0.0038,0 -0.0057,0 z m 0,10.48874 c 0,0 -3.398348,-2.59872 -3.398348,-4.69758 0,-1.39941 2.138927,-2.89875 3.398348,-0.39995 1.259416,-2.4988 3.398604,-0.99946 3.398604,0.39995 0,2.09886 -3.398604,4.69758 -3.398604,4.69758 z"
           id="path1095-4"
           style="display:inline;fill:#000000;stroke-width:0.263642"
           inkscape:label="heart1" />
      </g>
    </g>
    <g
       aria-label="Z"
       transform="matrix(1.551188,0,0,1.551188,541.85423,-473.27957)"
       id="text1070"
       style="font-size:74.6668px;font-family:Algerian;-inkscape-font-specification:'Algerian, Normal';white-space:pre;shape-inside:url(#rect1072);display:inline;opacity:1;stroke-width:3"
       inkscape:label="Z">
      <path
         d="m -270.27597,349.28091 -29.23963,43.67716 h 2.29688 l 28.6563,-42.87507 0.65625,0.875 -28.07297,42.00007 h 3.64584 l 2.88021,-0.0729 h 1.4948 q 2.98959,0 5.65105,-1.13021 2.69792,-1.13021 4.08334,-2.95313 1.71355,-2.26043 2.91667,-4.99481 3.06251,8.02085 6.4896,12.25003 h -41.48966 l 27.01567,-40.5782 -0.72916,-0.0365 -4.66668,-0.0729 q -6.63543,0 -9.15106,1.45834 -2.51563,1.42188 -3.64584,5.90626 l -0.76562,-0.83854 q 0.69271,-3.09897 2.98959,-5.14064 1.53125,-1.38542 3.60938,-1.82292 2.07813,-0.47396 6.85418,-0.47396 3.02604,0 5.57813,0.10938 l 0.54688,0.0365 1.42187,-2.07813 q -2.55208,-0.18229 -5.03125,-0.18229 -7.54689,0 -10.39065,0.65625 -2.80729,0.65625 -4.88542,2.84375 -1.60417,1.71355 -2.62501,4.63022 l -0.29167,-0.61979 q -1.82292,-4.19272 -5.17709,-10.1719 l -0.21875,-0.40104 z m 5.32293,46.48446 -1.85938,3.28126 h -41.63549 l -0.76563,-0.98438 h 41.81779 l 1.3125,-2.29688 q -4.19272,-5.10418 -6.59897,-11.59377 l 1.23958,0.47396 q 1.85938,5.50522 6.19793,10.79168 z"
         style="display:inline"
         id="path1191"
         inkscape:label="Z" />
    </g>
  </g>
</svg>
